<svg viewBox="0 0 256 256" xmlns="http://www.w3.org/2000/svg" xmlns:xlink="http://www.w3.org/1999/xlink">
<defs>
<path id="compass-a" d="m255.77 0c-3.3744 68.465-13.364 131.71-40.03 191.25-20.468 45.705-67.265 69.495-120.04 62.801-43.379-5.5016-83.159-42.607-92.843-86.6-10.806-49.089 9.4706-100.44 53.018-122.8 61.471-31.554 128.67-40.533 199.9-44.659"/>
</defs>
<mask id="compass-b" fill="white">
<use xlink:href="#compass-a"/>
</mask>
<use fill="#ffffff" xlink:href="#compass-a"/>
<g mask="url(#compass-b)">
<path d="m113.79 76.094s-5.8934 32.657-8.2386 49.204c-11.937-9.3035-35.559-26.23-35.559-26.23s18.533 24.923 27.284 36.055c-16.625 1.8845-49.951 7.0735-49.951 7.0735s34.083 5.4816 49.956 7.3161c-9.2058 11.657-27.374 35.291-27.374 35.291s24.681-17.048 35.771-25.594c2.2622 15.86 8.1117 49.638 8.1117 49.638s5.3508-33.751 7.3842-50.198c10.964 8.5455 34.114 26.395 34.114 26.395s-16.127-24.141-24.959-35.544c16.041-1.8835 48.637-7.3052 48.637-7.3052s-32.913-5.2419-48.521-7.0465c8.0777-10.947 24.997-36.095 24.997-36.095s-23.71 18.388-34.29 26.857c-1.9575-16.342-7.3632-49.818-7.3632-49.818m142.01-75.632c-3.3744 68.465-13.364 131.71-40.03 191.25-20.468 45.705-67.265 69.495-120.04 62.801-43.379-5.5016-83.159-42.607-92.843-86.6-10.806-49.089 9.4706-100.44 53.018-122.8 61.471-31.554 128.67-40.533 199.9-44.659" fill="#E21708"/>
<path d="m6.1952 103.9c3.892-11.462 9.5805-22.166 16.937-31.596 2.7778-3.4204 5.8654-6.8368 9.2957-10.36 3.0306-2.938 6.2391-5.6764 9.6435-8.2149 3.1246-2.2789 6.5689-4.5189 10.265-6.699 1.1711-0.66311 2.3602-1.3052 3.5672-1.9244 14.883-7.6397 30.1-13.956 45.632-19.201 40.265-13.595 82.622-19.989 126.64-23.559 10.861-0.82788 20.26-1.3732 27.621-1.8845-74.937 16.162-114.75 32.064-163.24 53.268-48.486 21.204-89.878 67.27-92.072 80.461 1.291-11.934 3.1016-21.744 5.7025-30.289z" fill="#FA524A" fill-opacity=".3"/>
<path d="m97.011 259.08c-4.7073-0.59919-9.5905-1.512-14.534-2.8362-18.214-5.2519-37.246-16.484-52.433-32.87-13.227-14.421-22.986-32.097-27.159-51.051-1.9515-8.8661-2.8887-17.808-2.8588-26.637 0.54358 79.974 93.994 92.336 118.99 92.337 39.671 0.001085 39.175-7.9004 100.79-51.235-1.304 3.1328-2.6449 6.2386-4.0318 9.3344-14.428 32.218-41.942 53.546-75.407 60.984-8.7831 1.9444-17.868 2.932-27.226 2.932-5.2959 0-10.677-0.31657-16.126-0.95771z" fill="#AE0E10" fill-opacity=".3"/>
</g>
</svg>
