<svg viewBox="0 0 1000 562" xmlns="http://www.w3.org/2000/svg" xmlns:cc="http://creativecommons.org/ns#" xmlns:dc="http://purl.org/dc/elements/1.1/" xmlns:rdf="http://www.w3.org/1999/02/22-rdf-syntax-ns#">
<metadata>
<rdf:RDF>
<cc:Work rdf:about="">
<dc:format>image/svg+xml</dc:format>
<dc:type rdf:resource="http://purl.org/dc/dcmitype/StillImage"/>
<dc:title/>
</cc:Work>
</rdf:RDF>
</metadata>
<defs>
<clipPath id="hu">
<path d="m-288.93 6.5176h535.25v818.03h-535.25v-818.03z"/>
</clipPath>
<clipPath id="js">
<path d="m-75.544-57.383h131.85v262.87h-131.85v-262.87z"/>
</clipPath>
<clipPath id="jt">
<path d="m-67.966-40.004h122.55v244.78h-122.55v-244.78z"/>
</clipPath>
<clipPath id="ju">
<path d="m-60.388-22.622h113.24v226.69h-113.24v-226.69z"/>
</clipPath>
<clipPath id="jv">
<path d="m-52.809-5.2432h103.94v208.6h-103.94v-208.6z"/>
</clipPath>
<clipPath id="kg">
<path d="m-45.23 12.137h94.638v190.51h-94.638v-190.51z"/>
</clipPath>
<clipPath id="kj">
<path d="m-37.652 29.516h85.335v172.43h-85.335v-172.43z"/>
</clipPath>
<clipPath id="kk">
<path d="m-30.074 46.897h76.032v154.33h-76.032v-154.33z"/>
</clipPath>
<clipPath id="kl">
<path d="m-22.496 64.276h66.729v136.25h-66.729v-136.25z"/>
</clipPath>
<clipPath id="kv">
<path d="m-14.917 81.656h57.426v118.15h-57.426v-118.15z"/>
</clipPath>
<clipPath id="la">
<path d="m-7.3384 99.035h48.123v100.07h-48.123v-100.07z"/>
</clipPath>
<clipPath id="lb">
<path d="m0.23926 116.42h38.821v81.975h-38.821v-81.975z"/>
</clipPath>
<clipPath id="lc">
<path d="m7.8184 133.8h29.517v63.887h-29.517v-63.887z"/>
</clipPath>
<clipPath id="io">
<path d="m-331.19 383.13h228.55v45.73h-228.55v-45.73z"/>
</clipPath>
<clipPath id="iz">
<path d="m-315.97 384.41h213.24v43.441h-213.24v-43.441z"/>
</clipPath>
<clipPath id="jh">
<path d="m-300.76 385.7h197.94v41.15h-197.94v-41.15z"/>
</clipPath>
<clipPath id="ji">
<path d="m-285.54 386.99h182.63v38.861h-182.63v-38.861z"/>
</clipPath>
<clipPath id="jj">
<path d="m-270.32 388.28h167.33v36.572h-167.33v-36.572z"/>
</clipPath>
<clipPath id="jk">
<path d="m-255.1 389.57h152.02v34.283h-152.02v-34.283z"/>
</clipPath>
<clipPath id="jm">
<path d="m-239.88 390.86h136.72v31.992h-136.72v-31.992z"/>
</clipPath>
<clipPath id="jn">
<path d="m-224.66 392.15h121.41v29.703h-121.41v-29.703z"/>
</clipPath>
<clipPath id="jo">
<path d="m-209.45 393.43h106.1v27.414h-106.1v-27.414z"/>
</clipPath>
<clipPath id="jp">
<path d="m-194.23 394.72h90.798v25.124h-90.798v-25.124z"/>
</clipPath>
<clipPath id="jq">
<path d="m-179.01 396.01h75.493v22.834h-75.493v-22.834z"/>
</clipPath>
<clipPath id="jr">
<path d="m-163.79 397.3h60.188v20.544h-60.188v-20.544z"/>
</clipPath>
<clipPath id="jw">
<path d="m-512.21 476.61h437.89v188.83h-437.89v-188.83z"/>
</clipPath>
<clipPath id="jx">
<path d="m-481.3 478.44h406.3v174.84h-406.3v-174.84z"/>
</clipPath>
<clipPath id="jy">
<path d="m-450.39 480.28h374.7v160.84h-374.7v-160.84z"/>
</clipPath>
<clipPath id="jz">
<path d="m-419.47 482.11h343.11v146.85h-343.11v-146.85z"/>
</clipPath>
<clipPath id="ka">
<path d="m-388.56 483.94h311.52v132.86h-311.52v-132.86z"/>
</clipPath>
<clipPath id="kb">
<path d="m-357.65 485.77h279.93v118.86h-279.93v-118.86z"/>
</clipPath>
<clipPath id="kc">
<path d="m-326.74 487.6h248.34v104.87h-248.34v-104.87z"/>
</clipPath>
<clipPath id="kd">
<path d="m-295.82 489.44h216.75v90.876h-216.75v-90.876z"/>
</clipPath>
<clipPath id="ke">
<path d="m-264.91 491.27h185.16v76.883h-185.16v-76.883z"/>
</clipPath>
<clipPath id="kf">
<path d="m-234 493.1h153.56v62.891h-153.56v-62.891z"/>
</clipPath>
<clipPath id="kh">
<path d="m-203.08 494.93h121.97v48.896h-121.97v-48.896z"/>
</clipPath>
<clipPath id="ki">
<path d="m-172.17 496.76h90.382v34.903h-90.382v-34.903z"/>
</clipPath>
<clipPath id="kn">
<path d="m-185.18 548.64h162.35v153.97h-162.35v-153.97z"/>
</clipPath>
<clipPath id="ko">
<path d="m-175.88 550.04h151.96v143.79h-151.96v-143.79z"/>
</clipPath>
<clipPath id="kp">
<path d="m-166.59 551.43h141.58v133.61h-141.58v-133.61z"/>
</clipPath>
<clipPath id="kq">
<path d="m-157.3 552.83h131.19v123.43h-131.19v-123.43z"/>
</clipPath>
<clipPath id="kr">
<path d="m-148.01 554.22h120.81v113.25h-120.81v-113.25z"/>
</clipPath>
<clipPath id="ks">
<path d="m-138.72 555.62h110.42v103.07h-110.42v-103.07z"/>
</clipPath>
<clipPath id="kt">
<path d="m-129.43 557.02h100.04v92.891h-100.04v-92.891z"/>
</clipPath>
<clipPath id="ku">
<path d="m-120.14 558.41h89.652v82.71h-89.652v-82.71z"/>
</clipPath>
<clipPath id="kw">
<path d="m-110.85 559.81h79.267v72.531h-79.267v-72.531z"/>
</clipPath>
<clipPath id="kx">
<path d="m-101.56 561.21h68.883v62.35h-68.883v-62.35z"/>
</clipPath>
<clipPath id="ky">
<path d="m-92.265 562.6h58.497v52.171h-58.497v-52.171z"/>
</clipPath>
<clipPath id="kz">
<path d="m-82.974 564h48.113v41.99h-48.113v-41.99z"/>
</clipPath>
<clipPath id="ld">
<path d="m-324.54-61.096h309.14v317.62h-309.14v-317.62z"/>
</clipPath>
<clipPath id="le">
<path d="m-312.46-48.552h296.17v304.22h-296.17v-304.22z"/>
</clipPath>
<clipPath id="lf">
<path d="m-300.38-36.01h283.2v290.83h-283.2v-290.83z"/>
</clipPath>
<clipPath id="lg">
<path d="m-288.3-23.468h270.23v277.44h-270.23v-277.44z"/>
</clipPath>
<clipPath id="lh">
<path d="m-276.23-10.924h257.26v264.04h-257.26v-264.04z"/>
</clipPath>
<clipPath id="li">
<path d="m-264.15 1.6201h244.29v250.65h-244.29v-250.65z"/>
</clipPath>
<clipPath id="lj">
<path d="m-252.07 14.161h231.32v237.26h-231.32v-237.26z"/>
</clipPath>
<clipPath id="lk">
<path d="m-239.99 26.703h218.35v223.87h-218.35v-223.87z"/>
</clipPath>
<clipPath id="ll">
<path d="m-227.91 39.247h205.38v210.47h-205.38v-210.47z"/>
</clipPath>
<clipPath id="lm">
<path d="m-215.84 51.791h192.4v197.08h-192.4v-197.08z"/>
</clipPath>
<clipPath id="fh">
<path d="m-203.76 64.333h179.43v183.69h-179.43v-183.69z"/>
</clipPath>
<clipPath id="fi">
<path d="m-191.68 76.875h166.46v170.3h-166.46v-170.3z"/>
</clipPath>
<clipPath id="fj">
<path d="m-179.6 89.418h153.49v156.9h-153.49v-156.9z"/>
</clipPath>
<clipPath id="fk">
<path d="m-167.52 101.96h140.52v143.51h-140.52v-143.51z"/>
</clipPath>
<clipPath id="fl">
<path d="m-155.45 114.5h127.55v130.12h-127.55v-130.12z"/>
</clipPath>
<clipPath id="fm">
<path d="m-143.37 127.05h114.58v116.72h-114.58v-116.72z"/>
</clipPath>
<clipPath id="fn">
<path d="m-131.29 139.59h101.61v103.33h-101.61v-103.33z"/>
</clipPath>
<clipPath id="fo">
<path d="m-528.94 137.73h458.68v200.25h-458.68v-200.25z"/>
</clipPath>
<clipPath id="fp">
<path d="m-500.22 148.88h428.87v187.1h-428.87v-187.1z"/>
</clipPath>
<clipPath id="fq">
<path d="m-471.5 160.03h399.07v173.95h-399.07v-173.95z"/>
</clipPath>
<clipPath id="fr">
<path d="m-442.78 171.18h369.26v160.8h-369.26v-160.8z"/>
</clipPath>
<clipPath id="fs">
<path d="m-414.07 182.33h339.46v147.65h-339.46v-147.65z"/>
</clipPath>
<clipPath id="ft">
<path d="m-385.35 193.48h309.65v134.5h-309.65v-134.5z"/>
</clipPath>
<clipPath id="fu">
<path d="m-356.63 204.63h279.85v121.35h-279.85v-121.35z"/>
</clipPath>
<clipPath id="fv">
<path d="m-327.92 215.78h250.04v108.2h-250.04v-108.2z"/>
</clipPath>
<clipPath id="fw">
<path d="m-299.2 226.93h220.24v95.053h-220.24v-95.053z"/>
</clipPath>
<clipPath id="fx">
<path d="m-270.48 238.08h190.43v81.901h-190.43v-81.901z"/>
</clipPath>
<clipPath id="fy">
<path d="m-241.77 249.22h160.62v68.753h-160.62v-68.753z"/>
</clipPath>
<clipPath id="fz">
<path d="m-213.05 260.37h130.82v55.604h-130.82v-55.604z"/>
</clipPath>
<clipPath id="gb">
<path d="m-494.14-70.489h1641v922.28h-1641v-922.28z"/>
</clipPath>
<clipPath id="gc">
<path d="m-494.14-70.489h1641v922.28h-1641v-922.28z"/>
</clipPath>
<clipPath id="gd">
<path d="m-480.7-60.195h1607.5v902.51h-1607.5v-902.51z"/>
</clipPath>
<clipPath id="ge">
<path d="m-467.25-49.899h1574v882.75h-1574v-882.75z"/>
</clipPath>
<clipPath id="gf">
<path d="m-453.81-39.605h1540.5v862.98h-1540.5v-862.98z"/>
</clipPath>
<clipPath id="gg">
<path d="m-440.37-29.312h1507v843.22h-1507v-843.22z"/>
</clipPath>
<clipPath id="gh">
<path d="m-426.93-19.019h1473.5v823.46h-1473.5v-823.46z"/>
</clipPath>
<clipPath id="gj">
<path d="m-413.48-8.7227h1440v803.69h-1440v-803.69z"/>
</clipPath>
<clipPath id="gk">
<path d="m-400.04 1.5713h1406.5v783.93h-1406.5v-783.93z"/>
</clipPath>
<clipPath id="gl">
<path d="m-386.6 11.864h1373v764.17h-1373v-764.17z"/>
</clipPath>
<clipPath id="gm">
<path d="m-373.16 22.158h1339.5v744.41h-1339.5v-744.41z"/>
</clipPath>
<clipPath id="gn">
<path d="m-359.71 32.454h1306v724.64h-1306v-724.64z"/>
</clipPath>
<clipPath id="go">
<path d="m-346.27 42.748h1272.5v704.88h-1272.5v-704.88z"/>
</clipPath>
<clipPath id="gp">
<path d="m-332.83 53.042h1239v685.12h-1239v-685.12z"/>
</clipPath>
<clipPath id="gq">
<path d="m-319.39 63.335h1205.5v665.35h-1205.5v-665.35z"/>
</clipPath>
<clipPath id="gr">
<path d="m-305.94 73.631h1172v645.59h-1172v-645.59z"/>
</clipPath>
<clipPath id="gs">
<path d="m-292.5 83.925h1138.5v625.83h-1138.5v-625.83z"/>
</clipPath>
<clipPath id="gt">
<path d="m-279.06 94.219h1105v606.06h-1105v-606.06z"/>
</clipPath>
<clipPath id="gu">
<path d="m-265.62 104.51h1071.5v586.3h-1071.5v-586.3z"/>
</clipPath>
<clipPath id="gv">
<path d="m-252.17 114.81h1038v566.54h-1038v-566.54z"/>
</clipPath>
<clipPath id="gw">
<path d="m-238.73 125.1h1004.5v546.77h-1004.5v-546.77z"/>
</clipPath>
<clipPath id="gx">
<path d="m-225.29 135.4h971v527.01h-971v-527.01z"/>
</clipPath>
<clipPath id="gy">
<path d="m-211.85 145.69h937.5v507.25h-937.5v-507.25z"/>
</clipPath>
<clipPath id="gz">
<path d="m-198.41 155.98h904v487.48h-904v-487.48z"/>
</clipPath>
<clipPath id="ha">
<path d="m-184.96 166.28h870.5v467.72h-870.5v-467.72z"/>
</clipPath>
<clipPath id="hb">
<path d="m-171.52 176.57h837v447.96h-837v-447.96z"/>
</clipPath>
<clipPath id="hc">
<path d="m-158.08 186.87h803.51v428.19h-803.51v-428.19z"/>
</clipPath>
<clipPath id="hd">
<path d="m-144.64 197.16h770.01v408.43h-770.01v-408.43z"/>
</clipPath>
<clipPath id="he">
<path d="m-131.19 207.46h736.51v388.67h-736.51v-388.67z"/>
</clipPath>
<clipPath id="hf">
<path d="m-117.75 217.75h703.01v368.9h-703.01v-368.9z"/>
</clipPath>
<clipPath id="hg">
<path d="m-104.31 228.04h669.51v349.14h-669.51v-349.14z"/>
</clipPath>
<clipPath id="hh">
<path d="m-90.867 238.34h636.02v329.38h-636.02v-329.38z"/>
</clipPath>
<clipPath id="hi">
<path d="m-77.424 248.63h602.52v309.61h-602.52v-309.61z"/>
</clipPath>
<clipPath id="hk">
<path d="m-246.11 26.053h589.49v550.96h-589.49v-550.96z"/>
</clipPath>
<clipPath id="hl">
<path d="m-236.29 35.24h569.85v532.6h-569.85v-532.6z"/>
</clipPath>
<clipPath id="hm">
<path d="m-226.47 44.428h550.2v514.23h-550.2v-514.23z"/>
</clipPath>
<clipPath id="hn">
<path d="m-216.64 53.615h530.54v495.87h-530.54v-495.87z"/>
</clipPath>
<clipPath id="ho">
<path d="m-206.82 62.805h510.9v477.5h-510.9v-477.5z"/>
</clipPath>
<clipPath id="hp">
<path d="m-197 71.992h491.25v459.14h-491.25v-459.14z"/>
</clipPath>
<clipPath id="hq">
<path d="m-187.18 81.18h471.6v440.77h-471.6v-440.77z"/>
</clipPath>
<clipPath id="hr">
<path d="m-177.36 90.368h451.95v422.41h-451.95v-422.41z"/>
</clipPath>
<clipPath id="hs">
<path d="m-167.54 99.556h432.3v404.04h-432.3v-404.04z"/>
</clipPath>
<clipPath id="ht">
<path d="m-157.71 108.74h412.65v385.68h-412.65v-385.68z"/>
</clipPath>
<clipPath id="hv">
<path d="m-147.89 117.93h393v367.31h-393v-367.31z"/>
</clipPath>
<clipPath id="hw">
<path d="m-138.07 127.12h373.35v348.95h-373.35v-348.95z"/>
</clipPath>
<clipPath id="hx">
<path d="m-128.25 136.31h353.7v330.58h-353.7v-330.58z"/>
</clipPath>
<clipPath id="hy">
<path d="m-118.35 146.16h334v311.55h-334v-311.55z"/>
</clipPath>
<clipPath id="hz">
<path d="m-108.53 155.31h313.89v293.22h-313.89v-293.22z"/>
</clipPath>
<clipPath id="ia">
<path d="m-98.715 164.46h294.27v274.96h-294.27v-274.96z"/>
</clipPath>
<clipPath id="ib">
<path d="m-88.898 173.61h274.66v256.57h-274.66v-256.57z"/>
</clipPath>
<clipPath id="ic">
<path d="m-79.082 182.76h255.05v238.3h-255.05v-238.3z"/>
</clipPath>
<clipPath id="id">
<path d="m-69.265 191.9h235.44v219.97h-235.44v-219.97z"/>
</clipPath>
<clipPath id="ie">
<path d="m-59.449 201.05h215.83v201.64h-215.83v-201.64z"/>
</clipPath>
<clipPath id="if">
<path d="m-49.632 210.2h196.22v183.32h-196.22v-183.32z"/>
</clipPath>
<clipPath id="ig">
<path d="m-39.815 219.35h176.55v164.94h-176.55v-164.94z"/>
</clipPath>
<clipPath id="ih">
<path d="m-82.733 167.8h284.27v466.82h-284.27v-466.82z"/>
</clipPath>
<clipPath id="ii">
<path d="m-82.733 167.8h246.64v466.82h-246.64v-466.82z"/>
</clipPath>
<clipPath id="ij">
<path d="m-80.582 167.97h246.28v466.58h-246.28v-466.58z"/>
</clipPath>
<clipPath id="il">
<path d="m-78.431 168.14h245.92v466.34h-245.92v-466.34z"/>
</clipPath>
<clipPath id="im">
<path d="m-76.279 168.31h245.56v466.11h-245.56v-466.11z"/>
</clipPath>
<clipPath id="in">
<path d="m-74.128 168.48h245.2v465.87h-245.2v-465.87z"/>
</clipPath>
<clipPath id="ip">
<path d="m-71.977 168.65h244.84v465.64h-244.84v-465.64z"/>
</clipPath>
<clipPath id="iq">
<path d="m-69.826 168.82h244.48v465.4h-244.48v-465.4z"/>
</clipPath>
<clipPath id="ir">
<path d="m-67.674 168.99h244.12v465.17h-244.12v-465.17z"/>
</clipPath>
<clipPath id="is">
<path d="m-65.523 169.16h243.76v464.93h-243.76v-464.93z"/>
</clipPath>
<clipPath id="it">
<path d="m-63.372 169.33h243.4v464.7h-243.4v-464.7z"/>
</clipPath>
<clipPath id="iu">
<path d="m-61.22 169.5h243.04v464.46h-243.04v-464.46z"/>
</clipPath>
<clipPath id="iv">
<path d="m-59.07 169.67h242.68v464.22h-242.68v-464.22z"/>
</clipPath>
<clipPath id="iw">
<path d="m-56.918 169.83h242.32v463.99h-242.32v-463.99z"/>
</clipPath>
<clipPath id="ix">
<path d="m-54.767 170h241.96v463.75h-241.96v-463.75z"/>
</clipPath>
<clipPath id="iy">
<path d="m-52.616 170.17h241.61v463.52h-241.61v-463.52z"/>
</clipPath>
<clipPath id="ja">
<path d="m-50.464 170.34h241.25v463.28h-241.25v-463.28z"/>
</clipPath>
<clipPath id="jb">
<path d="m-48.313 170.51h240.89v463.05h-240.89v-463.05z"/>
</clipPath>
<clipPath id="jc">
<path d="m-46.162 170.68h240.53v462.81h-240.53v-462.81z"/>
</clipPath>
<clipPath id="jd">
<path d="m-44.011 170.85h240.17v462.58h-240.17v-462.58z"/>
</clipPath>
<clipPath id="je">
<path d="m-41.859 171.02h239.81v462.34h-239.81v-462.34z"/>
</clipPath>
<clipPath id="jf">
<path d="m-39.708 171.19h239.45v462.1h-239.45v-462.1z"/>
</clipPath>
<clipPath id="jg">
<path d="m-37.557 171.36h239.09v461.87h-239.09v-461.87z"/>
</clipPath>
<filter id="ga" x="-.029835" y="-.12272" width="1.0597" height="1.2454" color-interpolation-filters="sRGB">
<feGaussianBlur stdDeviation="16.292501"/>
</filter>
<radialGradient id="a" cx="-25.856" cy="602.94" r="598.38" gradientTransform="matrix(1.25 0 0 -1.25 617.67 1064.7)" gradientUnits="userSpaceOnUse">
<stop stop-color="#918cbf" offset="0"/>
<stop stop-color="#454c73" offset=".38171"/>
<stop stop-color="#3c3d67" offset=".72043"/>
<stop stop-color="#231f20" offset="1"/>
</radialGradient>
<linearGradient id="gi" x1="764.43" x2="-359.77" y1="451.47" y2="451.48" gradientTransform="matrix(1.25 0 0 -1.25 617.67 1064.7)" gradientUnits="userSpaceOnUse">
<stop stop-color="#dcd1ec" offset="0"/>
<stop stop-color="#91a4da" offset="1"/>
</linearGradient>
<linearGradient id="hj" x1="764.43" x2="-359.77" y1="420.91" y2="420.92" gradientTransform="matrix(1.25 0 0 -1.25 617.67 1064.7)" gradientUnits="userSpaceOnUse">
<stop stop-color="#dcd1ec" offset="0"/>
<stop stop-color="#91a4da" offset="1"/>
</linearGradient>
<linearGradient id="ik" x1="764.43" x2="-359.77" y1="390.35" y2="390.36" gradientTransform="matrix(1.25 0 0 -1.25 617.67 1064.7)" gradientUnits="userSpaceOnUse">
<stop stop-color="#dcd1ec" offset="0"/>
<stop stop-color="#91a4da" offset="1"/>
</linearGradient>
<linearGradient id="jl" x1="764.43" x2="-359.77" y1="359.78" y2="359.79" gradientTransform="matrix(1.25 0 0 -1.25 617.67 1064.7)" gradientUnits="userSpaceOnUse">
<stop stop-color="#dcd1ec" offset="0"/>
<stop stop-color="#91a4da" offset="1"/>
</linearGradient>
<radialGradient id="km" cx="2340.7" cy="1158.7" r="214.09" gradientTransform="matrix(1 0 0 1.0001 -1736.6 -791.47)" gradientUnits="userSpaceOnUse">
<stop stop-color="#fff" offset="0"/>
<stop stop-color="#fff" stop-opacity="0" offset="1"/>
</radialGradient>
</defs>
<g transform="matrix(.48752 0 0 .48752 -2.4376e-6 -.033221)">
<g transform="matrix(1.25 0 0 -1.25 617.67 1064.7)">
<g clip-path="url(#hu)">
<g clip-path="url(#js)">
<path d="m13.668 205.49-89.212-262.87 131.85 244.31-42.638 18.562z" fill-opacity="0"/>
<g clip-path="url(#jt)" opacity=".0909">
<path d="m15.042 204.78-83.008-244.78 122.55 227.57-39.538 17.212z" fill="#fcfbfd" fill-rule="evenodd"/>
</g>
<g clip-path="url(#ju)" opacity=".18179">
<path d="m16.417 204.07-76.805-226.69 113.24 210.83-36.439 15.862z" fill="#f8f6fb" fill-rule="evenodd"/>
</g>
<g clip-path="url(#jv)" opacity=".27269">
<path d="m17.792 203.36-70.601-208.6 103.94 194.09-33.34 14.513z" fill="#f5f2f9" fill-rule="evenodd"/>
</g>
<g clip-path="url(#kg)" opacity=".36359">
<path d="m19.166 202.65-64.396-190.51 94.638 177.35-30.242 13.162z" fill="#f1eef7" fill-rule="evenodd"/>
</g>
<g clip-path="url(#kj)" opacity=".4545">
<path d="m20.54 201.94-58.192-172.43 85.335 160.61-27.143 11.812z" fill="#eeeaf5" fill-rule="evenodd"/>
</g>
<g clip-path="url(#kk)" opacity=".54549">
<path d="m21.914 201.23-51.987-154.33 76.032 143.87-24.045 10.463z" fill="#eae6f3" fill-rule="evenodd"/>
</g>
<g clip-path="url(#kl)" opacity=".6364">
<path d="m23.288 200.52-45.784-136.25 66.73 127.13-20.945 9.1123z" fill="#e7e2f1" fill-rule="evenodd"/>
</g>
<g clip-path="url(#kv)" opacity=".72729">
<path d="m24.662 199.81-39.579-118.15 57.426 110.39-17.847 7.7617z" fill="#e4deef" fill-rule="evenodd"/>
</g>
<g clip-path="url(#la)" opacity=".81819">
<path d="m26.037 199.1-33.375-100.07 48.123 93.654-14.748 6.413z" fill="#e0daed" fill-rule="evenodd"/>
</g>
<g clip-path="url(#lb)" opacity=".90909">
<path d="m27.411 198.39-27.172-81.975l38.821 76.912-11.649 5.0625z" fill="#ddd6eb" fill-rule="evenodd"/>
</g>
<g clip-path="url(#lc)">
<path d="m28.785 197.68-20.967-63.887 29.517 60.175-8.5502 3.7119z" fill="#dad2e9" fill-rule="evenodd"/>
</g>
</g>
<g clip-path="url(#io)">
<path d="m-102.64 428.86-228.55-25.102 228.42-20.629 0.1269 45.73z" fill-opacity="0"/>
<g clip-path="url(#iz)" opacity=".0909">
<path d="m-102.73 427.86-213.24-23.936 213.11-19.505 0.1313 43.441z" fill="#fcfbfd" fill-rule="evenodd"/>
</g>
<g clip-path="url(#jh)" opacity=".18179">
<path d="m-102.82 426.85-197.94-22.772 197.8-18.378 0.1357 41.15z" fill="#f8f6fb" fill-rule="evenodd"/>
</g>
<g clip-path="url(#ji)" opacity=".27269">
<path d="m-102.91 425.85-182.63-21.607 182.49-17.254 0.1406 38.861z" fill="#f5f2f9" fill-rule="evenodd"/>
</g>
<g clip-path="url(#jj)" opacity=".36359">
<path d="m-102.99 424.85-167.33-20.443 167.18-16.129 0.145 36.572z" fill="#f1eef7" fill-rule="evenodd"/>
</g>
<g clip-path="url(#jk)" opacity=".4545">
<path d="m-103.08 423.85-152.02-19.278 151.87-15.005 0.1499 34.283z" fill="#eeeaf5" fill-rule="evenodd"/>
</g>
<g clip-path="url(#jm)" opacity=".54549">
<path d="m-103.17 422.85-136.72-18.114 136.56-13.878 0.1543 31.992z" fill="#eae6f3" fill-rule="evenodd"/>
</g>
<g clip-path="url(#jn)" opacity=".6364">
<path d="m-103.25 421.85-121.41-16.949 121.25-12.754 0.1597 29.703z" fill="#e7e2f1" fill-rule="evenodd"/>
</g>
<g clip-path="url(#jo)" opacity=".72729">
<path d="m-103.34 420.85-106.1-15.785 105.94-11.629 0.1641 27.414z" fill="#e4deef" fill-rule="evenodd"/>
</g>
<g clip-path="url(#jp)" opacity=".81819">
<path d="m-103.43 419.85-90.798-14.619 90.629-10.505 0.1689 25.124z" fill="#e0daed" fill-rule="evenodd"/>
</g>
<g clip-path="url(#jq)" opacity=".90909">
<path d="m-103.52 418.85-75.493-13.456 75.32-9.3779 0.1733 22.834z" fill="#ddd6eb" fill-rule="evenodd"/>
</g>
<g clip-path="url(#jr)">
<path d="m-103.6 417.85-60.188-12.29 60.009-8.2539 0.1782 20.544z" fill="#dad2e9" fill-rule="evenodd"/>
</g>
</g>
<g clip-path="url(#jw)">
<path d="m-74.326 518.88-437.89 146.56 419.41-188.83 18.478 42.272z" fill-opacity="0"/>
<g clip-path="url(#jx)" opacity=".0909">
<path d="m-75.004 517.53-406.3 135.75 389.16-174.84 17.134 39.087z" fill="#fcfbfd" fill-rule="evenodd"/>
</g>
<g clip-path="url(#jy)" opacity=".18179">
<path d="m-75.682 516.18-374.7 124.94 358.91-160.84 15.792 35.903z" fill="#f8f6fb" fill-rule="evenodd"/>
</g>
<g clip-path="url(#jz)" opacity=".27269">
<path d="m-76.361 514.83-343.11 114.13 328.67-146.85 14.447 32.719z" fill="#f5f2f9" fill-rule="evenodd"/>
</g>
<g clip-path="url(#ka)" opacity=".36359">
<path d="m-77.04 513.47-311.52 103.32 298.42-132.86 13.104 29.534z" fill="#f1eef7" fill-rule="evenodd"/>
</g>
<g clip-path="url(#kb)" opacity=".4545">
<path d="m-77.717 512.12-279.93 92.516 268.17-118.86 11.76 26.349z" fill="#eeeaf5" fill-rule="evenodd"/>
</g>
<g clip-path="url(#kc)" opacity=".54549">
<path d="m-78.396 510.77-248.34 81.705 237.92-104.87 10.417 23.165z" fill="#eae6f3" fill-rule="evenodd"/>
</g>
<g clip-path="url(#kd)" opacity=".6364">
<path d="m-79.074 509.42-216.75 70.896 207.68-90.876 9.0728 19.98z" fill="#e7e2f1" fill-rule="evenodd"/>
</g>
<g clip-path="url(#ke)" opacity=".72729">
<path d="m-79.753 508.06-185.16 60.088 177.43-76.883 7.7295 16.795z" fill="#e4deef" fill-rule="evenodd"/>
</g>
<g clip-path="url(#kf)" opacity=".81819">
<path d="m-80.432 506.71-153.56 49.28 147.18-62.891 6.3853 13.611z" fill="#e0daed" fill-rule="evenodd"/>
</g>
<g clip-path="url(#kh)" opacity=".90909">
<path d="m-81.109 505.36-121.97 38.47 116.93-48.896 5.0429 10.427z" fill="#ddd6eb" fill-rule="evenodd"/>
</g>
<g clip-path="url(#ki)">
<path d="m-81.788 504.01-90.382 27.661 86.684-34.903 3.6982 7.2421z" fill="#dad2e9" fill-rule="evenodd"/>
</g>
</g>
<g clip-path="url(#kn)">
<path d="m-22.829 581.6-162.35 121.01 131.21-153.97 31.134 32.962z" fill-opacity="0"/>
<g clip-path="url(#ko)" opacity=".0909">
<path d="m-23.923 580.57-151.96 113.25 123.12-143.79 28.845 30.535z" fill="#fcfbfd" fill-rule="evenodd"/>
</g>
<g clip-path="url(#kp)" opacity=".18179">
<path d="m-25.017 579.54-141.58 105.5 115.02-133.61 26.555 28.107z" fill="#f8f6fb" fill-rule="evenodd"/>
</g>
<g clip-path="url(#kq)" opacity=".27269">
<path d="m-26.11 578.51-131.19 97.75 106.93-123.43 24.266 25.68z" fill="#f5f2f9" fill-rule="evenodd"/>
</g>
<g clip-path="url(#kr)" opacity=".36359">
<path d="m-27.204 577.48-120.81 89.999 98.831-113.25 21.976 23.252z" fill="#f1eef7" fill-rule="evenodd"/>
</g>
<g clip-path="url(#ks)" opacity=".4545">
<path d="m-28.298 576.44-110.42 82.246 90.736-103.07 19.687 20.825z" fill="#eeeaf5" fill-rule="evenodd"/>
</g>
<g clip-path="url(#kt)" opacity=".54549">
<path d="m-29.392 575.41-100.04 74.495 82.641-92.891 17.396 18.396z" fill="#eae6f3" fill-rule="evenodd"/>
</g>
<g clip-path="url(#ku)" opacity=".6364">
<path d="m-30.486 574.38-89.652 66.742 74.545-82.71 15.107 15.968z" fill="#e7e2f1" fill-rule="evenodd"/>
</g>
<g clip-path="url(#kw)" opacity=".72729">
<path d="m-31.58 573.35-79.267 58.991 66.45-72.531 12.817 13.54z" fill="#e4deef" fill-rule="evenodd"/>
</g>
<g clip-path="url(#kx)" opacity=".81819">
<path d="m-32.673 572.32-68.883 51.237 58.354-62.35 10.528 11.113z" fill="#e0daed" fill-rule="evenodd"/>
</g>
<g clip-path="url(#ky)" opacity=".90909">
<path d="m-33.768 571.29-58.497 43.486 50.259-52.171 8.2378 8.685z" fill="#ddd6eb" fill-rule="evenodd"/>
</g>
<g clip-path="url(#kz)">
<path d="m-34.861 570.25-48.113 35.732 42.164-41.99 5.9488 6.2578z" fill="#dad2e9" fill-rule="evenodd"/>
</g>
</g>
<g clip-path="url(#ld)">
<path d="m-48.544 256.52-275.99-317.62 309.14 285.92-33.146 31.697z" fill-opacity="0"/>
<g clip-path="url(#le)" opacity=".0625">
<path d="m-47.726 255.67-264.73-304.22 296.17 274.14-31.435 30.079z" fill="#fdfcfe" fill-rule="evenodd"/>
</g>
<g clip-path="url(#lf)" opacity=".125">
<path d="m-46.907 254.82-253.47-290.83 283.2 262.37-29.723 28.458z" fill="#faf9fc" fill-rule="evenodd"/>
</g>
<g clip-path="url(#lg)" opacity=".1875">
<path d="m-46.088 253.97-242.22-277.44 270.23 250.6-28.011 26.841z" fill="#f8f6fb" fill-rule="evenodd"/>
</g>
<g clip-path="url(#lh)" opacity=".25">
<path d="m-45.269 253.12-230.96-264.04 257.26 238.82-26.3 25.223z" fill="#f5f3f9" fill-rule="evenodd"/>
</g>
<g clip-path="url(#li)" opacity=".3125">
<path d="m-44.45 252.27-219.7-250.65 244.29 227.05-24.59 23.601z" fill="#f3f0f8" fill-rule="evenodd"/>
</g>
<g clip-path="url(#lj)" opacity=".375">
<path d="m-43.631 251.42-208.44-237.26 231.32 215.28-22.878 21.982z" fill="#f1eef6" fill-rule="evenodd"/>
</g>
<g clip-path="url(#lk)" opacity=".4375">
<path d="m-42.812 250.57-197.18-223.87 218.35 203.5l-21.167 20.364z" fill="#eeebf5" fill-rule="evenodd"/>
</g>
<g clip-path="url(#ll)" opacity=".5">
<path d="m-41.993 249.72-185.92-210.47 205.38 191.73-19.455 18.744z" fill="#ece8f4" fill-rule="evenodd"/>
</g>
<g clip-path="url(#lm)" opacity=".5625">
<path d="m-41.175 248.87-174.66-197.08l192.4 179.95-17.744 17.126z" fill="#eae5f2" fill-rule="evenodd"/>
</g>
<g clip-path="url(#fh)" opacity=".625">
<path d="m-40.356 248.02-163.4-183.69 179.43 168.18-16.033 15.508z" fill="#e8e2f1" fill-rule="evenodd"/>
</g>
<g clip-path="url(#fi)" opacity=".6875">
<path d="m-39.537 247.17-152.14-170.3 166.46 156.41-14.321 13.891z" fill="#e5e0ef" fill-rule="evenodd"/>
</g>
<g clip-path="url(#fj)" opacity=".75">
<path d="m-38.718 246.32-140.88-156.9 153.49 144.63-12.61 12.268z" fill="#e3ddee" fill-rule="evenodd"/>
</g>
<g clip-path="url(#fk)" opacity=".8125">
<path d="m-37.899 245.47-129.62-143.51 140.52 132.86-10.899 10.649z" fill="#e1daed" fill-rule="evenodd"/>
</g>
<g clip-path="url(#fl)" opacity=".875">
<path d="m-37.081 244.62-118.37-130.12 127.55 121.09-9.1885 9.0313z" fill="#ded8eb" fill-rule="evenodd"/>
</g>
<g clip-path="url(#fm)" opacity=".9375">
<path d="m-36.261 243.77-107.11-116.72 114.58 109.31-7.4765 7.4121z" fill="#dcd5ea" fill-rule="evenodd"/>
</g>
<g clip-path="url(#fn)">
<path d="m-35.443 242.92-95.847-103.33 101.61 97.537-5.7657 5.7939z" fill="#dad2e9" fill-rule="evenodd"/>
</g>
</g>
<g clip-path="url(#fo)">
<path d="m-93.549 337.98-435.39-200.25 458.68 148.37-23.292 51.876z" fill-opacity="0"/>
<g clip-path="url(#fp)" opacity=".0909">
<path d="m-92.812 335.98-407.41-187.1 428.87 139.29-21.467 47.815z" fill="#fcfbfd" fill-rule="evenodd"/>
</g>
<g clip-path="url(#fq)" opacity=".18179">
<path d="m-92.075 333.98-379.43-173.95 399.07 130.2-19.642 43.755z" fill="#f8f6fb" fill-rule="evenodd"/>
</g>
<g clip-path="url(#fr)" opacity=".27269">
<path d="m-91.338 331.98-351.45-160.8 369.26 121.1-17.816 39.695z" fill="#f5f2f9" fill-rule="evenodd"/>
</g>
<g clip-path="url(#fs)" opacity=".36359">
<path d="m-90.602 329.98-323.47-147.65 339.46 112.02-15.991 35.634z" fill="#f1eef7" fill-rule="evenodd"/>
</g>
<g clip-path="url(#ft)" opacity=".4545">
<path d="m-89.865 327.98-295.49-134.5 309.65 102.93-14.166 31.575z" fill="#eeeaf5" fill-rule="evenodd"/>
</g>
<g clip-path="url(#fu)" opacity=".54549">
<path d="m-89.129 325.98-267.5-121.35 279.85 93.838-12.342 27.514z" fill="#eae6f3" fill-rule="evenodd"/>
</g>
<g clip-path="url(#fv)" opacity=".6364">
<path d="m-88.392 323.98-239.52-108.2 250.04 84.748-10.517 23.455z" fill="#e7e2f1" fill-rule="evenodd"/>
</g>
<g clip-path="url(#fw)" opacity=".72729">
<path d="m-87.655 321.98-211.54-95.053 220.24 75.659-8.6914 19.394z" fill="#e4deef" fill-rule="evenodd"/>
</g>
<g clip-path="url(#fx)" opacity=".81819">
<path d="m-86.918 319.98-183.56-81.901 190.43 66.568-6.8662 15.333z" fill="#e0daed" fill-rule="evenodd"/>
</g>
<g clip-path="url(#fy)" opacity=".90909">
<path d="m-86.181 317.98-155.58-68.753 160.62 57.48-5.0411 11.272z" fill="#ddd6eb" fill-rule="evenodd"/>
</g>
<g clip-path="url(#fz)">
<path d="m-85.444 315.98-127.6-55.604 130.82 48.391-3.2158 7.2129z" fill="#dad2e9" fill-rule="evenodd"/>
</g>
</g>
</g>
</g>
<g transform="matrix(1.25 0 0 -1.25 617.67 1064.7)">
<g clip-path="url(#gb)">
<g clip-path="url(#gc)" opacity="0">
<path d="m766.26 557.56c-37.463 19.716-63.604 45.337-65.066 45.352-120.29 124.23-245.43 242.13-463.25 248.88-14.843 0.4639-29.511 0.3936-44.122-0.1128-197.56-7.1157-427.08-137.92-477.24-272.36-67.964-110.56-210.71-118.2-210.71-178.92 0-98.241 175.42-97.72 222.64-174.92 77.78-147.02 238.23-273.64 436.81-293.13 14.498-1.4502 29.152-2.378 44.002-2.8282 232.09-7.2002 343.9 143.25 523.43 265.23 136.82 72.378 409.59 85.034 414.08 183.38 4.6787 101.59-305.88 140.13-380.57 179.44z" fill="#fff" fill-rule="evenodd"/>
</g>
<g clip-path="url(#gd)" opacity=".03229">
<path d="m754.36 554.39c-36.66 19.293-62.241 44.365-63.674 44.379-117.71 121.57-240.17 236.94-453.33 243.55-14.525 0.4536-28.878 0.3843-43.176-0.1109-193.7-6.976-418.59-134.88-468.92-266-67.131-107.84-205.95-116.27-205.95-175.7 0-96.137 171.63-97.117 218.09-172.42 76.971-143.47 234.57-266.45 428.89-285.52 14.188-1.418 28.526-2.3272 43.059-2.7676 227.11-7.044 336.53 140.18 512.21 259.55 133.89 70.828 400.81 83.212 405.21 179.45 4.5791 99.409-299.33 137.13-372.41 175.59z" fill="#fdfdfe" fill-rule="evenodd"/>
</g>
<g clip-path="url(#ge)" opacity=".0645">
<path d="m742.45 551.23c-35.857 18.871-60.877 43.394-62.277 43.407-115.13 118.9-234.92 231.75-443.4 238.21-14.207 0.4443-28.246 0.3764-42.23-0.108-189.83-6.8374-410.11-131.83-460.6-259.64-66.299-105.13-201.2-114.35-201.2-172.47 0-94.032 167.84-96.515 213.54-169.93 76.161-139.92 230.91-259.24 420.97-277.9 13.877-1.3877 27.902-2.2764 42.116-2.7051 222.14-6.8926 329.16 137.11 501 253.87 130.95 69.275 392.03 81.39 396.34 175.51 4.4775 97.233-292.77 134.13-364.26 171.75z" fill="#fbfafd" fill-rule="evenodd"/>
</g>
<g clip-path="url(#gf)" opacity=".09679">
<path d="m730.55 548.06c-35.055 18.449-59.517 42.423-60.885 42.435-112.55 116.24-229.65 226.56-433.47 232.88-13.889 0.4341-27.613 0.3672-41.286-0.106-185.96-6.6977-401.62-128.79-452.28-253.27-65.465-102.41-196.44-112.43-196.44-169.25 0-91.927 164.05-95.911 208.99-167.43 75.352-136.37 227.25-252.04 413.05-270.28 13.568-1.3545 27.278-2.2217 41.174-2.6436 217.17-6.7373 321.79 134.04 489.78 248.18 128.02 67.726 383.26 79.569 387.46 171.58 4.377 95.057-286.22 131.12-356.1 167.9z" fill="#f9f8fb" fill-rule="evenodd"/>
</g>
<g clip-path="url(#gg)" opacity=".129">
<path d="m718.65 544.9c-34.253 18.026-58.153 41.451-59.49 41.463-109.97 113.58-224.4 221.38-423.55 227.55-13.57 0.4233-26.98 0.3588-40.339-0.104-182.09-6.5591-393.14-125.74-443.96-246.91-64.634-99.692-191.68-110.51-191.68-166.03 0-89.822 160.26-95.309 204.45-164.93 74.542-132.81 223.58-244.85 405.14-262.67 13.256-1.3233 26.653-2.1709 40.231-2.584 212.19-6.583 314.42 130.97 478.56 242.5 125.09 66.172 374.48 77.746 378.59 167.66 4.2773 92.878-279.67 128.12-347.95 164.06z" fill="#f7f6fa" fill-rule="evenodd"/>
</g>
<g clip-path="url(#gh)" opacity=".16129">
<path d="m706.75 541.74c-33.448 17.604-56.788 40.48-58.094 40.491-107.4 110.92-219.14 216.19-413.62 222.21-13.252 0.4141-26.347 0.3506-39.394-0.1015-178.23-6.419-384.65-122.69-435.65-240.54-63.802-96.975-186.92-108.59-186.92-162.81 0-87.718 156.47-94.705 199.9-162.43 73.733-129.26 219.92-237.65 397.22-255.05 12.946-1.291 26.028-2.1201 39.288-2.5235 207.22-6.4277 307.05 127.91 467.35 236.82 122.16 64.622 365.7 75.925 369.72 163.73 4.1758 90.702-273.11 125.12-339.79 160.21z" fill="#f5f3f9" fill-rule="evenodd"/>
</g>
<g clip-path="url(#gj)" opacity=".1935">
<path d="m694.85 538.57c-32.646 17.182-55.425 39.507-56.699 39.518-104.82 108.26-213.88 211-403.69 216.88-12.934 0.4038-25.715 0.3423-38.448-0.0996-174.36-6.2793-376.17-119.64-427.33-234.18-62.968-94.259-182.17-106.67-182.17-159.58 0-85.612 152.68-94.104 195.35-159.94 72.923-125.71 216.26-230.45 389.3-247.43 12.635-1.2618 25.404-2.0704 38.346-2.462 202.24-6.2753 299.68 124.84 456.13 231.13 119.23 63.071 356.93 74.102 360.85 159.8 4.0761 88.524-266.56 122.11-331.64 156.37z" fill="#f3f1f8" fill-rule="evenodd"/>
</g>
<g clip-path="url(#gk)" opacity=".2258">
<path d="m682.95 535.41c-31.843 16.76-54.062 38.536-55.305 38.546-102.24 105.6-208.62 205.81-393.77 211.55-12.616 0.3936-25.082 0.3325-37.503-0.0966-170.49-6.1417-367.68-116.6-419.01-227.82-62.136-91.542-177.41-104.75-177.41-156.36 0-83.506 148.89-93.5 190.8-157.44 72.115-122.15 212.59-223.25 381.38-239.82 12.325-1.2295 24.779-2.0196 37.403-2.4014 197.27-6.1201 292.31 121.77 444.91 225.45 116.3 61.519 348.15 72.279 351.97 155.87 3.9756 86.348-260 119.11-323.48 152.52z" fill="#f1eff7" fill-rule="evenodd"/>
</g>
<g clip-path="url(#gl)" opacity=".25809">
<path d="m671.05 532.24c-31.041 16.337-52.7 37.564-53.912 37.574-99.663 102.93-203.36 200.62-383.84 206.22-12.298 0.3843-24.45 0.3252-36.557-0.0937-166.62-6.002-359.2-113.55-410.69-221.45-61.303-88.825-172.65-102.83-172.65-153.14 0-81.402 145.1-92.898 186.26-154.94 71.305-118.6 208.93-216.05 373.46-232.2 12.014-1.2002 24.154-1.9687 36.46-2.3427 192.3-5.9659 284.94 118.7 433.7 219.77 113.36 59.968 339.37 70.457 343.1 151.94 3.8759 84.172-253.45 116.11-315.33 148.68z" fill="#efedf5" fill-rule="evenodd"/>
</g>
<g clip-path="url(#gm)" opacity=".2903">
<path d="m659.15 529.08c-30.238 15.915-51.338 36.593-52.518 36.603-97.087 100.27-198.1 195.43-373.91 200.88-11.98 0.374-23.817 0.3159-35.612-0.0918-162.76-5.8623-350.71-110.51-402.37-215.09-60.47-86.108-167.89-100.91-167.89-149.92 0-79.297 141.31-92.295 181.71-152.44 70.496-115.05 205.27-208.85 365.55-224.58 11.704-1.166 23.529-1.9141 35.518-2.2803 187.32-5.8105 277.57 115.63 422.48 214.08 110.43 58.418 330.59 68.635 334.23 148.01 3.7744 81.995-246.89 113.11-307.17 144.83z" fill="#edeaf4" fill-rule="evenodd"/>
</g>
<g clip-path="url(#gn)" opacity=".32259">
<path d="m647.25 525.92c-29.436 15.492-49.974 35.621-51.123 35.631-94.508 97.608-192.84 190.25-363.98 195.55-11.661 0.3638-23.184 0.3076-34.665-0.0903-158.89-5.7232-342.23-107.46-394.05-208.73-59.638-83.392-163.14-98.989-163.14-146.7 0-77.193 137.52-91.692 177.16-149.94 69.686-111.5 201.61-201.65 357.63-216.97 11.393-1.1358 22.905-1.8633 34.575-2.2178 182.35-5.6592 270.2 112.56 411.26 208.4 107.5 56.865 321.82 66.814 325.35 144.08 3.6758 79.818-240.34 110.1-299.02 140.99z" fill="#ece8f3" fill-rule="evenodd"/>
</g>
<g clip-path="url(#go)" opacity=".3548">
<path d="m635.35 522.75c-28.633 15.07-48.611 34.649-49.728 34.659-91.932 94.947-187.58 185.06-354.06 190.22-11.343 0.3545-22.552 0.2988-33.72-0.0874-155.02-5.5835-333.74-104.41-385.73-202.36-58.806-80.675-158.38-97.068-158.38-143.47 0-75.088 133.74-91.089 172.61-147.44 68.878-107.94 197.94-194.45 349.71-209.35 11.082-1.1045 22.279-1.8135 33.632-2.1583 177.38-5.5029 262.83 109.49 400.05 202.71 104.57 55.314 313.04 64.991 316.48 140.15 3.5742 77.641-233.78 107.1-290.86 137.14z" fill="#eae6f2" fill-rule="evenodd"/>
</g>
<g clip-path="url(#gp)" opacity=".38708">
<path d="m623.45 519.59c-27.831 14.648-47.248 33.678-48.336 33.686-89.351 92.285-182.32 179.87-344.13 184.88-11.025 0.3443-21.92 0.2906-32.774-0.0854-151.15-5.4439-325.26-101.37-377.42-196-57.973-77.958-153.62-95.147-153.62-140.25 0-72.983 129.95-90.486 168.07-144.94 68.068-104.39 194.28-187.25 341.79-201.74 10.773-1.0742 21.656-1.7626 32.69-2.0976 172.4-5.3496 255.47 106.42 388.83 197.03 101.64 53.762 304.26 63.169 307.61 136.22 3.4746 75.462-227.23 104.1-282.71 133.3z" fill="#e8e4f1" fill-rule="evenodd"/>
</g>
<g clip-path="url(#gq)" opacity=".41939">
<path d="m611.55 516.42c-27.028 14.226-45.887 32.706-46.94 32.714-86.775 89.623-177.06 174.68-334.2 179.55-10.707 0.3335-21.287 0.2812-31.829-0.0835-147.29-5.3052-316.77-98.319-369.1-189.64-57.14-75.241-148.86-93.227-148.86-137.03 0-70.878 126.16-89.883 163.52-142.45 67.259-100.84 190.62-180.05 333.87-194.12 10.461-1.0419 21.031-1.7119 31.748-2.038 167.43-5.1934 248.1 103.35 377.61 191.35 98.704 52.212 295.49 61.347 298.73 132.29 3.3731 73.285-220.67 101.09-274.55 129.45z" fill="#e6e2ef" fill-rule="evenodd"/>
</g>
<g clip-path="url(#gr)" opacity=".4516">
<path d="m599.65 513.26c-26.227 13.803-44.524 31.734-45.548 31.742-84.197 86.961-171.8 169.49-324.28 174.22-10.388 0.3242-20.654 0.2739-30.883-0.0806-143.42-5.1655-308.29-95.272-360.78-183.27-56.307-72.525-144.1-91.306-144.1-133.81 0-68.772 122.37-89.28 158.97-139.95 66.45-97.284 186.96-172.85 325.96-186.5 10.151-1.0108 20.406-1.6592 30.804-1.9746 162.46-5.042 240.73 100.28 366.4 185.66 95.772 50.661 286.71 59.524 289.86 128.36 3.2724 71.109-214.12 98.089-266.4 125.61z" fill="#e4dfee" fill-rule="evenodd"/>
</g>
<g clip-path="url(#gs)" opacity=".48389">
<path d="m587.74 510.1c-25.421 13.381-43.158 30.762-44.15 30.77-81.618 84.3-166.54 164.31-314.35 168.89-10.071 0.314-20.022 0.2642-29.938-0.0786-139.55-5.0259-299.8-92.226-352.46-176.91-55.475-69.808-139.35-89.386-139.35-130.59 0-66.668 118.58-88.677 154.42-137.45 65.641-93.732 183.29-165.66 318.04-178.89 9.8403-0.9785 19.781-1.6084 29.861-1.9141 157.48-4.8867 233.36 97.207 355.18 179.98 92.842 49.105 277.93 57.699 280.99 124.43 3.1729 68.932-207.57 95.086-258.24 121.76z" fill="#e2dded" fill-rule="evenodd"/>
</g>
<g clip-path="url(#gt)" opacity=".5161">
<path d="m575.84 506.93c-24.618 12.958-41.796 29.791-42.758 29.797-79.04 81.638-161.28 159.12-304.42 163.55-9.751 0.3037-19.388 0.2558-28.991-0.0767-135.69-4.8872-291.32-89.18-344.14-170.55-54.641-67.09-134.59-87.464-134.59-127.36 0-64.562 114.79-88.075 149.88-134.95 64.831-90.178 179.63-158.46 310.12-171.27 9.5307-0.9492 19.158-1.5566 28.92-1.8544 152.51-4.7325 225.99 94.14 343.96 174.3 89.91 47.556 269.16 55.879 272.12 120.5 3.0713 66.755-201.01 92.084-250.09 117.92z" fill="#e0dbec" fill-rule="evenodd"/>
</g>
<g clip-path="url(#gu)" opacity=".54839">
<path d="m563.94 503.77c-23.816 12.536-40.433 28.819-41.362 28.825-76.463 78.976-156.02 153.93-294.5 158.22-9.4331 0.2945-18.757 0.2476-28.046-0.0732-131.82-4.7486-282.83-86.134-335.82-164.18-53.81-64.374-129.83-85.544-129.83-124.14 0-62.458 111-87.473 145.33-132.46 64.022-86.625 175.97-151.26 302.2-163.65 9.2192-0.917 18.532-1.5058 27.977-1.7949 147.54-4.5762 218.62 91.071 332.75 168.62 86.978 46.003 260.38 54.057 263.24 116.57 2.9727 64.579-194.46 89.081-241.93 114.07z" fill="#ded9eb" fill-rule="evenodd"/>
</g>
<g clip-path="url(#gv)" opacity=".5806">
<path d="m552.04 500.6c-23.013 12.113-39.071 27.848-39.97 27.853-73.885 76.314-150.76 148.74-284.57 152.89-9.1152 0.2842-18.124 0.2392-27.1-0.0713-127.95-4.6089-274.35-83.087-327.5-157.82-52.978-61.657-125.07-83.623-125.07-120.92 0-60.354 107.21-86.87 140.78-129.96 63.213-83.074 172.31-144.06 294.28-156.04 8.9092-0.8867 17.908-1.455 27.034-1.7324 142.56-4.4248 211.25 88 321.53 162.93 84.047 44.452 251.6 52.233 254.37 112.64 2.8711 62.401-187.9 86.078-233.78 110.23z" fill="#ddd7ea" fill-rule="evenodd"/>
</g>
<g clip-path="url(#gw)" opacity=".6129">
<path d="m540.14 497.44c-22.209 11.691-37.708 26.876-38.574 26.881-71.308 73.652-145.51 143.55-274.64 147.55-8.7969 0.2749-17.491 0.2295-26.156-0.0693-124.08-4.4702-265.86-80.04-319.18-151.46-52.145-58.94-120.32-81.703-120.32-117.7 0-58.249 103.42-86.267 136.23-127.46 62.404-79.518 168.64-136.86 286.37-148.42 8.5977-0.8536 17.283-1.4024 26.091-1.6709 137.59-4.2696 203.88 84.93 310.31 157.25 81.114 42.901 242.83 50.411 245.49 108.71 2.7715 60.226-181.35 83.075-225.62 106.38z" fill="#dbd5e8" fill-rule="evenodd"/>
</g>
<g clip-path="url(#gx)" opacity=".64519">
<path d="m528.24 494.27c-21.406 11.269-36.345 25.904-37.181 25.909-68.728 70.99-140.25 138.37-264.71 142.22-8.4785 0.2651-16.859 0.2222-25.209-0.0664-120.22-4.3306-257.38-76.994-310.87-145.09-51.311-56.224-115.56-79.782-115.56-114.48 0-56.144 99.633-85.663 131.68-124.96 61.594-75.965 164.98-129.66 278.45-140.8 8.2881-0.8233 16.659-1.3516 25.149-1.6104 132.62-4.1162 196.51 81.86 299.09 151.56 78.183 41.35 234.05 48.589 236.62 104.78 2.6699 58.047-174.79 80.07-217.47 102.54z" fill="#d9d3e7" fill-rule="evenodd"/>
</g>
<g clip-path="url(#gy)" opacity=".6774">
<path d="m516.34 491.11c-20.604 10.847-34.982 24.932-35.786 24.937-66.152 68.329-134.99 133.18-254.79 136.89-8.1606 0.2549-16.226 0.2129-24.264-0.0644-116.35-4.1919-248.89-73.947-302.55-138.73-50.478-53.507-110.8-77.861-110.8-111.25 0-54.039 95.843-85.06 127.14-122.46 60.785-72.415 161.32-122.46 270.53-133.19 7.978-0.7911 16.034-1.3008 24.206-1.5498 127.64-3.96 189.14 78.791 287.88 145.88 75.25 39.799 225.27 46.767 227.75 100.85 2.5713 55.871-168.24 77.068-209.31 98.693z" fill="#d7d1e6" fill-rule="evenodd"/>
</g>
<g clip-path="url(#gz)" opacity=".70969">
<path d="m504.44 487.95c-19.802 10.424-33.619 23.961-34.394 23.964-63.573 65.668-129.73 127.99-244.86 131.56-7.8423 0.2446-15.593 0.2046-23.317-0.063-112.48-4.0517-240.41-70.9-294.23-132.37-49.646-50.79-106.04-75.94-106.04-108.03 0-51.934 92.054-84.458 122.59-119.96 59.976-68.861 157.66-115.26 262.61-125.57 7.667-0.7617 15.41-1.249 23.263-1.4892 122.67-3.8076 181.77 75.721 276.66 140.2 72.318 38.246 216.49 44.945 218.87 96.918 2.4697 53.694-161.68 74.066-201.16 94.848z" fill="#d5cfe5" fill-rule="evenodd"/>
</g>
<g clip-path="url(#ha)" opacity=".7419">
<path d="m492.54 484.78c-18.999 10.002-32.255 22.989-32.998 22.992-60.995 63.005-124.47 122.8-234.93 126.22-7.5235 0.2344-14.96 0.1949-22.372-0.061-108.61-3.9121-231.92-67.854-285.91-126-48.814-48.073-101.29-74.019-101.29-104.81 0-49.829 88.265-83.855 118.04-117.47 59.166-65.309 153.99-108.06 254.69-117.95 7.3564-0.7295 14.784-1.1982 22.321-1.4287 117.69-3.6523 174.4 72.65 265.45 134.51 69.386 36.695 207.72 43.123 210 92.988 2.3682 51.517-155.13 71.063-193 91.003z" fill="#d4cde4" fill-rule="evenodd"/>
</g>
<g clip-path="url(#hb)" opacity=".77419">
<path d="m480.64 481.62c-18.196 9.5795-30.894 22.017-31.604 22.021-58.418 60.342-119.21 117.61-225.01 120.89-7.2056 0.2251-14.328 0.1875-21.427-0.0581-104.75-3.7734-223.44-64.807-277.59-119.64-47.981-45.356-96.529-72.099-96.529-101.59 0-47.724 84.477-83.252 113.49-114.97 58.357-61.755 150.33-100.86 246.78-110.34 7.0454-0.6983 14.16-1.1465 21.378-1.3672 112.72-3.4991 167.03 69.581 254.23 128.83 66.453 35.146 198.94 41.301 201.13 89.059 2.2695 49.341-148.57 68.061-184.85 87.159z" fill="#d2cbe3" fill-rule="evenodd"/>
</g>
<g clip-path="url(#hc)" opacity=".80649">
<path d="m468.74 478.45c-17.394 9.1577-29.531 21.046-30.21 21.049-55.84 57.681-113.95 112.42-215.08 115.56-6.8877 0.2148-13.696 0.1782-20.482-0.0562-100.88-3.6338-214.95-61.761-269.27-113.27-47.149-42.639-91.771-70.178-91.771-98.364 0-45.619 80.686-82.648 108.95-112.47 57.548-58.202 146.67-93.665 238.86-102.72 6.7358-0.6661 13.536-1.0948 20.436-1.3067 107.75-3.3437 159.66 66.512 243.01 123.15 63.522 33.593 190.16 39.478 192.25 85.129 2.168 47.164-142.02 65.058-176.69 83.314z" fill="#d0c9e2" fill-rule="evenodd"/>
</g>
<g clip-path="url(#hd)" opacity=".8387">
<path d="m456.83 475.29c-16.59 8.7349-28.166 20.074-28.815 20.077-53.261 55.018-108.69 107.24-205.15 110.22-6.5694 0.2046-13.064 0.1699-19.536-0.0532-97.012-3.4951-206.46-58.715-260.96-106.91-46.316-39.923-87.013-68.258-87.013-95.142 0-43.514 76.897-82.047 104.4-109.97 56.739-54.649 143.01-86.464 230.94-95.104 6.4244-0.6358 12.911-1.044 19.493-1.2452 102.77-3.1904 152.29 63.443 231.79 117.46 60.593 32.042 181.39 37.655 183.38 81.199 2.0683 44.987-135.46 62.055-168.54 79.469z" fill="#cec7e1" fill-rule="evenodd"/>
</g>
<g clip-path="url(#he)" opacity=".87099">
<path d="m444.93 472.13c-15.788 8.313-26.804 19.102-27.421 19.104-50.685 52.356-103.43 102.05-195.22 104.89-6.251 0.1953-12.43 0.1616-18.59-0.0503-93.144-3.3564-197.98-55.668-252.64-100.55-45.483-37.206-82.255-66.338-82.255-91.92 0-41.41 73.108-81.445 99.851-107.48 55.93-51.096 139.34-79.266 223.02-87.487 6.1143-0.6045 12.286-0.9941 18.55-1.1855 97.801-3.0352 144.92 60.373 220.58 111.78 57.66 30.491 172.61 35.833 174.51 77.269 1.9668 42.81-128.91 59.052-160.38 75.624z" fill="#cdc5df" fill-rule="evenodd"/>
</g>
<g clip-path="url(#hf)" opacity=".9032">
<path d="m433.03 468.96c-14.984 7.8901-25.439 18.13-26.026 18.132-48.106 49.695-98.17 96.86-185.3 99.558-5.9326 0.1851-11.798 0.1529-17.644-0.0488-89.276-3.2163-189.49-52.621-244.32-94.185-44.651-34.489-77.499-64.417-77.499-88.697 0-39.305 69.32-80.842 95.304-104.98 55.12-47.544 135.68-72.067 215.1-79.871 5.8032-0.5732 11.662-0.9414 17.607-1.125 92.828-2.8818 137.55 57.304 209.36 106.09 54.728 28.939 163.83 34.013 165.64 73.341 1.8681 40.631-122.36 56.047-152.23 71.778z" fill="#cbc3de" fill-rule="evenodd"/>
</g>
<g clip-path="url(#hg)" opacity=".93549">
<path d="m421.13 465.8c-14.183 7.4683-24.079 17.159-24.632 17.16-45.528 47.033-92.911 91.671-175.37 94.225-5.6147 0.1743-11.164 0.1435-16.699-0.0469-85.408-3.0766-181.01-49.575-236-87.821-43.819-31.772-72.741-62.496-72.741-85.476 0-37.199 65.529-80.237 90.755-102.48 54.312-43.992 132.02-64.87 207.18-72.258 5.4937-0.5391 11.037-0.8887 16.665-1.0625 87.854-2.7266 130.18 54.234 198.15 100.41 51.795 27.388 155.05 32.189 156.76 69.41 1.7666 38.456-115.8 53.045-144.07 67.933z" fill="#c9c1dd" fill-rule="evenodd"/>
</g>
<g clip-path="url(#hh)" opacity=".9677">
<path d="m409.23 462.63c-13.38 7.0454-22.716 16.187-23.239 16.188-42.948 44.371-87.65 86.483-165.44 88.892-5.2964 0.165-10.533 0.1362-15.753-0.044-81.542-2.938-172.52-46.528-227.68-81.458-42.985-29.056-67.983-60.576-67.983-82.253 0-35.095 61.741-79.635 86.208-99.98 53.502-40.438 128.36-57.668 199.27-64.639 5.1826-0.5097 10.413-0.8378 15.723-1.0009 82.88-2.5752 122.81 51.163 186.93 94.726 48.864 25.836 146.28 30.367 147.89 65.48 1.667 36.278-109.25 50.042-135.92 64.088z" fill="#c7bfdc" fill-rule="evenodd"/>
</g>
<g clip-path="url(#hi)">
<path d="m397.33 459.47c-12.578 6.6236-21.353 15.216-21.844 15.216-40.373 41.71-82.393 81.295-155.52 83.559-4.978 0.1548-9.8999 0.127-14.808-0.042-77.674-2.7983-164.04-43.481-219.36-75.094-42.153-26.339-63.225-58.655-63.225-79.031 0-32.989 57.951-79.032 81.661-97.482 52.692-36.885 124.69-50.469 191.35-57.022 4.8721-0.4775 9.7876-0.7871 14.78-0.9414 77.906-2.4179 115.44 48.094 175.71 89.044 45.932 24.285 137.5 28.545 139.02 61.551 1.5664 34.102-102.69 47.039-127.76 60.244z" fill="#c6bddb" fill-rule="evenodd"/>
</g>
</g>
</g>
<g transform="matrix(1.25 0 0 -1.25 617.67 1064.7)">
<g clip-path="url(#hk)">
<path d="m193.62 514.86c-6.9467 4.7393-13.984 9.1548-21.114 13.374-138.04 81.155-304.45 60.117-380.64-51.862-76.203-111.97-34.758-274.5 91.392-373.15 6.5064-5.0772 13.233-9.9863 20.183-14.724 141.77-96.497 321.64-79.257 401.76 38.503 80.128 117.73 30.193 291.38-111.58 387.86z" fill-opacity="0"/>
<g clip-path="url(#hl)" opacity=".04759">
<path d="m188.79 507.76c-6.7143 4.5776-13.517 8.8472-20.411 12.927-133.43 78.449-294.3 58.112-367.95-50.135-73.662-108.23-33.601-265.35 88.346-360.71 6.289-4.9072 12.79-9.6523 19.509-14.233 137.04-93.279 310.92-76.614 388.37 37.219 77.456 113.81 29.187 281.66-107.86 374.93z" fill="#fdfafd" fill-rule="evenodd"/>
</g>
<g clip-path="url(#hm)" opacity=".0952">
<path d="m183.95 500.65c-6.481 4.4165-13.049 8.5405-19.706 12.48-128.83 75.744-284.15 56.107-355.26-48.408-71.122-104.5-32.443-256.2 85.299-348.27 6.0713-4.7383 12.35-9.3204 18.836-13.744 132.32-90.062 300.2-73.971 374.98 35.938 74.784 109.88 28.18 271.95-104.15 362z" fill="#fbf4fa" fill-rule="evenodd"/>
</g>
<g clip-path="url(#hn)" opacity=".1429">
<path d="m179.11 493.55c-6.2476 4.2554-12.582 8.2334-19.004 12.034-124.23 73.039-274 54.103-342.57-46.682-68.581-100.77-31.286-247.05 82.253-335.83 5.8536-4.5654 11.907-8.9853 18.163-13.251 127.59-86.845 289.48-71.329 361.59 34.654 72.111 105.95 27.174 262.24-100.43 349.08z" fill="#f9eff8" fill-rule="evenodd"/>
</g>
<g clip-path="url(#ho)" opacity=".19049">
<path d="m174.27 486.45c-6.0152 4.0933-12.115 7.9248-18.299 11.587-119.63 70.333-263.85 52.098-329.88-44.955-66.042-97.038-30.128-237.89 79.206-323.39 5.6363-4.3965 11.466-8.6504 17.491-12.759 122.86-83.627 278.76-68.686 348.2 33.369 69.44 102.03 26.167 252.52-96.712 336.15z" fill="#f6eaf6" fill-rule="evenodd"/>
</g>
<g clip-path="url(#hp)" opacity=".2381">
<path d="m169.43 479.34c-5.7813 3.9321-11.646 7.6172-17.595 11.141-115.02 67.628-253.7 50.092-317.19-43.228-63.5-93.307-28.972-228.74 76.161-310.96 5.4185-4.2256 11.024-8.3174 16.817-12.27 118.14-80.408 268.04-66.043 334.81 32.089 66.766 98.1 25.161 242.81-92.998 323.22z" fill="#f4e4f4" fill-rule="evenodd"/>
</g>
<g clip-path="url(#hq)" opacity=".28569">
<path d="m164.6 472.24c-5.5488 3.7705-11.179 7.3106-16.892 10.693-110.42 64.923-243.55 48.088-304.5-41.5-60.96-89.574-27.814-219.59 73.114-298.52 5.2012-4.0577 10.584-7.9854 16.144-11.778 113.41-77.192 257.32-63.403 321.41 30.804 64.095 94.176 24.154 233.1-89.28 310.3z" fill="#f2dff1" fill-rule="evenodd"/>
</g>
<g clip-path="url(#hr)" opacity=".3333">
<path d="m159.76 465.13c-5.3154 3.6094-10.711 7.0029-16.188 10.247-105.82 62.217-233.4 46.082-291.81-39.774-58.42-85.843-26.657-210.44 70.068-286.08 4.9834-3.8867 10.141-7.6523 15.471-11.288 108.69-73.974 246.6-60.761 308.02 29.52 61.422 90.249 23.147 223.38-85.563 297.37z" fill="#f0daef" fill-rule="evenodd"/>
</g>
<g clip-path="url(#hs)" opacity=".381">
<path d="m154.92 458.03c-5.082 3.4483-10.242 6.6958-15.484 9.8008-101.21 59.512-223.25 44.079-279.12-38.047-55.879-82.11-25.499-201.29 67.022-273.64 4.7657-3.7149 9.6997-7.3164 14.798-10.797 103.96-70.755 235.88-58.117 294.63 28.239 58.75 86.321 22.141 213.67-81.848 284.44z" fill="#eed5ed" fill-rule="evenodd"/>
</g>
<g clip-path="url(#ht)" opacity=".42859">
<path d="m150.08 450.92c-4.8496 3.2871-9.7754 6.3892-14.781 9.3535-96.61 56.807-213.1 42.074-266.43-36.319-53.338-78.377-24.342-192.14 63.975-261.2 4.5488-3.5449 9.2578-6.9843 14.126-10.305 99.238-67.539 225.15-55.476 281.24 26.955 56.078 82.396 21.134 203.96-78.13 271.52z" fill="#eccfeb" fill-rule="evenodd"/>
</g>
<g clip-path="url(#hv)" opacity=".4762">
<path d="m145.25 443.82c-4.6172 3.1255-9.3071 6.0816-14.076 8.9073-92.008 54.101-202.95 40.068-253.74-34.593-50.797-74.646-23.184-182.98 60.929-248.76 4.3305-3.375 8.8164-6.6504 13.452-9.8135 94.512-64.322 214.43-52.834 267.85 25.671 53.406 78.47 20.128 194.24-74.414 258.59z" fill="#eacae8" fill-rule="evenodd"/>
</g>
<g clip-path="url(#hw)" opacity=".52379">
<path d="m140.41 436.72c-4.3828 2.9634-8.8393 5.773-13.372 8.46-87.404 51.394-192.8 38.063-241.05-32.866-48.257-70.915-22.026-173.83 57.883-236.32 4.1137-3.206 8.3745-6.3174 12.779-9.3242 89.788-61.103 203.71-50.19 254.46 24.39 50.734 74.545 19.122 184.53-70.698 245.66z" fill="#e8c5e6" fill-rule="evenodd"/>
</g>
<g clip-path="url(#hx)" opacity=".5714">
<path d="m135.57 429.61c-4.1504 2.8023-8.3715 5.4658-12.668 8.0137-82.802 48.689-182.65 36.058-228.36-31.139-45.716-67.183-20.869-164.68 54.837-223.88 3.8951-3.0361 7.9331-5.9834 12.106-8.833 85.062-57.886 192.99-47.549 241.07 23.106 48.062 70.618 18.116 174.82-66.98 232.74z" fill="#e6c0e4" fill-rule="evenodd"/>
</g>
<g clip-path="url(#hy)" opacity=".61899">
<path d="m130.73 422.51c-3.9121 2.6494-7.9048 5.1592-11.965 7.5669-78.199 45.984-172.5 34.054-215.67-29.412-43.175-63.45-19.712-155.53 51.79-211.45 3.6787-2.8662 7.4917-5.6504 11.434-8.3418 80.336-54.669 182.27-44.906 227.68 21.821 45.39 66.694 17.232 165.29-63.263 219.81z" fill="#e4bbe2" fill-rule="evenodd"/>
</g>
<g clip-path="url(#hz)" opacity=".66669">
<path d="m125.89 415.4c-3.6778 2.4888-7.4366 4.8516-11.261 7.1201-73.596 43.279-162.35 32.049-202.98-27.684-40.635-59.719-18.554-146.38 48.745-199.01 3.46-2.6944 7.0498-5.3155 10.759-7.8506 75.612-51.45 171.55-42.263 214.29 20.541 42.717 62.766 16.237 155.59-59.548 206.88z" fill="#e2b6df" fill-rule="evenodd"/>
</g>
<g clip-path="url(#ia)" opacity=".71429">
<path d="m121.06 408.3c-3.4439 2.3286-6.9639 4.5513-10.557 6.6739-68.911 40.712-152.2 30.044-190.3-25.957-38.094-55.988-17.397-137.23 45.698-186.57 3.2431-2.5234 6.6079-4.9814 10.087-7.3594 70.886-48.232 160.83-39.621 200.9 19.256 40.045 58.84 15.242 145.89-55.83 193.96z" fill="#e0b1dd" fill-rule="evenodd"/>
</g>
<g clip-path="url(#ib)" opacity=".76189">
<path d="m116.22 401.19c-3.211 2.1685-6.5015 4.2373-9.854 6.2271-64.389 37.868-142.05 28.04-177.61-24.232-35.554-52.252-16.239-128.08 42.651-174.13 3.0253-2.3554 6.1669-4.6503 9.4145-6.8681 66.16-45.017 150.11-36.98 187.51 17.972 37.374 54.915 14.25 136.2-52.114 181.03z" fill="#deacdb" fill-rule="evenodd"/>
</g>
<g clip-path="url(#ic)" opacity=".80949">
<path d="m111.38 394.09c-2.9766 2.0083-6.0288 3.9356-9.1499 5.7798-59.71 35.292-131.9 26.034-164.92-22.504-33.013-48.522-15.083-118.93 39.605-161.69 2.8081-2.1846 5.7246-4.3164 8.7403-6.3789 61.436-41.798 139.39-34.337 174.12 16.691 34.701 50.986 13.26 126.51-48.398 168.1z" fill="#dca8d9" fill-rule="evenodd"/>
</g>
<g clip-path="url(#id)" opacity=".85709">
<path d="m106.54 386.99c-2.7432 1.8467-5.562 3.628-8.4458 5.333-55.117 32.571-121.75 24.03-152.23-20.777-30.474-44.79-13.925-109.77 36.559-149.25 2.5903-2.0156 5.2837-3.9824 8.0684-5.8877 56.71-38.579 128.66-31.694 160.73 15.407 32.029 47.062 12.268 116.82-44.681 155.18z" fill="#dba3d6" fill-rule="evenodd"/>
</g>
<g clip-path="url(#ie)" opacity=".90479">
<path d="m101.71 379.88c-2.5098 1.6875-5.0943 3.3213-7.7427 4.8868-50.516 29.863-111.59 22.025-139.54-19.05-27.933-41.059-12.768-100.62 33.513-136.82 2.373-1.8428 4.8413-3.6465 7.395-5.3945 51.984-35.362 117.94-29.053 147.34 14.123 29.357 43.136 11.274 107.13-40.964 142.25z" fill="#d99ed4" fill-rule="evenodd"/>
</g>
<g clip-path="url(#if)" opacity=".95239">
<path d="m96.867 372.78c-2.2754 1.5264-4.6265 3.0137-7.0381 4.4405-45.91 27.162-101.44 20.02-126.85-17.323-25.392-37.325-11.61-91.472 30.466-124.38 2.1552-1.6748 4.4004-3.3155 6.7216-4.9053 47.26-32.144 107.22-26.409 133.95 12.842 26.684 39.21 10.279 97.433-37.248 129.32z" fill="#d799d2" fill-rule="evenodd"/>
</g>
<g clip-path="url(#ig)">
<path d="m92.029 365.67c-2.0532 1.3496-4.1626 2.6992-6.335 3.9932-41.374 24.342-91.293 18.016-114.16-15.596-22.852-33.595-10.453-82.32 27.42-111.94 1.9375-1.5039 3.958-2.9815 6.0489-4.4141 42.534-28.928 96.501-23.768 120.55 11.558 24.012 35.283 9.0562 87.4-33.531 116.4z" fill="#d595d0" fill-rule="evenodd"/>
</g>
</g>
</g>
<path d="m1123.5 562.32c0 160.33-129.96 290.3-290.3 290.3-160.31 0-290.29-129.97-290.29-290.3 0-160.31 129.98-290.28 290.29-290.28 160.34 0 290.3 129.97 290.3 290.28z" fill="url(#a)" fill-rule="evenodd"/>
<path d="m1123.5 562.32c0 160.33-129.96 290.3-290.3 290.3-160.31 0-290.29-129.97-290.29-290.3 0-160.31 129.98-290.28 290.29-290.28 160.34 0 290.3 129.97 290.3 290.28z" fill="url(#a)" fill-opacity=".37999" fill-rule="evenodd"/>
<path d="m542.49 563.22c0-152.07 123.03-276.91 280.06-290.5-9.3689-0.8081-18.834-1.2653-28.432-1.2653-170.39 0-308.51 130.62-308.51 291.76 0 161.12 138.11 291.76 308.51 291.76 9.5979 0 19.063-0.47362 28.432-1.2818-157.03-13.588-280.06-138.43-280.06-290.48z" fill="#a87ac4" fill-rule="evenodd"/>
<g transform="matrix(1.25 0 0 -1.25 617.67 1064.7)">
<g clip-path="url(#ih)">
<g clip-path="url(#ii)">
<path d="m-60.149 401.21c0 60.828 24.606 116.21 64.916 157.74 20.155 20.767 44.236 38.072 71.129 50.864s56.601 21.072 88.007 23.79c-7.4951 0.6465-15.067 1.0123-22.746 1.0123-3.7622 0-7.5024-0.0982-11.215-0.253 3.8189-0.1831 7.6006-0.436 11.377-0.7593-31.408-2.7182-61.116-10.998-88.01-23.79s-50.975-30.098-71.129-50.864c-40.309-41.534-64.912-96.915-64.912-157.74 0-60.821 24.604-116.2 64.912-157.73 20.155-20.768 44.235-38.069 71.129-50.863 26.894-12.793 56.602-21.073 88.01-23.79-3.7764-0.3242-7.5581-0.5752-11.377-0.7588 3.7129-0.1543 7.4531-0.2666 11.215-0.2666 7.6783 0 15.25 0.3789 22.746 1.0254-31.406 2.7168-61.114 10.997-88.007 23.79-26.893 12.794-50.974 30.096-71.129 50.863-40.31 41.531-64.916 96.909-64.916 157.73z" fill="#a87ac4" fill-rule="evenodd"/>
</g>
<g clip-path="url(#ij)" opacity=".95239">
<path d="m-15.893 558.94c-40.196-41.529-64.688-96.906-64.688-157.73 0-60.821 24.881-116.26 65.315-157.81 20.035-20.598 43.91-37.776 70.505-50.506 5.4555-2.6113 11.024-5.0361 16.698-7.2656 22.113-8.6904 45.807-14.399 70.506-16.597-3.4483-0.332-6.9019-0.5889-10.392-0.7783 3.6806-0.1611 7.3877-0.2774 11.115-0.2832h1.0781c6.7774 0.0185 14.292 0.5117 21.45 1.1289-31.286 2.6269-60.91 10.843-87.746 23.593-26.837 12.75-50.888 30.03-71.029 50.786-40.28 41.509-64.917 96.909-64.917 157.73 0 60.828 24.438 116.17 64.58 157.66 20.071 20.746 44.068 38.031 70.898 50.808 26.83 12.776 56.496 21.046 87.902 23.764-3.1387 0.2876-6.1479 0.5117-9.4482 0.7041-4.3462 0.253-8.6333 0.3907-13.066 0.4077-3.7413-0.0131-7.4605-0.124-11.152-0.2905 3.4771-0.1943 6.9214-0.4585 10.361-0.7925-27.569-2.4755-53.8-9.2446-77.946-19.591-3.1826-1.3642-6.3281-2.79-9.436-4.2768-26.693-12.766-50.585-29.998-70.589-50.659z" fill="#a579c3" fill-rule="evenodd"/>
</g>
<g clip-path="url(#il)" opacity=".90479">
<path d="m-13.965 558.93c-40.086-41.526-64.466-96.898-64.466-157.73 0-60.821 25.16-116.32 65.719-157.89 19.915-20.429 43.585-37.483 69.882-50.15 5.4058-2.6045 10.921-5.0254 16.539-7.2509 21.957-8.711 45.441-14.449 69.857-16.682-3.1191-0.3398-6.2456-0.6045-9.4062-0.7988 3.6499-0.167 7.3242-0.2891 11.015-0.2998 0.356 0 0.7124-2e-3 1.0684 0 6.2495 0 14.069 0.6123 21.244 1.2334-31.166 2.5332-60.707 10.688-87.488 23.394-26.781 12.707-50.801 29.964-70.927 50.709-40.251 41.486-64.918 96.909-64.918 157.73 0 60.828 24.27 116.12 64.245 157.58 19.987 20.726 43.9 37.989 70.668 50.75s56.391 21.02 87.798 23.738c-3.1221 0.3027-5.9673 0.5278-9.3819 0.7461-4.3154 0.2759-8.4814 0.4321-12.902 0.4658-3.7198-0.0278-7.4185-0.1499-11.089-0.3286 3.1362-0.2056 6.2422-0.4809 9.3452-0.8252-27.384-2.5508-53.423-9.3432-77.383-19.673-3.1601-1.3623-6.2837-2.7871-9.3691-4.2715-26.493-12.741-50.197-29.899-70.049-50.453z" fill="#a379c3" fill-rule="evenodd"/>
</g>
<g clip-path="url(#im)" opacity=".85709">
<path d="m-12.037 558.92c-39.973-41.52-64.242-96.888-64.242-157.72 0-60.821 25.437-116.38 66.121-157.96 19.796-20.257 43.26-37.188 69.259-49.792 5.3555-2.5986 10.818-5.0136 16.379-7.2363 21.801-8.7314 45.076-14.499 69.21-16.77-2.792-0.3467-5.5894-0.6172-8.4209-0.8174 3.6181-0.1748 7.2583-0.2998 10.914-0.3174 0.3525-2e-3 0.7051-2e-3 1.0586-2e-3 5.7217-0.0166 13.845 0.7188 21.037 1.3389-31.043 2.4434-60.502 10.534-87.227 23.198-26.724 12.665-50.716 29.898-70.827 50.632-40.222 41.462-64.92 96.909-64.92 157.73 0 60.828 24.103 116.08 63.909 157.49 19.904 20.705 43.733 37.947 70.438 50.693s56.287 20.995 87.693 23.712c-3.103 0.3179-5.7851 0.5449-9.3139 0.7895-4.2832 0.2969-8.3286 0.4712-12.738 0.522-3.6992-0.041-7.376-0.1753-11.026-0.3667 2.7949-0.2163 5.562-0.5024 8.3296-0.8574-27.201-2.625-53.045-9.4419-76.82-19.755-3.1392-1.3618-6.2403-2.7851-9.3042-4.2671-26.292-12.715-49.807-29.801-69.509-50.248z" fill="#a079c2" fill-rule="evenodd"/>
</g>
<g clip-path="url(#in)" opacity=".80949">
<path d="m-10.109 558.92c-39.862-41.515-64.019-96.878-64.019-157.71 0-60.821 25.714-116.45 66.524-158.04 19.677-20.088 42.935-36.898 68.635-49.436 5.3062-2.5937 10.715-5.0029 16.219-7.2226 21.647-8.753 44.711-14.548 68.563-16.856-2.4639-0.3525-4.9341-0.6318-7.4361-0.8359 3.5865-0.1817 7.1944-0.3115 10.815-0.334 0.3486-2e-3 0.6982-4e-3 1.0469-4e-3 5.1948-0.0313 13.623 0.8232 20.832 1.4463-30.923 2.3486-60.3 10.378-86.967 23-26.668 12.621-50.63 29.831-70.726 50.554-40.192 41.439-64.923 96.909-64.923 157.73 0 60.828 23.936 116.04 63.575 157.41 19.82 20.683 43.566 37.906 70.208 50.635 26.642 12.73 56.182 20.968 87.588 23.686-3.0854 0.334-5.6035 0.5615-9.2476 0.8325-4.2514 0.3169-8.1757 0.5127-12.573 0.5796-3.6777-0.0547-7.334-0.2007-10.963-0.4043 2.4541-0.2285 4.8833-0.5249 7.314-0.8906-27.017-2.6987-52.668-9.5391-76.259-19.837-3.1153-1.3613-6.1953-2.7822-9.2373-4.2617-26.091-12.689-49.418-29.701-68.968-50.044z" fill="#9e78c1" fill-rule="evenodd"/>
</g>
<g clip-path="url(#ip)" opacity=".76189">
<path d="m-8.1812 558.91c-39.75-41.512-63.796-96.87-63.796-157.7 0-60.821 25.992-116.51 66.927-158.12 19.558-19.918 42.61-36.604 68.012-49.08 5.2573-2.586 10.613-4.9912 16.061-7.208 21.49-8.7705 44.344-14.597 67.914-16.94-2.1347-0.3613-4.2768-0.6465-6.4497-0.8564 3.5547-0.1875 7.1284-0.3223 10.714-0.3506 0.3452-2e-3 0.6909-4e-3 1.0371-6e-3 4.667-0.0488 13.398 0.9258 20.624 1.5508-30.803 2.2588-60.096 10.225-86.708 22.804-26.612 12.577-50.544 29.766-70.624 50.477-40.164 41.417-64.925 96.909-64.925 157.73 0 60.828 23.768 116 63.24 157.33 19.736 20.663 43.398 37.865 69.977 50.579s56.077 20.942 87.483 23.66c-3.0669 0.3491-5.4229 0.5767-9.1802 0.876-4.2197 0.3354-8.0229 0.5522-12.409 0.6352-3.6572-0.0683-7.292-0.2256-10.899-0.4414 2.1123-0.2397 4.2036-0.5473 6.2983-0.9233-26.832-2.773-52.291-9.6377-75.697-19.92-3.0938-1.3594-6.1509-2.7798-9.1705-4.2574-25.891-12.662-49.03-29.601-68.429-49.837z" fill="#9b78c1" fill-rule="evenodd"/>
</g>
<g clip-path="url(#iq)" opacity=".71429">
<path d="m-6.2539 558.9c-39.638-41.507-63.572-96.861-63.572-157.69 0-60.821 26.27-116.57 67.331-158.2 19.438-19.751 42.285-36.312 67.388-48.724 5.208-2.5782 10.511-4.9805 15.9-7.1944 21.336-8.792 43.98-14.646 67.268-17.027-1.8066-0.3692-3.6206-0.6592-5.4653-0.875 3.5249-0.1953 7.065-0.334 10.614-0.3662 0.3432-3e-3 0.685-7e-3 1.0273-7e-3 4.1392-0.0673 13.176 1.0293 20.418 1.6553-30.683 2.168-59.892 10.068-86.448 22.606-26.556 12.534-50.458 29.701-70.524 50.399-40.133 41.394-64.926 96.909-64.926 157.73 0 60.828 23.6 115.96 62.904 157.25 19.652 20.642 43.23 37.822 69.747 50.52 26.516 12.7 55.971 20.917 87.378 23.635-3.0493 0.3637-5.2412 0.5893-9.1132 0.9174-4.1895 0.3545-7.8711 0.5938-12.245 0.6939-3.6367-0.0825-7.2505-0.2529-10.836-0.481 1.7715-0.2505 3.5249-0.5688 5.2827-0.956-26.648-2.8472-51.914-9.7354-75.134-20.002-3.0713-1.3589-6.1069-2.7764-9.1049-4.2519-25.69-12.637-48.64-29.503-67.889-49.633z" fill="#9978c0" fill-rule="evenodd"/>
</g>
<g clip-path="url(#ir)" opacity=".66669">
<path d="m-4.3252 558.89c-39.527-41.502-63.349-96.851-63.349-157.68 0-60.821 26.547-116.63 67.732-158.28 19.319-19.58 41.96-36.017 66.765-48.365 5.1582-2.5723 10.409-4.9688 15.741-7.1797 21.18-8.8125 43.615-14.696 66.621-17.114-1.4785-0.375-2.9654-0.6738-4.48-0.8945 3.4932-0.2031 6.999-0.3447 10.514-0.3828 0.3393-4e-3 0.6782-8e-3 1.0175-9e-3 3.6109-0.085 12.951 1.1338 20.21 1.7597-30.561 2.0762-59.689 9.9151-86.187 22.408-26.5 12.493-50.372 29.637-70.424 50.323-40.104 41.37-64.927 96.909-64.927 157.73 0 60.828 23.433 115.92 62.568 157.16 19.569 20.621 43.064 37.781 69.517 50.464 26.454 12.684 55.868 20.891 87.274 23.608-3.0308 0.3785-5.0596 0.6036-9.0459 0.961-4.1587 0.3721-7.7183 0.6328-12.081 0.75-3.6152-0.0957-7.2085-0.2783-10.774-0.5186 1.4307-0.2617 2.8462-0.5918 4.2676-0.9892-26.465-2.9209-51.536-9.833-74.572-20.083-3.0493-1.3584-6.0625-2.774-9.0391-4.2476-25.489-12.611-48.251-29.404-67.348-49.428z" fill="#9777c0" fill-rule="evenodd"/>
</g>
<g clip-path="url(#is)" opacity=".61899">
<path d="m-2.3979 558.88c-39.414-41.498-63.126-96.843-63.126-157.67 0-60.821 26.826-116.69 68.136-158.35 19.2-19.412 41.635-35.725 66.143-48.012 5.1084-2.5644 10.306-4.957 15.581-7.1641 21.024-8.831 43.249-14.745 65.972-17.199-1.1499-0.3847-2.3081-0.6885-3.4946-0.915 3.4619-0.208 6.9346-0.3486 10.414-0.3994 0.3355-6e-3 0.6714-8e-3 1.0069-0.0117 3.0835-0.1006 12.728 1.2382 20.003 1.8662-30.44 1.9853-59.484 9.7607-85.927 22.211-26.443 12.45-50.285 29.57-70.323 50.246-40.075 41.348-64.929 96.909-64.929 157.73 0 60.828 23.265 115.88 62.234 157.08 19.485 20.601 42.896 37.74 69.286 50.407 26.391 12.668 55.763 20.865 87.169 23.583-3.0122 0.3936-4.878 0.6177-8.9785 1.0039-4.127 0.3882-7.5665 0.6724-11.916 0.8062-3.5948-0.1094-7.1666-0.3037-10.71-0.5557 1.0884-0.2729 2.1655-0.6133 3.251-1.0219-26.28-2.9952-51.158-9.9317-74.009-20.166-3.0274-1.3564-6.0191-2.7715-8.9732-4.2422-25.289-12.586-47.863-29.305-66.809-49.223z" fill="#9477bf" fill-rule="evenodd"/>
</g>
<g clip-path="url(#it)" opacity=".5714">
<path d="m-0.4702 558.87c-39.303-41.493-62.902-96.834-62.902-157.66 0-60.821 27.104-116.76 68.539-158.43 19.08-19.241 41.31-35.43 65.518-47.653 5.0595-2.5586 10.204-4.9463 15.422-7.1514 20.869-8.8515 42.883-14.793 65.325-17.285-0.8222-0.3916-1.6518-0.7012-2.5097-0.9336 3.4301-0.2158 6.8696-0.3682 10.313-0.416 0.3326-6e-3 0.6646-0.01 0.9976-0.0118 2.5552-0.1201 12.504 1.3409 19.797 1.9708-30.32 1.8935-59.281 9.6054-85.668 22.013-26.387 12.406-50.199 29.505-70.222 50.169-40.045 41.325-64.93 96.909-64.93 157.73 0 60.828 23.097 115.83 61.898 157 19.4 20.58 42.727 37.698 69.055 50.35 26.328 12.653 55.657 20.839 87.064 23.557-2.9951 0.4087-4.6977 0.6299-8.9116 1.0464-4.0962 0.4048-7.4141 0.7134-11.752 0.8643-3.5738-0.1236-7.1241-0.3301-10.648-0.5943 0.7481-0.2842 1.4868-0.6357 2.2358-1.0547-26.096-3.0703-50.781-10.03-73.446-20.248-3.0059-1.356-5.9747-2.7686-8.9073-4.2378-25.088-12.56-47.473-29.206-66.269-49.017z" fill="#9277be" fill-rule="evenodd"/>
</g>
<g clip-path="url(#iu)" opacity=".52379">
<path d="m1.458 558.86c-39.191-41.488-62.678-96.824-62.678-157.65 0-60.821 27.38-116.82 68.941-158.51 18.961-19.072 40.985-35.137 64.896-47.297 5.0103-2.5537 10.101-4.9346 15.262-7.1377 20.713-8.8711 42.519-14.843 64.678-17.372-0.4942-0.3974-0.9966-0.7138-1.5254-0.9521 3.3994-0.2236 6.8051-0.3789 10.214-0.4336 0.3291-5e-3 0.6582-9e-3 0.9873-0.0127 2.0279-0.1367 12.28 1.4453 19.59 2.0752-30.199 1.8017-59.077 9.4521-85.407 21.815-26.331 12.364-50.113 29.44-70.122 50.093-40.016 41.303-64.932 96.909-64.932 157.73 0 60.828 22.929 115.79 61.564 156.91 19.316 20.56 42.56 37.657 68.825 50.293 26.265 12.638 55.552 20.813 86.96 23.531-2.9766 0.4238-4.5161 0.6421-8.8442 1.0894-4.065 0.4199-7.2622 0.7529-11.588 0.9209-3.5523-0.1373-7.0821-0.3555-10.584-0.6319 0.4067-0.2954 0.8081-0.6582 1.2207-1.0879-25.913-3.144-50.404-10.128-72.884-20.33-2.9829-1.3545-5.9306-2.7657-8.8413-4.232-24.887-12.534-47.084-29.107-65.728-48.812z" fill="#8f76be" fill-rule="evenodd"/>
</g>
<g clip-path="url(#iv)" opacity=".4762">
<path d="m3.3857 558.85c-39.08-41.484-62.456-96.816-62.456-157.64 0-60.821 27.658-116.88 69.345-158.59 18.842-18.902 40.659-34.846 64.271-46.94 4.9604-2.5469 9.9985-4.9238 15.104-7.1221 20.557-8.8925 42.152-14.891 64.029-17.458-0.165-0.4062-0.3394-0.7314-0.5391-0.9746 3.3672-0.2265 6.7408-0.3886 10.114-0.4482 0.3252-6e-3 0.6504-0.0117 0.9756-0.0147 1.501-0.1523 12.059 1.5489 19.385 2.1827-30.078 1.7099-58.874 9.2978-85.148 21.618s-50.027 29.372-70.02 50.012c-39.987 41.28-64.935 96.911-64.935 157.73 0 60.828 22.763 115.75 61.229 156.83 19.233 20.538 42.392 37.615 68.595 50.236 26.202 12.621 55.449 20.786 86.855 23.504-2.959 0.44-4.335 0.6538-8.7779 1.1328-4.0332 0.4341-7.1084 0.794-11.423 0.9776-3.5322-0.1509-7.0405-0.3804-10.522-0.669 0.0659-0.3076 0.1284-0.6806 0.2036-1.1206-25.727-3.2183-50.026-10.226-72.322-20.412-2.9604-1.354-5.8852-2.7637-8.7739-4.228-24.687-12.509-46.696-29.007-65.189-48.606z" fill="#8d76bd" fill-rule="evenodd"/>
</g>
<g clip-path="url(#iw)" opacity=".42859">
<path d="m5.314 558.84c-38.968-41.48-62.232-96.806-62.232-157.63 0-60.821 27.936-116.94 69.747-158.66 18.723-18.733 40.335-34.553 63.649-46.584 4.9107-2.541 9.895-4.9131 14.943-7.1084 20.402-8.9121 41.787-14.94 63.382-17.545 0.1631-0.4121 0.3159-0.7441 0.4453-0.9932 3.3365-0.2343 6.6758-0.3994 10.014-0.4648 0.3218-6e-3 0.644-0.0117 0.9658-0.0176 0.9732-0.168 11.834 1.6543 19.177 2.2881-29.957 1.6182-58.67 9.1445-84.888 21.422-26.218 12.277-49.94 29.306-69.92 49.934-39.958 41.258-64.937 96.911-64.937 157.73 0 60.828 22.595 115.71 60.894 156.75 19.149 20.517 42.225 37.574 68.364 50.179s55.343 20.761 86.75 23.479c-2.9399 0.4546-4.1538 0.6645-8.7099 1.1753-4.0025 0.4492-6.9566 0.8335-11.259 1.0342-3.5107-0.1641-6.9981-0.4058-10.458-0.7071-0.2759-0.3183-0.5503-0.7031-0.812-1.1528-25.543-3.2925-49.648-10.325-71.759-20.495-2.9385-1.3531-5.8418-2.7613-8.7085-4.2227-24.486-12.484-46.307-28.909-64.648-48.402z" fill="#8b75bd" fill-rule="evenodd"/>
</g>
<g clip-path="url(#ix)" opacity=".381">
<path d="m7.2417 558.83c-38.856-41.475-62.008-96.797-62.008-157.62 0-60.821 28.213-117 70.15-158.74 18.603-18.562 40.01-34.258 63.024-46.226 4.8618-2.5351 9.793-4.9014 14.783-7.0957 20.248-8.9316 41.422-14.988 62.736-17.63 0.4913-0.4199 0.9722-0.7578 1.4307-1.0127 3.3047-0.2422 6.6113-0.4111 9.9131-0.4824 0.3188-5e-3 0.6377-0.0127 0.9561-0.0166 0.4453-0.1875 11.611 1.7568 18.971 2.3926-29.836 1.5264-58.467 8.9892-84.628 21.224-26.162 12.234-49.856 29.24-69.819 49.857-39.928 41.235-64.938 96.911-64.938 157.73 0 60.828 22.427 115.67 60.558 156.66 19.065 20.497 42.057 37.532 68.134 50.122 26.076 12.59 55.238 20.735 86.646 23.453-2.9233 0.4697-3.9741 0.6738-8.6436 1.2177-3.9716 0.462-6.8037 0.8746-11.095 1.0923-3.4902-0.1782-6.956-0.4321-10.396-0.7456-0.6157-0.3301-1.229-0.7256-1.8271-1.186-25.359-3.3672-49.271-10.423-71.196-20.577-2.9165-1.3515-5.7979-2.7578-8.6431-4.2177-24.285-12.458-45.917-28.809-64.108-48.197z" fill="#8875bc" fill-rule="evenodd"/>
</g>
<g clip-path="url(#iy)" opacity=".3333">
<path d="m9.1689 558.83c-38.744-41.47-61.785-96.789-61.785-157.62 0-60.821 28.491-117.06 70.553-158.82 18.484-18.394 39.686-33.966 62.402-45.872 4.812-2.5274 9.6899-4.8897 14.624-7.0801 20.091-8.9512 41.056-15.037 62.087-17.715 0.8193-0.4297 1.6294-0.7724 2.416-1.0332 3.2739-0.248 6.5464-0.4218 9.814-0.499 0.3149-8e-3 0.6308-0.0127 0.9458-0.0185-0.0825-0.2041 11.387 1.8603 18.764 2.497-29.716 1.4365-58.263 8.835-84.369 21.026s-49.768 29.175-69.718 49.781c-39.899 41.213-64.939 96.911-64.939 157.73 0 60.828 22.259 115.63 60.223 156.58 18.982 20.476 41.889 37.491 67.903 50.064 26.014 12.575 55.134 20.71 86.541 23.427-2.9048 0.4848-3.7925 0.6845-8.5767 1.2607-3.9399 0.4756-6.6514 0.9141-10.93 1.1484-3.4697-0.1919-6.914-0.4575-10.332-0.7827-0.958-0.3413-1.9097-0.7471-2.8438-1.2187-25.174-3.4414-48.893-10.522-70.634-20.66-2.8941-1.3501-5.7535-2.7554-8.5762-4.2119-24.086-12.433-45.529-28.711-63.569-47.992z" fill="#8675bc" fill-rule="evenodd"/>
</g>
<g clip-path="url(#ja)" opacity=".28569">
<path d="m11.098 558.82c-38.633-41.466-61.562-96.779-61.562-157.61 0-60.821 28.769-117.13 70.956-158.9 18.365-18.223 39.36-33.671 61.778-45.514 4.7627-2.5215 9.5879-4.879 14.465-7.0655 19.935-8.9717 40.69-15.088 61.44-17.803 1.1475-0.4346 2.2847-0.7852 3.4014-1.0518 3.2417-0.2549 6.4809-0.4336 9.7134-0.5156 0.3115-8e-3 0.6235-0.0137 0.9355-0.0205-0.6103-0.2217 11.163 1.9648 18.557 2.6025-29.594 1.3438-58.06 8.6807-84.108 20.829-26.049 12.15-49.683 29.109-69.618 49.704-39.87 41.188-64.942 96.911-64.942 157.73 0 60.828 22.092 115.59 59.888 156.5 18.898 20.456 41.723 37.45 67.673 50.008 25.951 12.558 55.029 20.683 86.436 23.401-2.8852 0.4995-3.6113 0.6929-8.5087 1.3042-3.9092 0.4873-6.4986 0.9532-10.766 1.2046-3.4482-0.2051-6.872-0.4829-10.27-0.8203-1.2993-0.3525-2.5884-0.7695-3.8584-1.2515-24.991-3.5156-48.516-10.62-70.072-20.741-2.8725-1.3501-5.7094-2.7534-8.5107-4.2085-23.884-12.406-45.14-28.612-63.028-47.786z" fill="#8374bb" fill-rule="evenodd"/>
</g>
<g clip-path="url(#jb)" opacity=".2381">
<path d="m13.025 558.81c-38.521-41.461-61.338-96.77-61.338-157.6 0-60.821 29.047-117.19 71.359-158.98 18.245-18.056 39.035-33.379 61.155-45.157 4.7124-2.5146 9.4853-4.8671 14.304-7.0517 19.78-8.9922 40.326-15.137 60.793-17.89 1.4756-0.4423 2.941-0.7988 4.3858-1.0703 3.2119-0.2627 6.417-0.4443 9.6133-0.5302 0.309-0.01 0.6176-0.0176 0.9262-0.0235-1.1382-0.2392 10.94 2.0684 18.351 2.708-29.474 1.253-57.856 8.5254-83.848 20.631-25.993 12.106-49.597 29.045-69.518 49.627-39.84 41.166-64.942 96.911-64.942 157.73 0 60.828 21.923 115.54 59.552 156.41 18.814 20.435 41.555 37.407 67.443 49.95 25.888 12.544 54.924 20.658 86.332 23.376-2.8687 0.5147-3.4312 0.6997-8.4424 1.3462-3.8794 0.501-6.3467 0.9951-10.602 1.2632-3.4278-0.2197-6.8306-0.5103-10.207-0.8599-1.6396-0.3628-3.2671-0.791-4.874-1.2841-24.807-3.5899-48.139-10.718-69.509-20.823-2.8496-1.3486-5.665-2.7495-8.4448-4.2026-23.683-12.38-44.75-28.513-62.488-47.582z" fill="#8174bb" fill-rule="evenodd"/>
</g>
<g clip-path="url(#jc)" opacity=".19049">
<path d="m14.953 558.8c-38.409-41.457-61.115-96.761-61.115-157.59 0-60.821 29.325-117.25 71.762-159.05 18.126-17.886 38.71-33.085 60.532-44.802 4.6641-2.5068 9.3833-4.8565 14.146-7.0371 19.624-9.0108 39.959-15.186 60.144-17.974 1.8047-0.4512 3.5981-0.8135 5.3721-1.0909 3.1801-0.2685 6.3515-0.456 9.5127-0.5478 0.3056-9e-3 0.6103-0.0166 0.916-0.0244-1.666-0.2569 10.716 2.1718 18.144 2.8125-29.353 1.1631-57.652 8.372-83.588 20.434-25.937 12.064-49.51 28.98-69.416 49.551-39.811 41.144-64.944 96.911-64.944 157.73 0 60.828 21.757 115.5 59.217 156.33 18.73 20.414 41.387 37.366 67.212 49.894s54.819 20.631 86.227 23.349c-2.8501 0.5298-3.2505 0.707-8.375 1.3897-3.8492 0.5126-6.1939 1.0341-10.438 1.3188-3.4068-0.2334-6.7886-0.5352-10.143-0.897-1.9814-0.374-3.9468-0.8139-5.8901-1.3174-24.623-3.6635-47.761-10.816-68.946-20.905-2.8286-1.3472-5.6216-2.7466-8.3789-4.1983-23.483-12.354-44.361-28.414-61.949-47.376z" fill="#7f74ba" fill-rule="evenodd"/>
</g>
<g clip-path="url(#jd)" opacity=".1429">
<path d="m16.881 558.79c-38.298-41.453-60.892-96.752-60.892-157.58 0-60.821 29.602-117.31 72.165-159.13 18.007-17.717 38.385-32.794 59.908-44.445 4.6143-2.501 9.2803-4.8447 13.986-7.0234 19.469-9.0323 39.594-15.234 59.498-18.06 2.1328-0.458 4.2534-0.8291 6.356-1.1104 3.1489-0.2754 6.288-0.4668 9.4135-0.5644 0.3018-0.01 0.6035-0.0186 0.9048-0.0264-2.1929-0.2715 10.493 2.2764 17.938 2.9199-29.233 1.0684-57.449 8.2159-83.329 20.236-25.881 12.018-49.424 28.912-69.315 49.472-39.782 41.121-64.947 96.911-64.947 157.73 0 60.828 21.588 115.46 58.882 156.25 18.646 20.392 41.219 37.325 66.982 49.836 25.763 12.513 54.714 20.605 86.122 23.323-2.832 0.5454-3.0703 0.7144-8.3081 1.4321-3.8174 0.5244-6.041 1.0757-10.273 1.3765-3.3853-0.2466-6.7461-0.5606-10.08-0.9346-2.3223-0.3862-4.6255-0.8364-6.9058-1.3501-24.438-3.7378-47.384-10.914-68.385-20.988-2.8052-1.3462-5.5762-2.7441-8.312-4.1924-23.282-12.329-43.973-28.314-61.408-47.171z" fill="#7c74b9" fill-rule="evenodd"/>
</g>
<g clip-path="url(#je)" opacity=".0952">
<path d="m18.809 558.78c-38.186-41.447-60.668-96.743-60.668-157.57 0-60.821 29.879-117.37 72.567-159.21 17.888-17.546 38.06-32.499 59.285-44.087 4.5649-2.4951 9.1782-4.833 13.827-7.0088 19.313-9.0518 39.229-15.284 58.851-18.148 2.46-0.4648 4.9097-0.8418 7.3413-1.1289 3.1172-0.2832 6.2222-0.4707 9.313-0.581 0.2984-0.0117 0.5967-0.0196 0.8946-0.0283-2.7208-0.2891 10.27 2.3808 17.731 3.0244-29.111 0.9785-57.245 8.0625-83.068 20.04-25.825 11.978-49.339 28.847-69.215 49.394-39.753 41.097-64.949 96.911-64.949 157.73 0 60.828 21.422 115.42 58.547 156.16 18.562 20.372 41.052 37.283 66.752 49.779 25.7 12.497 54.61 20.579 86.017 23.297-2.8135 0.5605-2.8887 0.7197-8.2407 1.4756-3.7866 0.5341-5.8882 1.1147-10.109 1.4326-3.3648-0.2598-6.7041-0.586-10.017-0.9722-2.6636-0.3974-5.3057-0.8579-7.9214-1.3828-24.255-3.812-47.006-11.012-67.822-21.069-2.7833-1.3467-5.5323-2.7422-8.2461-4.189-23.082-12.303-43.584-28.215-60.868-46.966z" fill="#7a73b9" fill-rule="evenodd"/>
</g>
<g clip-path="url(#jf)" opacity=".04759">
<path d="m20.737 558.77c-38.075-41.443-60.445-96.734-60.445-157.56 0-60.821 30.158-117.44 72.971-159.29 17.768-17.378 37.734-32.207 58.662-43.732 4.5147-2.4883 9.0747-4.8232 13.666-6.9941 19.158-9.0733 38.863-15.334 58.202-18.232 2.789-0.4726 5.5659-0.8574 8.3266-1.1494 3.0865-0.289 6.1587-0.4892 9.2129-0.5986 0.2954-0.0107 0.5908-0.0205 0.8853-0.0273-3.2486-0.3077 10.046 2.4824 17.524 3.1289-28.991 0.8847-57.042 7.9072-82.81 19.842-25.768 11.934-49.251 28.781-69.113 49.317-39.723 41.074-64.95 96.911-64.95 157.73 0 60.828 21.253 115.38 58.211 156.08 18.479 20.351 40.884 37.241 66.522 49.721 25.637 12.482 54.505 20.554 85.912 23.272-2.7968 0.5757-2.7094 0.7246-8.1743 1.5175-3.7563 0.5459-5.7363 1.1563-9.9448 1.4908-3.3433-0.2744-6.6621-0.6118-9.9536-1.0103-3.0049-0.4092-5.9849-0.8804-8.937-1.416-24.07-3.8867-46.629-11.11-67.26-21.152-2.7607-1.3442-5.4878-2.7392-8.1797-4.1831-22.88-12.277-43.194-28.116-60.328-46.761z" fill="#7773b8" fill-rule="evenodd"/>
</g>
<g clip-path="url(#jg)" opacity="0">
<path d="m-14.98 401.21c0 60.828 21.086 115.34 57.876 156 18.395 20.331 40.717 37.2 66.29 49.665 25.574 12.466 54.4 20.527 85.808 23.245-2.7778 0.5908-2.5312 0.7172-8.1064 1.561-3.7276 0.5483-5.584 1.1953-9.7808 1.5469-31.407-2.7178-60.527-10.975-86.541-23.731-26.013-12.757-48.92-30.014-67.902-50.734-37.962-41.438-60.221-96.725-60.221-157.55 0-60.821 30.434-117.5 73.373-159.36 21.47-20.933 46.065-38.162 71.545-50.355 25.48-12.19 51.846-19.346 76.854-20.132-3.7764-0.3242 9.8223 2.5879 17.317 3.2344-28.87 0.7949-56.838 7.7539-82.549 19.644-25.712 11.892-49.166 28.716-69.013 49.241-39.693 41.052-64.952 96.911-64.952 157.73z" fill="#7573b8" fill-rule="evenodd"/>
</g>
</g>
</g>
<path d="m487.55 563.08c0-159.82 140.24-289.53 313.96-291.3-0.75625 0-1.5039-0.088-2.2772-0.088-175.38 0-317.57 130.46-317.57 291.39s142.19 291.39 317.57 291.39c0.78313 0 1.5309-0.0696 2.295-0.0696-173.73-1.7931-313.98-131.5-313.98-291.32z" fill="#d47dc5" fill-rule="evenodd"/>
<path d="m1571.7 495.9h-1403.7v9.0002h1403.7v-9.0002z" fill="url(#gi)"/>
<path d="m1571.7 534.09h-1403.7v8.9996h1403.7v-8.9996z" fill="url(#hj)"/>
<path d="m1571.7 572.29h-1403.7v9.0001h1403.7v-9.0001z" fill="url(#ik)"/>
<path d="m1571.7 610.51h-1403.7v8.999h1403.7v-8.999z" fill="url(#jl)"/>
<path d="m818.15 367.4c0 118.25-95.809 214.12-214.09 214.12-118.28 0-214.09-95.871-214.09-214.12 0-118.28 95.809-214.12 214.09-214.12 118.28 0 214.09 95.836 214.09 214.12z" fill="url(#km)"/>
<g transform="translate(-2048.3 275.3)">
<path d="m2921.2 135.39v251.62h37.375v-253.62h-37.375v2zm125.31 9.375v36.625h41.125v-38.625h-41.125v2zm-491.84 53c-32.9-0.45224-65.04 19.449-77.777 49.884-12.081 27.659-12.098 60.017-2.9105 88.522 9.6456 26.697 34.094 46.455 61.812 51.688 31.967 7.2322 65.348 0.5203 94.75-12.656 3.0166-3.8544 0.3501-11.556 1.25-16.844 1e-4 -7.4271 0-14.854 0-22.281-8.5859-2.2697-13.59 6.6901-20.969 8.9375-23.853 12.352-54.271 17.609-78.938 4.4375-16.992-9.4374-25.389-29.388-25.688-48.062h129.31c0.8855-26.724 0.4338-56.487-17.25-78.125-14.919-18.991-40.144-26.381-63.594-25.5zm1142.3 0c-32.506-0.43689-64.424 19.019-77.327 48.907-12.549 27.834-12.663 60.761-3.3354 89.565 9.4592 26.109 33.278 45.83 60.318 51.278 32.332 7.7684 66.364 1.0863 96.219-12.312 3.0166-3.8544 0.3501-11.556 1.25-16.844v-22.281c-8.5859-2.2697-13.59 6.6901-20.969 8.9375-23.853 12.352-54.271 17.609-78.938 4.4375-16.983-9.3958-25.384-29.379-25.687-48.062h129.31c0.8696-26.715 0.466-56.464-17.25-78.094-14.824-19.005-40.168-26.412-63.594-25.531zm-431.31 0c-19.303 0.0294-37.58 8.1878-52.906 19.375 0.2219-4.6384 2.3493-12.752-3.7813-14.375h-33.375v249.25h37.375v-70.969c29.868 14.859 69.558 13.525 94.719-9.75 24.75-22.13 33.091-57.389 30.603-89.622-1.3141-27.27-10.288-56.983-33.64-73.203-11.286-7.7866-25.34-11.033-38.994-10.706zm201.38 0.0625c-25.242 0.38121-53.11 10.599-65.312 34.031-11.744 22.404-4.993 54.551 18.312 66.594 23.363 13.657 52.503 10.787 76.25 22.938 10.415 8.1365 7.3166 27.19-5.1875 31.625-17.323 7.6478-37.506 5.175-55.062-0.375-12.298-3.9732-23.625-10.643-33.938-17.969-4.8265-1.6617-8.0031 3.6641-6.8125 7.9062 0.9063 10.567-0.1814 21.214 0.2188 31.844 33.688 16.957 75.131 22.705 110.75 8.125 19.833-8.7753 35.526-28.585 34.844-51 0.6112-18.653-10.172-37.083-27.438-44.531-22.787-11.632-50.925-8.3568-73-21.406-10.309-8.2034-6.6654-27.137 6.25-30.531 23.095-9.5826 49.494-2.0783 70.594 9.2188 4.4076 2.1082 9.2169 8.0565 14.469 5.6875 5.1217-4.6606 0.6791-12.302 2.1563-18.219-1e-4 -6.4062-1e-4 -12.812 0-19.219-20.644-10.44-43.957-15.293-67.094-14.719zm-678.22 0.5625c-32.784-0.41847-65.663 19.137-78.094 49.719-11.837 27.795-11.306 60.067-2.5313 88.656 8.3827 24.255 28.764 44.221 53.93 50.212 27.673 7.7801 57.75 3.1325 83.164-9.556 4.5446-0.94615 8.0693-5.242 6.4375-9.9375v-32.031c-9.1716-2.1078-14.656 7.168-22.235 10.323-18.92 11.357-44.413 16.185-64.64 5.146-19.916-11.636-24.968-36.825-24.39-58.219 0.019-20.544 5.9693-44.277 25.359-54.844 20.492-11.003 45.699-5.1681 64.813 6.1562 5.8976 2.7612 10.452 9.0094 16.969 9.9062 6.8508-1.3671 3.7822-10.221 3.8437-15 0.6794-8.0554 0.079-16.262 0.2813-24.375-19.392-9.9011-40.84-16.86-62.906-16.156zm259.59 6.375v182.25h37.375v-184.25h-37.375v2zm-492.69 24.688c15.494-0.68412 32.597 6.3861 38.188 21.688 2.6411 6.2921 3.8408 12.965 4.1562 19.75h-91.406c2.861-22.247 22.526-41.791 45.625-41.312 1.1462-0.033 2.2922-0.0711 3.4375-0.125zm1142.3 0c15.413-0.68163 32.587 6.3453 38.156 21.656 2.6772 6.2551 3.8635 12.986 4.1875 19.781h-91.406c2.7498-21.424 21.373-40.779 43.469-41.156 1.8571-0.21624 3.7297-0.17266 5.5938-0.28125zm-437.19 4.3438c15.094-0.37462 30.118 9.5158 33.969 24.406 7.1309 20.876 6.6209 44.149 1.2521 65.388-5.0324 17.089-20.126 31.139-38.372 31.871-15.317 1.7584-30.787-1.6354-44.693-7.9466v-95.531c13.989-10.181 30.165-18.359 47.844-18.188z" filter="url(#ga)"/>
<path d="m3755.9 277.39h-129.38c0 10.918 1.6211 20.439 4.8633 28.545s7.6855 14.756 13.33 19.941c5.4298 5.0977 11.885 8.9161 19.365 11.455 7.4805 2.5391 15.713 3.8086 24.707 3.8086 11.914 0 23.916-2.3829 35.986-7.1583 12.07-4.7753 20.674-9.4726 25.801-14.092h1.5723v32.139c-9.9804 4.1798-20.166 7.6857-30.557 10.508-10.4 2.8125-21.318 4.2285-32.764 4.2285-29.199 0-51.982-7.9004-68.359-23.711-16.387-15.81-24.57-38.272-24.57-67.373 0-28.779 7.8613-51.631 23.584-68.545 15.723-16.914 36.426-25.371 62.1-25.371 23.77 0 42.09 6.914 54.98 20.732s19.336 33.447 19.336 58.877v16.016m-29.375-22.5c-0.1074-15.713-3.9844-27.871-11.641-36.475-7.6562-8.5938-19.297-12.9-34.922-12.9-15.732 0-28.262 4.7265-37.578 14.18-9.3261 9.4532-14.609 21.182-15.859 35.195h100zm-207.47 56.738c0 16.113-6.6406 29.336-19.922 39.658-13.281 10.322-31.426 15.478-54.424 15.478-13.018 0-24.961-1.5527-35.83-4.6485-10.869-3.1054-19.98-6.4941-27.324-10.186v-33.291h1.5723c9.3066 7.08 19.658 12.705 31.064 16.875 11.406 4.1699 22.334 6.25 32.803 6.25 12.969 0 23.125-2.1094 30.449-6.3476 7.3242-4.2286 10.986-10.898 10.986-20 0-6.9531-1.9922-12.217-5.9766-15.801-3.9844-3.5741-11.631-6.6309-22.939-9.1601-4.1992-0.9375-9.668-2.041-16.426-3.3105-6.7578-1.2696-12.92-2.6368-18.467-4.1114-15.41-4.1015-26.328-10.137-32.774-18.086-6.4452-7.9492-9.6679-17.725-9.6679-29.307 0-7.2656 1.4942-14.111 4.4922-20.537 2.9981-6.4259 7.5488-12.168 13.652-17.227 5.8887-4.9414 13.379-8.8672 22.48-11.768 9.0918-2.8906 19.268-4.3456 30.527-4.3456 10.518 0 21.162 1.289 31.943 3.8671 10.781 2.5782 19.746 5.7129 26.904 9.3947v31.738h-1.5722c-7.5489-5.6055-16.719-10.332-27.52-14.199s-21.387-5.8008-31.758-5.8008c-10.801 0-19.922 2.0899-27.363 6.2695-7.4415 4.1798-11.162 10.4-11.162 18.652 0 7.2656 2.246 12.744 6.7578 16.426 4.3945 3.6914 11.524 6.6993 21.377 9.0137 5.4492 1.2696 11.553 2.5293 18.31 3.7891 6.7579 1.2695 12.383 2.4219 16.894 3.4765 13.73 3.1641 24.307 8.584 31.748 16.27 7.4414 7.7929 11.162 18.115 11.162 30.967zm-202.42-38.789c0 14.336-2.0607 27.441-6.1622 39.297-4.1113 11.855-9.9023 21.894-17.383 30.117-6.9532 7.8027-15.146 13.838-24.57 18.106-9.4336 4.2675-19.414 6.4062-29.941 6.4062-9.17 0-17.471-1.0059-24.893-2.9981-7.4316-2.0019-14.99-5.1171-22.676-9.3359v73.584h-29.375v-241.25h29.375v18.398c7.9003-6.6406 16.777-12.197 26.621-16.68 9.8437-4.4727 20.361-6.7188 31.533-6.7188 21.27 0 37.832 8.0371 49.688 24.111s17.783 38.398 17.783 66.963m-30.625 0.625c0-21.289-3.6427-37.207-10.908-47.754-7.2754-10.547-18.447-15.82-33.506-15.82-8.5351 0-17.129 1.8456-25.772 5.5371-8.6425 3.6914-16.914 8.5449-24.814 14.551v100.11c8.4277 3.7988 15.674 6.3867 21.728 7.754 6.0546 1.3671 12.939 2.0507 20.635 2.0507 16.543 0 29.443-5.586 38.721-16.758 9.2772-11.172 13.916-27.734 13.916-49.668zm-220.3-116.07h-33.124v-30.625h33.124v30.625m-1.875 205.62h-29.374v-176.25h29.374v176.25zm-127.18 0h-29.375v-245.62h29.375v245.62zm-106.89-11.191c-9.8144 4.7265-19.131 8.3984-27.949 11.016-8.8282 2.6073-18.193 3.9257-28.115 3.9257-12.637 0-24.219-1.875-34.766-5.6055s-19.57-9.3945-27.09-16.973c-7.6171-7.5684-13.516-17.139-17.695-28.721-4.1798-11.582-6.2599-25.107-6.2599-40.576 0-28.828 7.8516-51.455 23.564-67.871s36.465-24.629 62.246-24.629c10.02 0 19.863 1.416 29.522 4.248 9.6484 2.832 18.496 6.2989 26.543 10.381v32.871h-1.5625c-8.9745-7.0312-18.232-12.432-27.773-16.211-9.5507-3.7695-18.857-5.664-27.93-5.664-16.699 0-29.863 5.6738-39.512 17.002-9.6485 11.328-14.473 27.959-14.473 49.873 0 21.299 4.7169 37.666 14.16 49.102 9.4335 11.436 22.715 17.148 39.824 17.148 5.9375 0 11.992-0.7812 18.145-2.3535 6.1522-1.5722 11.689-3.6231 16.592-6.1426 4.2774-2.207 8.291-4.541 12.041-7.002 3.75-2.4609 6.7285-4.5898 8.9258-6.3769h1.5625v32.559zm-216.15-74.434h-129.38c0 10.918 1.621 20.439 4.8633 28.545 3.2421 8.1055 7.6855 14.756 13.33 19.941 5.4296 5.0977 11.885 8.9161 19.365 11.455 7.4805 2.5391 15.713 3.8086 24.707 3.8086 11.914 0 23.916-2.3829 35.986-7.1583 12.07-4.7753 20.674-9.4726 25.801-14.092h1.5722v32.139c-9.9805 4.1798-20.166 7.6857-30.557 10.508-10.4 2.8125-21.318 4.2285-32.764 4.2285-29.199 0-51.982-7.9004-68.359-23.711-16.387-15.81-24.57-38.272-24.57-67.373 0-28.779 7.8613-51.631 23.584-68.545 15.723-16.914 36.426-25.371 62.1-25.371 23.77 0 42.09 6.914 54.98 20.732 12.891 13.818 19.336 33.447 19.336 58.877v16.016m-29.375-22.5c-0.1075-15.713-3.9843-27.871-11.641-36.475-7.6562-8.5938-19.297-12.9-34.922-12.9-15.732 0-28.262 4.7265-37.578 14.18-9.3262 9.4532-14.609 21.182-15.859 35.195h100z" fill="#fff"/>
</g>
</g>
</svg>
