<svg viewBox="0 0 353.8 477.06" xmlns="http://www.w3.org/2000/svg" >
<defs>
<linearGradient id="human-skull-grad" x1="0%" y1="0%" x2="0%" y2="100%" spreadMethod="pad">
<stop offset="0%" stop-color="#233" stop-opacity="1"/>
<stop offset="20%" stop-color="#7a3" stop-opacity="1"/>
<stop offset="50%" stop-color="#FAA523" stop-opacity=".7"/>
<stop offset="100%" stop-color="#333" stop-opacity="1"/>
</linearGradient>
</defs>
<g stroke="#fff" stroke-width=".5" fill="url(#human-skull-grad)">
<path d="m152.3 425.36c-4.208-1.4348-11.752-5.9632-16.85-10.114-0.57659-0.46949-5.1922-4.0688-10.257-7.9985-9.5889-7.44-13.936-12.741-20.792-25.35-4.2729-7.8589-8.8289-13.238-12.388-14.625-3.3001-1.2864-2.6273-1.5595 5.2485-2.1311 3.7729-0.2738 6.2609-0.1277 5.529 0.32468-2.1278 1.315-0.27543 2.2086 2.0256 0.9771 1.463-0.783 2.6646-0.80637 4.025-0.0783 3.2012 1.7132 3.5926-0.80284 0.60932-3.9168-2.4692-2.5773-2.5472-2.9094-1.0378-4.4187 4.8411-4.8411 22.669 2.8314 18.435 7.9336-0.64311 0.77489-0.95033 1.9795-0.68271 2.6769 0.26761 0.6974-0.0861 1.803-0.78611 2.4569-1.0005 0.93463-1.396 0.71967-1.8492-1.0053-0.31708-1.2068-0.11921-2.3504 0.43971-2.5414 0.65419-0.22353 0.60474-0.84305-0.13882-1.739-0.63527-0.76545-1.5541-1.1451-2.0417-0.84373-0.48768 0.3014-0.88669-0.16939-0.88669-1.0462 0-1.2663 0.39789-1.3812 1.9343-0.55901 2.888 1.5456 3.3568 1.2577 1.3547-0.83209-0.98393-1.027-3.4765-2.1724-5.539-2.5453-3.502-0.63322-3.75-0.51514-3.75 1.7855 0 3.495 0.98778 5.6271 2.607 5.6271 0.76616 0 1.393 0.45 1.393 1s0.7875 1.0355 1.75 1.079c1.0431 0.047 1.2456 0.28251 0.50143 0.58285-1.9175 0.77389-0.42956 7.9981 2.8906 14.034 1.5719 2.8578 2.858 5.8953 2.858 6.75s0.42456 1.554 0.94346 1.554c0.51891 0 1.7409 1.35 2.7156 3 2.7133 4.5933 4.7333 3.9607 3.9917-1.25l-0.60483-4.25 1.727 2.4587c3.0445 4.3343 6.3805 8.0413 7.2365 8.0413 0.45741 0 1.1282-1.35 1.4906-3 0.73132-3.3297 2.1073-3.9416 2.8107-1.25 0.25153 0.9625 0.50953 0.2875 0.57333-1.5s0.566-3.25 1.116-3.25 1-0.46973 1-1.0438-0.72781-0.91161-1.6174-0.75c-2.2999 0.41785-4.344-2.9753-2.4892-4.1323 0.81842-0.51052 1.1663-1.7377 0.843-2.9739-0.34996-1.3383 0.0364-2.4331 1.0608-3.0064 1.3479-0.75435 1.4168-1.3284 0.4214-3.5131-1.1344-2.4898-1.0734-2.5822 1.3088-1.9843 1.3772 0.34564 3.126 0.10636 3.8966-0.53312 1.0626-0.88192 1.5738-0.87579 2.1308 0.0256 0.43091 0.69722-0.25343 1.931-1.661 2.9946-3.7563 2.8383-1.1987 4.4168 7.1562 4.4168 3.8225 0 6.95 0.39375 6.95 0.875s1.296 0.6158 2.88 0.29899c2.714-0.5428 2.9164-0.34825 3.5118 3.375 0.72178 4.5138 2.5493 5.3188 2.7265 1.201l0.11832-2.75 0.7359 3c0.73515 2.9969 0.73669 2.9957 1.5017-1.201 0.72502-3.9775 0.91898-4.1704 3.6458-3.625 1.584 0.31681 2.88 0.18226 2.88-0.29899s3.1275-0.875 6.95-0.875c8.3549 0 10.912-1.5785 7.1562-4.4168-1.4075-1.0636-2.0919-2.2973-1.661-2.9946 0.55705-0.90134 1.0682-0.90747 2.1308-0.0256 0.77053 0.63948 2.5194 0.87876 3.8966 0.53312 2.3822-0.59789 2.4432-0.50547 1.3088 1.9843-0.9954 2.1847-0.92654 2.7587 0.4214 3.5131 1.0245 0.57332 1.4108 1.6681 1.0608 3.0064-0.32328 1.2362 0.0246 2.4634 0.843 2.9739 1.8547 1.1569-0.18931 4.5501-2.4892 4.1323-0.88955-0.16161-1.6174 0.17589-1.6174 0.75s0.45 1.0438 1 1.0438 1.0522 1.4625 1.116 3.25 0.3218 2.4625 0.57333 1.5c0.70338-2.6916 2.0794-2.0797 2.8107 1.25 0.3624 1.65 1.0332 3 1.4906 3 0.85599 0 4.192-3.707 7.2365-8.0413l1.727-2.4587-0.60483 4.25c-0.74155 5.2107 1.2784 5.8433 3.9917 1.25 0.97468-1.65 2.1967-3 2.7156-3 0.5189 0 0.94346-0.69932 0.94346-1.554s1.2861-3.8922 2.858-6.75c3.3201-6.036 4.808-13.26 2.8906-14.034-0.74419-0.30034-0.54163-0.5358 0.50143-0.58285 0.9625-0.0434 1.75-0.52895 1.75-1.079s0.62686-1 1.393-1c1.6192 0 2.607-2.1321 2.607-5.6271 0-2.3006-0.24799-2.4187-3.75-1.7855-2.0625 0.37292-4.555 1.5183-5.539 2.5453-2.0021 2.0898-1.5333 2.3777 1.3547 0.83209 1.5364-0.82224 1.9343-0.70725 1.9343 0.55901 0 0.87681-0.39901 1.3476-0.88669 1.0462-0.48768-0.30141-1.4065 0.0783-2.0417 0.84373-0.74356 0.89594-0.79301 1.5155-0.13882 1.739 0.55892 0.19099 0.75679 1.3346 0.43971 2.5414-0.45322 1.7249-0.84865 1.9399-1.8492 1.0053-0.69998-0.65387-1.0537-1.7595-0.78611-2.4569 0.26762-0.6974-0.0396-1.902-0.68271-2.6769-4.2345-5.1022 13.594-12.775 18.435-7.9336 1.5094 1.5094 1.4314 1.8415-1.0378 4.4187-2.9833 3.1139-2.5919 5.63 0.60933 3.9168 1.3604-0.72805 2.5619-0.70468 4.025 0.0783 2.301 1.2315 4.1534 0.33794 2.0256-0.9771-0.73197-0.45238 1.7561-0.59848 5.529-0.32468 7.8758 0.57156 8.5486 0.84472 5.2485 2.1311-3.5591 1.3873-8.1151 6.766-12.388 14.625-6.8558 12.609-11.203 17.91-20.792 25.35-5.0647 3.9297-9.6803 7.529-10.257 7.9985-4.4787 3.6468-12.373 8.584-15.808 9.8863-6.4507 2.4458-43.251 2.6123-50.246 0.22726zm21.655-7.7396c1.0708-0.91683 1.9606-2.5794 1.9773-3.6947 0.0303-2.0206 0.0343-2.0207 1.148-0.0278 1.928 3.4503 4.4726 5.3439 8.0938 6.0232 3.6642 0.68741 6.2144-1.0155 3.2337-2.1594-0.89147-0.34208-1.3929-1.216-1.1143-1.942 0.33922-0.88401-0.0263-1.1156-1.1066-0.70102-0.9948 0.38174-1.3628 0.21399-0.96009-0.43762 0.35917-0.58115 0.0356-1.5691-0.71917-2.1955-1.0526-0.87357-1.5086-0.7835-1.9576 0.3867-0.69733 1.8172-2.7803 2.0842-2.1494 0.27552 0.23982-0.6875-0.67207-2.6-2.0264-4.25-1.7162-2.0909-2.464-2.5068-2.4674-1.3724-3e-3 0.89515-0.70045 2.2048-1.5505 2.9102s-1.3142 1.8856-1.0314 2.6224c0.28276 0.73689 0.0641 1.3398-0.48588 1.3398-0.55 0-1.2634-0.68649-1.5854-1.5255-0.44904-1.1702-0.90501-1.2603-1.9576-0.3867-0.75472 0.62636-1.0783 1.6143-0.71917 2.1955 0.40272 0.65161 0.0347 0.81936-0.96009 0.43762-1.0803-0.41454-1.4458-0.18299-1.1066 0.70102 0.2786 0.72601-0.22284 1.5999-1.1143 1.942-0.89147 0.34209-1.3158 1.1156-0.94295 1.7188 0.90862 1.4702 7.0066 0.27635 9.502-1.8603zm-23.697-15.738c-0.64071-1.6697-2.3558-2.0226-2.3558-0.48475 0 0.55-0.7301 1-1.6224 1-1.3186 0-1.3925 0.27703-0.395 1.479 1.5669 1.888 5.2231 0.22064 4.3732-1.9942zm30.644 2.7425c0-0.425-1.8-0.77272-4-0.77272s-4 0.34772-4 0.77272 1.8 0.77273 4 0.77273 4-0.34773 4-0.77273zm26.86-2.0907c-0.74781-0.24008-1.6972-0.93152-2.1096-1.5366-0.51661-0.75774-1.0554-0.63328-1.7313 0.39994-1.4144 2.162 1.7138 4.4669 3.759 2.7696 1.1916-0.98898 1.2059-1.2722 0.082-1.633zm-56.864-8.8489c-1.0896-1.6993-1.1178-1.6971-0.57078 0.0441 0.31653 1.0075 0.61104 2.3575 0.65446 3 0.057 0.84316 0.21579 0.83088 0.57077-0.0441 0.27051-0.66678-0.024-2.0168-0.65445-3zm52.919-0.78768c0.0302-0.55-0.38124-0.325-0.9144 0.5s-0.94464 2.175-0.9144 3c0.058 1.5838 1.7247-1.6058 1.8288-3.5zm-79.841 0.22222-2.315-2.2222 1.756 2.7812c0.96581 1.5297 2.0076 2.5297 2.315 2.2222 0.30745-0.30744-0.48276-1.559-1.756-2.7812zm106.47 0.52778 1.7698-2.75-2.1548 1.905c-1.1851 1.0477-2.1548 2.2852-2.1548 2.75 0 1.4668 0.71492 0.93057 2.5398-1.905zm-90.29-12.956c-2.552-0.49154-2.8014-1.3-1-3.2414 1.0169-1.096 0.94417-1.2402-0.39031-0.77348-1.687 0.59005-5.8597-2.533-5.8597-4.3857 0-0.56564 0.7875-0.80882 1.75-0.54039 0.9625 0.26842 2.7614 0.77873 3.9977 1.134 1.2437 0.35744 2.5205 1.733 2.8584 3.0794 0.33591 1.3383 1.012 2.4334 1.5023 2.4334 0.49037 0 0.89159 0.675 0.89159 1.5s-0.3375 1.4387-0.75 1.3638-1.7625-0.3312-3-0.56955zm69.75-0.77522c0-0.83548 0.40122-1.519 0.89159-1.519 0.49038 0 1.1664-1.095 1.5023-2.4334 0.33792-1.3464 1.6147-2.7219 2.8584-3.0794 1.2362-0.3553 3.0352-0.86561 3.9977-1.134 2.3871-0.66572 2.2026 1.1472-0.35969 3.5343-1.225 1.1413-2.7975 1.7081-3.75 1.3517-1.4336-0.53639-1.4648-0.39804-0.24781 1.0976 1.6246 1.9967 1.5051 2.1664-2.1425 3.0414-2.0826 0.49962-2.75 0.29109-2.75-0.85933zm-41.5-3.519c-0.33992-0.55-0.16803-1 0.38197-1s1.2781 0.45 1.618 1 0.16803 1-0.38197 1-1.2781-0.45-1.618-1zm15 0c0.33992-0.55 1.068-1 1.618-1s0.72189 0.45 0.38197 1-1.068 1-1.618 1-0.72189-0.45-0.38197-1zm-13.948-8.25c-0.34954-2.8875-0.87352-6.8913-1.1644-8.8974-0.56808-3.9178-0.33806-4.2295 3.8622-5.2334 2.7498-0.65727 2.75-0.65693 2.75 4.9189 0 6.9745-1.8249 14.462-3.5249 14.462-0.80574 0-1.5252-1.9643-1.923-5.25zm10.069-1.2055c-1.7771-7.0745-2.0846-12.14-0.78589-12.943 0.45963-0.28406 2.1471-0.15455 3.75 0.28781 2.6377 0.72795 2.8946 1.1747 2.7067 4.7075-0.83408 15.683-2.9743 18.683-5.6708 7.9477zm-17.377 3.2055c-1.3459-1.6826-4.4833-14.555-3.8121-15.641 0.29333-0.47463 2.0034-0.55909 3.8002-0.1877 3.121 0.64509 3.2621 0.87405 3.16 5.1272-0.27481 11.44-0.88853 13.527-3.1481 10.702zm26.774-2.5c-0.1678-2.0625-0.35321-5.7534-0.41203-8.2019-0.10216-4.2531 0.0389-4.4821 3.16-5.1272 1.7968-0.37139 3.5069-0.28693 3.8002 0.1877 0.29333 0.47462-0.21942 3.9068-1.1394 7.6272-2.4224 9.7953-4.8584 12.279-5.4087 5.5142zm-39.519 0.75c0.6779-2.1359-1.0281-2.8548-1.7798-0.75-0.24554 0.6875-0.83251 0.88803-1.3044 0.44563-0.47187-0.44241-0.36652-1.1174 0.23412-1.5 0.60064-0.3826 1.2939-3.5439 1.5406-7.0251 0.47037-6.6377 1.6043-8.2984 5.0506-7.3972 1.8475 0.48313 1.9681 1.0817 1.4141 7.0152-0.59188 6.3383-2.6547 11.212-4.7457 11.212-0.58926 0-0.76773-0.87151-0.40956-2zm51.998-0.36227c-0.8513-1.2992-1.8204-5.2814-2.1536-8.8492-0.55407-5.9334-0.43342-6.532 1.4141-7.0152 3.4463-0.90124 4.5803 0.75952 5.0506 7.3972 0.2467 3.4812 0.93996 6.6425 1.5406 7.0251 0.60064 0.38259 0.70599 1.0576 0.23412 1.5-0.47186 0.4424-1.0588 0.24187-1.3044-0.44563-0.7517-2.1048-2.4577-1.3859-1.7798 0.75 0.87778 2.7656-1.1094 2.5258-3.0017-0.36227zm-65.931-9.7428c-0.3799-3.3578-0.55052-6.2151-0.37917-6.3494 0.17135-0.13437 1.774 0.1508 3.5616 0.63371 2.8196 0.76176 3.25 1.3083 3.25 4.1269 0 3.5754-2.37 7.6939-4.4275 7.6939-0.86658 0-1.5494-2.0792-2.0048-6.1051zm77.989 3.8826c-0.85618-1.2224-1.5567-3.6845-1.5567-5.4714 0-2.8187 0.4304-3.3652 3.25-4.1269 1.7875-0.48291 3.3902-0.76808 3.5616-0.63371 0.17135 0.13438 7.3e-4 2.9916-0.37917 6.3494-0.74739 6.6061-2.173 7.7413-4.8757 3.8826zm-121.1-0.84831c-0.37508-0.60689-0.24093-1.5445 0.29812-2.0835 0.64011-0.64011 1.1844-0.44756 1.5692 0.55511 0.69958 1.8231-0.88408 3.1193-1.8673 1.5284zm167.22 0.36021c-0.30079-0.48669-0.18283-1.4739 0.26213-2.1939 0.61466-0.99454 0.98628-1.0222 1.5469-0.11512 0.40582 0.65664 0.28787 1.6439-0.26213 2.1939-0.55946 0.55946-1.2409 0.61018-1.5469 0.11513zm-174.6-2.5706c-0.50219-1.3208-1.2225-4.4653-1.6008-6.9876-0.59898-3.9943-0.41641-4.7555 1.4149-5.8992 2.188-1.3664 2.7321-4.748 1.2305-7.6478-0.47969-0.92634-1.0974-9.8968-1.3727-19.934-0.48781-17.787-0.44944-18.25 1.5119-18.25 1.1068 0 2.5759 0.77051 3.2645 1.7122 0.9978 1.3646 1.5466 1.4678 2.7026 0.50843 1.2192-1.0118 1.6562-0.34661 2.7398 4.1704 0.70909 2.9558 0.97849 5.877 0.59868 6.4916-0.37982 0.61455-0.27563 1.1174 0.23153 1.1174 0.50716 0 1.2085 2.8125 1.5586 6.25 0.3501 3.4375 0.91912 7.825 1.2645 9.75 0.78707 4.3868-0.61597 3.29-1.5341-1.1992-1.0341-5.0564-3.5334-4.2812-3.8669 1.1992-0.15058 2.475-0.78091 5.4972-1.4007 6.7159-1.2494 2.4567 0.2472 5.2841 2.797 5.2841 0.75766 0 1.3776 0.35236 1.3776 0.78302 0 0.94718-4.15 0.86036-5.7362-0.12-1.6115-0.99598 0.30229 5.4155 1.968 6.5928 1.0094 0.71348 1.0131 0.99996 0.01827 1.4036-0.6875 0.27897-1.25 1.3697-1.25 2.4239 0 2.1016-1.0459 2.4708-2.5991 0.91758-0.66546-0.66546-0.86728 0.12994-0.60438 2.3819 0.47683 4.0844-1.4258 5.7225-2.7133 2.336zm6.9168-42.66c0-0.51754-0.45-1.2191-1-1.559s-1 0.0835-1 0.94098c0 0.85746 0.45 1.559 1 1.559s1-0.42344 1-0.94098zm174.42 43.592c-0.35539-0.92614-0.42602-2.8355-0.15696-4.243 0.34913-1.8263 0.18116-2.2511-0.58661-1.4833-1.6258 1.6258-2.6758 1.2959-2.6758-0.84085 0-1.0542-0.5625-2.1449-1.25-2.4239-0.99487-0.40368-0.99114-0.69016 0.0183-1.4036 1.6657-1.1773 3.5795-7.5888 1.968-6.5928-1.5863 0.98036-5.7362 1.0672-5.7362 0.12 0-0.43066 0.6199-0.78302 1.3776-0.78302 2.5497 0 4.0464-2.8274 2.797-5.2841-0.61983-1.2188-1.2502-4.2409-1.4007-6.7159-0.33342-5.4805-2.8327-6.2556-3.8668-1.1992-0.91817 4.4893-2.3212 5.5861-1.5341 1.1992 0.34538-1.925 0.91441-6.3125 1.2645-9.75 0.3501-3.4375 1.0515-6.25 1.5586-6.25s0.61135-0.50282 0.23153-1.1174c-0.37982-0.61456-0.11041-3.5358 0.59868-6.4916 1.0836-4.517 1.5206-5.1822 2.7398-4.1704 1.156 0.95939 1.7047 0.85615 2.7026-0.50843 0.68861-0.94174 2.1576-1.7122 3.2645-1.7122 1.9614 0 1.9997 0.46323 1.5119 18.25-0.27529 10.038-0.893 19.008-1.3727 19.934-1.4816 2.8611-0.97059 5.9155 1.2968 7.7515 2.0498 1.6598 2.1043 2.0786 0.99166 7.6186-1.2983 6.4649-2.7144 8.7722-3.7412 6.0962zm-2.4194-44.21c0-0.85746-0.45-1.2809-1-0.94098s-1 1.0415-1 1.559 0.45 0.94098 1 0.94098 1-0.70156 1-1.559zm-160 40.559c-0.63912-1.1942-0.93704-2.3963-0.66204-2.6713s1.0229 0.47708 1.662 1.6713c0.63913 1.1942 0.93705 2.3963 0.66205 2.6713s-1.0229-0.47708-1.662-1.6713zm144.03 1.4411c-0.0175-0.58238 0.62889-1.9324 1.4364-3 0.8075-1.0676 1.4825-1.4646 1.5-0.88226s-0.62889 1.9324-1.4364 3c-0.8075 1.0676-1.4825 1.4646-1.5 0.88226zm-119.45-5.3069c-0.43077-0.697-0.51316-1.5373-0.18309-1.8674 0.89497-0.89496 1.8708 0.4213 1.3874 1.8714-0.33872 1.0162-0.57427 1.0154-1.2043-4e-3zm95.417-0.57519c0-0.85746 0.45-1.559 1-1.559s1 0.42344 1 0.94098-0.45 1.2191-1 1.559-1-0.0835-1-0.94098zm-61.564-4.137c-0.82913-5.529 0.12404-13.414 1.8258-15.104 1.4005-1.3907 8.1738-0.28259 10.11 1.654 1.565 1.565 1.0474 16.144-0.61054 17.196-0.69394 0.44053-3.3716 0.80785-5.9504 0.81627l-4.6887 0.0153-0.68651-4.578zm17.564 3.9392c-2.2868-0.62009-1.5459-17.016 0.82359-18.225 3.3379-1.7023 7.9771-2.0817 9.0879-0.74332 1.5826 1.9068 2.4446 9.7467 1.6525 15.029l-0.68651 4.578-4.6887-0.116c-2.5788-0.0638-5.3637-0.29903-6.1887-0.52274zm-37.75-1.0235c-0.6875-0.27741-1.25-1.8104-1.25-3.4067 0-1.5963-0.52035-4.8478-1.1563-7.2257-1.9175-7.1693 0.69151-12.38 4.1264-8.2414 1.6736 2.0166 3.0825 14.268 1.9755 17.179-0.90406 2.3778-1.418 2.6135-3.6956 1.6945zm65.804-1.6945c-1.1069-2.9114 0.3019-15.163 1.9755-17.179 3.4348-4.1387 6.0438 1.0721 4.1264 8.2414-0.63598 2.3779-1.1563 5.6188-1.1563 7.2021 0 1.7025-0.6463 3.1267-1.5818 3.4856-2.2941 0.88035-2.381 0.83519-3.3638-1.7498zm-89.565-1.689c-0.38411-1.7488-0.25233-3.5917 0.29604-4.1401 1.2234-1.2234 1.9086-0.17989 2.3634 3.5987 0.48054 3.9925-1.7996 4.4566-2.6595 0.54138zm34.999-0.61636c-0.88642-2.1108-1.4193-4.861-1.1842-6.1116 0.23512-1.2506 0.0378-2.5147-0.43841-2.809-0.47624-0.29434-0.86589-1.4086-0.86589-2.4761 0-2.7121 5.5141-2.7174 6.9648-7e-3 0.97668 1.825 1.5136 14.066 0.61697 14.066-0.23002 0-1.1075 0.2645-1.9499 0.58777-1.0858 0.41665-2.0009-0.52948-3.1434-3.25zm42.762 3c-1.5458-0.62375-1.7097-11.61-0.21482-14.403 1.4507-2.7107 6.9648-2.7054 6.9648 7e-3 0 1.0675-0.38965 2.1818-0.86589 2.4761-0.47624 0.29433-0.67353 1.5584-0.43841 2.809 0.45063 2.3971-2.2013 9.8297-3.4591 9.6949-0.40512-0.0434-1.2991-0.30592-1.9866-0.58333zm36.639-0.0877c-0.28246-1.9138 0.36245-5.8333 1.0838-6.5871 1.3242-1.3837 2.2196 1.183 1.5215 4.3615-0.58505 2.6637-2.3217 4.1473-2.6053 2.2256zm-117.89-5.9682c0-0.61502-0.27314-1.83-0.60698-2.7-0.33443-0.87151-0.0958-1.5818 0.53138-1.5818 1.6803 0 2.5179 2.9577 1.2084 4.2672-0.82634 0.82633-1.1328 0.83028-1.1328 0.0146zm122.47-0.59901c-0.4079-1.0113-0.23798-2.3122 0.38317-2.9333 1.6463-1.6463 2.3259-0.38692 1.2711 2.3554-0.82867 2.1543-0.99503 2.2124-1.6543 0.57796zm-108.88-3.5408c-0.78935-1.2772 0.32273-6.142 1.404-6.142 0.42622 0 1.039 1.0098 1.3618 2.2441 0.64633 2.4716-1.6486 5.7057-2.7658 3.8979zm94.612-0.4016c-1.1597-1.3974-0.54781-5.7404 0.80875-5.7404 1.2037 0 2.2122 5.1796 1.2048 6.187-0.53031 0.53031-1.3544 0.3475-2.0135-0.44668zm-101.2-3.2404c0-1.5556 0.56667-2.5 1.5-2.5 1.614 0 1.8532 0.91589 0.89301 3.4182-0.9342 2.4345-2.393 1.8747-2.393-0.91821zm107.61 0.91821c-0.96023-2.5023-0.72095-3.4182 0.89301-3.4182 0.93333 0 1.5 0.94444 1.5 2.5 0 2.793-1.4588 3.3527-2.393 0.91821zm-130.53-0.83488c-0.04342-1.0542 0.19293-1.6448 0.52522-1.3125 0.33229 0.33229 0.36782 1.1948 0.07895 1.9167-0.31923 0.79773-0.55618 0.56078-0.60417-0.60417zm155 0c-0.0434-1.0542 0.19292-1.6448 0.52522-1.3125 0.33229 0.33229 0.36781 1.1948 0.0789 1.9167-0.31922 0.79773-0.55618 0.56078-0.60416-0.60417zm-138.06-3.8333c9e-3 -2.5492 0.33868-3.7405 0.82339-2.9767 0.76052 1.1983 0.3833 7.2267-0.4522 7.2267-0.21258 0-0.37961-1.9125-0.37119-4.25zm20.064 2.8333c-0.0434-1.0542 0.19292-1.6448 0.52522-1.3125 0.33229 0.33229 0.36781 1.1948 0.0789 1.9167-0.31922 0.79773-0.55618 0.56078-0.60416-0.60417zm81 0c-0.0434-1.0542 0.19292-1.6448 0.52522-1.3125 0.33229 0.33229 0.36781 1.1948 0.0789 1.9167-0.31922 0.79773-0.55618 0.56078-0.60416-0.60417zm19.711-1.5601c-0.24029-1.6372-0.0733-3.5497 0.37118-4.25 0.48471-0.76373 0.81421 0.42749 0.8234 2.9767 0.0178 4.9358-0.56575 5.5578-1.1946 1.2733zm-61.325-0.97478c-1.1191-0.45362-2.6367-1.5501-3.3724-2.4366-1.8904-2.2778-8.6694-2.1293-10.693 0.23422-1.5367 1.7948-1.6813 1.7948-5.2017 0-3.9488-2.0132-7.7382-2.3993-8.6748-0.88379-1.1211 1.814-5.2952-1.0717-5.8961-4.0762-0.31747-1.5873-1.0688-2.8861-1.6696-2.8861-0.6303 0-0.82894 0.83003-0.4696 1.9622 0.34253 1.0792 0.11205 2.9166-0.5122 4.083-1.083 2.0236-1.223 2.0411-3.0554 0.38279-1.0562-0.95588-1.9273-1.3307-1.9357-0.83297-8e-3 0.49775-0.43467 0.24187-0.94722-0.56862-0.6146-0.97187-0.52427-1.7327 0.26532-2.2347 0.92865-0.59036 0.92795-0.76452-3e-3 -0.7764-0.66017-8e-3 -1.6358 0.76282-2.168 1.7139-0.91369 1.6327-1.0782 1.6291-2.9485-0.0634-1.5026-1.3598-2.9404-1.6494-5.9557-1.1997l-3.9749 0.59286-0.58959-5.7795c-0.32437-3.1787-0.77751-7.8045-1.0071-10.279s-1.1113-6.1593-1.9595-8.1873c-0.84814-2.028-1.3219-4.5294-1.0527-5.5586 0.37287-1.4258-0.53811-2.3731-3.8272-3.9796-2.3741-1.1596-5.6666-2.3599-7.3166-2.6674-1.65-0.30746-4.125-0.80409-5.5-1.1036-2.16-0.47053-2.228-0.41536-0.5 0.40564 1.4814 0.70385 1.593 0.96846 0.43034 1.0205-3.506 0.15699-11.525-12.826-8.9178-14.437 0.45361-0.28035 1.1274 0.86804 1.4972 2.552 0.37141 1.691 1.1913 2.8774 1.8314 2.6499 1.6553-0.58815 0.92158-6.9625-0.96426-8.3776-0.86741-0.6509-1.2831-1.6592-0.92366-2.2408 0.36569-0.59171-0.93732-1.8159-2.959-2.7799-2.7925-1.3317-3.7859-1.4419-4.3769-0.48561-0.56718 0.91771-1.2373 0.71467-2.5959-0.78661-3.2403-3.5805-4.657-2.6014-4.3219 2.9872 0.21485 3.5829 0.66627 4.8705 1.5841 4.5185 0.73031-0.2801 2.6701 1.5105 4.5 4.154 1.769 2.5555 4.4539 5.9377 5.9664 7.516s2.75 3.2664 2.75 3.7512-1.8025 2.3091-4.0056 4.054l-4.0056 3.1725-4.7444-3.9844c-7.082-5.9475-14.244-13.831-14.244-15.679 0-0.89715 0.41891-1.3723 0.9309-1.0559 0.512 0.31644 1.1943 0.14909 1.5163-0.37188 0.32198-0.52097 0.12073-1.2344-0.44721-1.5854s-0.79294-1.026-0.5-1.5 0.05343-1.158-0.53225-1.5199c-0.73836-0.45633-0.69967-1.0982 0.12619-2.0933 0.65508-0.78933 0.90036-1.7258 0.54505-2.0812-0.3553-0.3553 0.04094-1.6944 0.88055-2.9758 1.8918-2.8872 0.66106-2.959-3.9624-0.23105-3.8061 2.2457-4.1229 3.1876-2.5513 7.5861 0.95341 2.6684 0.92508 2.7109-0.54343 0.8151-0.85209-1.1-1.8035-3.0125-2.1142-4.25-0.31074-1.2375-1.1912-2.25-1.9566-2.25s-1.3916-0.84375-1.3916-1.875c0-3.5053 1.2465-8.125 2.1924-8.125 0.51831 0 0.65758 1.0125 0.30949 2.25-0.44102 1.5678-0.34771 1.8386 0.30777 0.89299 0.61246-0.88354 1.7331-1.1055 3.2119-0.63615 1.9387 0.61531 2.1932 0.42229 1.738-1.3182-0.40454-1.547-0.15664-1.8945 1.0272-1.4402 1.1496 0.44113 1.3913 0.15814 0.9182-1.0748-0.42081-1.0966-0.13591-1.6736 0.82639-1.6736 0.80774 0 1.4755 0.7875 1.4839 1.75 0.0084 0.9625 0.4879 2.425 1.0655 3.25 0.82212 1.1742 0.91274 1.0114 0.4173-0.75-0.47522-1.6895-0.21577-2.25 1.0415-2.25 0.92276 0 1.464-0.56112 1.2058-1.25-0.25773-0.6875-0.13044-2.15 0.28288-3.25 0.69172-1.841 0.84033-1.7746 1.8688 0.83392 0.61451 1.5586 0.92247 3.1491 0.68436 3.5344-0.23811 0.38526 0.68096 1.585 2.0424 2.6661 1.3614 1.0811 4.1139 3.3156 6.1166 4.9656 2.5171 2.0738 3.4377 2.4597 2.9819 1.25-0.74094-1.9661 0.31241-2.3153 1.9735-0.65426 2.5454 2.5454 22.084 1.9428 21.65-0.66769-0.085-0.51043 0.36502-1.2521 1-1.6481 0.67667-0.42205-0.19063-0.99114-2.0955-1.375-5.7073-1.1501-3.487-2.4074 3.5-1.982 5.3938 0.3284 7.1518 0.061 8.75-1.3309 1.7755-1.5463 4.2693-2.4877 12.25-4.6244 1.6833-0.45068 2.25-0.1768 2.25 1.0874 0 1.3887 0.26731 1.468 1.5 0.44494 0.825-0.68469 1.5-2.0595 1.5-3.0551 0-0.99559 0.91199-2.0996 2.0266-2.4534 1.1146-0.35377 2.7068-1.6813 3.5381-2.95 0.8313-1.2687 2.7888-2.5622 4.35-2.8745 4.7722-0.95444 8.7011-7.0572 9.3578-14.535 0.51106-5.8195 0.2464-7.0478-3.0705-14.25-2.4416-5.3017-4.183-7.8816-5.32-7.8816-1.462 0-16.882-14.519-16.882-15.895 0-0.27772 0.54 0.035 1.2 0.69505 0.66 0.66 1.8975 1.1811 2.75 1.1581 0.8525-0.023 9e-3 -0.86258-1.8739-1.8656-3.898-2.0762-11.085-2.1597-13.498-0.1569-0.98223 0.81517-4.8769 1.3887-10.327 1.5207-10.355 0.25086-13.53 1.6071-18.791 8.0282-2.0351 2.4835-4.4675 4.5155-5.4053 4.5155s-2.7847 1.149-4.104 2.5533c-2.1679 2.3077-2.5142 2.3954-3.5988 0.91214-0.66004-0.90266-2.0216-1.4788-3.0256-1.2802-1.5233 0.3012-1.8255 1.3498-1.8255 6.3346 0 5.2162-0.24266 5.974-1.9139 5.9769-1.0527 2e-3 -2.1254 0.63403-2.3839 1.4049-0.3332 0.99373 0.12063 1.2472 1.5594 0.87095 1.803-0.4715 1.9405-0.22081 1.2327 2.2472-0.43818 1.5278-0.39668 3.1779 0.09221 3.6668 0.51853 0.51853 0.05503 2.4447-1.1124 4.6229-1.3301 2.4816-1.7817 4.609-1.3466 6.3427 1.1858 4.7246-1.7237 2.1099-4.0264-3.6184-2.4199-6.02-5.2958-8.2864-4.3366-3.4177 1.747 8.8678 1.9375 10.844 0.95239 9.8839-1.1357-1.1074-4.217-17.988-4.217-23.103 0-1.7878 0.5625-3.4439 1.25-3.6803s0.4625-0.31152-0.5-0.16695c-1.3323 0.20013-1.75-0.44488-1.75-2.7025 0-1.9564 0.38596-2.7269 1.1343-2.2643 0.7858 0.48565 0.99265-0.26439 0.67319-2.441-0.37344-2.5444-0.11366-3.142 1.3657-3.142 2.8881 0 2.1268-2.6996-1.1732-4.1603-1.65-0.73036-3-1.9196-3-2.6428s0.45084-1.0363 1.0019-0.69571c0.55103 0.34055 1.4399-0.53289 1.9752-1.941 0.53536-1.4081 1.1806-2.5602 1.4339-2.5602 0.2533 0 2.5144 1.8692 5.0248 4.1538 3.3769 3.0733 4.5642 4.8942 4.5642 7 0 1.8633 0.51801 2.8462 1.5 2.8462 0.93333 0 1.5-0.94444 1.5-2.5 0-3.1644 2.5108-3.3082 5.6855-0.32569 2.6686 2.5071 3.2978 0.56978 0.73475-2.2624-1.2211-1.3492-1.3346-2.2036-0.5-3.763 0.59384-1.1096 1.0797-2.9694 1.0797-4.1328s0.62052-3.3306 1.3789-4.8157c2.1315-4.174 2.6461-11.477 1.1519-16.345-1.5427-5.0261-9.1326-20.57-11.231-23.001-1.3085-1.5158-1.7746-1.4479-5.9047 0.86048l-4.4841 2.5062 0.64276 4.6395c0.48488 3.4999 1.417 5.3119 3.7947 7.3769 2.5059 2.1763 2.8659 2.9243 1.7562 3.6491-1.5428 1.0077-0.71522 4.6091 0.83848 3.6489 1.6487-1.0189 3.1513 3.087 2.1212 5.7963-0.51496 1.3545-0.69878 2.7002-0.40848 2.9905 0.2903 0.29031 0.05025 1.3491-0.53344 2.3528-1.0183 1.7511-1.0625 1.7517-1.0917 0.016-0.01673-0.99498-0.48041-1.5309-1.0304-1.191s-1 1.2986-1 2.1304c0 0.83182-0.75636 2.2678-1.6808 3.191-1.5738 1.5717-1.6445 1.5394-1.1105-0.50685 0.37141-1.4232 0.04688-2.3863-0.93053-2.7613-0.96448-0.37011-1.3221-0.11019-1.0007 0.72731 0.27505 0.71678-0.14261 2.1822-0.92814 3.2565-1.1527 1.5764-1.592 1.6883-2.277 0.57999-0.47144-0.76279-1.4541-1.0602-2.2105-0.66894-0.74899 0.38737-0.4618-0.11748 0.6382-1.1219 1.9796-1.8076 2.9292-6.3262 1.3294-6.3262-0.45617 0-0.8294 0.675-0.8294 1.5s-0.48032 1.5-1.0674 1.5c-1.4112 0-0.16173-4.1583 1.6906-5.6265 1.0949-0.86785 1.1851-1.7475 0.39287-3.8313-1.2709-3.3426-3.5839-2.7748-3.3278 0.81698 0.10354 1.4524-0.28893 2.6408-0.87217 2.6408-0.72778 0-0.89497-5.725-0.53297-18.25 0.69803-24.152 2.2363-29.689 12.569-45.248 6.1797-9.3053 24.067-26.889 33.063-32.502 3.9669-2.475 9.7712-6.4511 12.899-8.8357 7.3213-5.5827 10.434-7.1255 23.186-11.492 16.135-5.5254 25.947-7.0661 45-7.0661s28.865 1.5407 45 7.0661c12.752 4.3669 15.865 5.9097 23.186 11.492 3.1273 2.3847 8.9317 6.3607 12.899 8.8357 8.9962 5.6129 26.883 23.196 33.063 32.502 10.333 15.559 11.871 21.097 12.569 45.248 0.362 12.525 0.19481 18.25-0.53297 18.25-0.58324 0-0.97572-1.1884-0.87217-2.6408 0.25606-3.5918-2.0569-4.1596-3.3278-0.81698-0.79225 2.0838-0.70205 2.9634 0.39287 3.8313 1.8523 1.4682 3.1018 5.6265 1.6906 5.6265-0.58707 0-1.0674-0.675-1.0674-1.5s-0.37323-1.5-0.8294-1.5c-1.5998 0-0.65025 4.5186 1.3294 6.3262 1.1 1.0044 1.3872 1.5092 0.6382 1.1219-0.75645-0.39122-1.7391-0.0939-2.2105 0.66894-0.68496 1.1083-1.1243 0.99638-2.277-0.57999-0.78553-1.0743-1.2032-2.5397-0.92815-3.2565 0.32138-0.8375-0.0362-1.0974-1.0007-0.72731-0.97741 0.37507-1.3019 1.3381-0.93053 2.7613 0.53399 2.0463 0.4633 2.0786-1.1105 0.50685-0.92444-0.92322-1.6808-2.3592-1.6808-3.191 0-0.83183-0.45-1.7905-1-2.1304s-1.0137 0.19602-1.0304 1.191c-0.0292 1.7358-0.0734 1.7351-1.0917-0.016-0.58369-1.0038-0.82374-2.0625-0.53344-2.3528 0.2903-0.2903 0.10649-1.636-0.40848-2.9905-1.0301-2.7093 0.47254-6.8153 2.1212-5.7963 1.5537 0.96025 2.3813-2.6412 0.83848-3.6489-1.1096-0.72479-0.74964-1.4728 1.7562-3.6491 2.3778-2.065 3.3098-3.877 3.7947-7.3769l0.64275-4.6395-4.4841-2.5062c-4.1302-2.3084-4.5962-2.3763-5.9047-0.86048-2.0988 2.4313-9.6887 17.975-11.231 23.001-1.4942 4.8682-0.97956 12.171 1.1519 16.345 0.75841 1.4852 1.3789 3.6523 1.3789 4.8157s0.48587 3.0232 1.0797 4.1328c0.83458 1.5594 0.72106 2.4138-0.5 3.763-2.5631 2.8322-1.9339 4.7694 0.73475 2.2624 3.1747-2.9825 5.6856-2.8386 5.6856 0.32571 0 1.5556 0.56667 2.5 1.5 2.5 0.98199 0 1.5-0.98291 1.5-2.8462 0-2.1058 1.1873-3.9267 4.5642-7 2.5103-2.2846 4.7714-4.1538 5.0248-4.1538s0.89856 1.1521 1.4339 2.5602c0.53536 1.4081 1.4242 2.2815 1.9752 1.941 0.55103-0.34056 1.0019-0.0275 1.0019 0.69571 0 0.7232-1.35 1.9125-3 2.6428-3.3 1.4607-4.0613 4.1603-1.1732 4.1603 1.4793 0 1.7391 0.59767 1.3656 3.142-0.31946 2.1766-0.1126 2.9266 0.67319 2.441 0.74839-0.46253 1.1344 0.30791 1.1344 2.2643 0 2.2577-0.41767 2.9027-1.75 2.7025-0.9625-0.14457-1.1875-0.0694-0.5 0.16695 0.6875 0.23639 1.25 1.8925 1.25 3.6803 0 5.1448-3.0845 22-4.2279 23.103-0.71076 0.6857-0.86412 0.0571-0.48794-2 0.30173-1.65 0.87216-4.7453 1.2676-6.8785 1.0665-5.7527-1.4609-4.2847-4.1529 2.4122-2.3027 5.7283-5.2122 8.343-4.0264 3.6184 0.43513-1.7337-0.0165-3.861-1.3466-6.3427-1.1674-2.1782-1.6309-4.1044-1.1124-4.6229 0.48889-0.48889 0.53039-2.1389 0.0922-3.6668-0.70781-2.468-0.57029-2.7187 1.2327-2.2472 1.4388 0.37625 1.8926 0.12278 1.5594-0.87095-0.25848-0.7709-1.3312-1.4031-2.3839-1.4049-1.6712-3e-3 -1.9139-0.76067-1.9139-5.9769 0-4.9848-0.30218-6.0334-1.8255-6.3346-1.004-0.19853-2.3655 0.37758-3.0256 1.2802-1.0846 1.4833-1.4309 1.3955-3.5988-0.91214-1.3193-1.4043-3.1661-2.5533-4.1039-2.5533-0.93788 0-3.3703-2.032-5.4054-4.5155-5.2616-6.4211-8.436-7.7773-18.791-8.0282-5.4503-0.13204-9.3451-0.70555-10.327-1.5207-2.4133-2.0028-9.6004-1.9193-13.498 0.1569-1.8832 1.003-2.7264 1.8426-1.8739 1.8656 0.8525 0.0231 2.09-0.49808 2.75-1.1581s1.2-0.97277 1.2-0.69505c0 1.3765-15.42 15.895-16.882 15.895-1.137 0-2.8784 2.5799-5.32 7.8816-3.3169 7.2022-3.5816 8.4305-3.0705 14.25 0.65674 7.4783 4.5856 13.581 9.3578 14.535 1.5612 0.31224 3.5187 1.6058 4.35 2.8745 0.8313 1.2687 2.4234 2.5962 3.5381 2.95 1.1146 0.35378 2.0266 1.4578 2.0266 2.4534 0 0.9956 0.675 2.3704 1.5 3.0551 1.2327 1.023 1.5 0.94375 1.5-0.44494 0-1.2642 0.56667-1.5381 2.25-1.0874 7.9807 2.1367 10.475 3.0781 12.25 4.6244 1.5982 1.3919 3.3562 1.6593 8.75 1.3309 6.987-0.42541 9.2073 0.83192 3.5 1.982-1.9049 0.38386-2.7722 0.95295-2.0955 1.375 0.63498 0.39604 1.085 1.1377 1 1.6481-0.43462 2.6105 19.104 3.2131 21.65 0.66769 1.6611-1.6611 2.7144-1.3119 1.9735 0.65426-0.45587 1.2097 0.46477 0.82375 2.9819-1.25 2.0028-1.65 4.7552-3.8845 6.1166-4.9656s2.2805-2.2808 2.0424-2.6661c-0.2381-0.38527 0.0699-1.9758 0.68437-3.5344 1.0284-2.6086 1.177-2.6749 1.8688-0.83392 0.41331 1.1 0.54061 2.5625 0.28288 3.25-0.25825 0.68888 0.28301 1.25 1.2058 1.25 1.2572 0 1.5167 0.56053 1.0415 2.25-0.49544 1.7614-0.40481 1.9242 0.4173 0.75 0.57761-0.825 1.0571-2.2875 1.0655-3.25 8e-3 -0.9625 0.67619-1.75 1.4839-1.75 0.9623 0 1.2472 0.57699 0.82639 1.6736-0.47313 1.233-0.23138 1.516 0.9182 1.0748 1.1838-0.45429 1.4317-0.10671 1.0272 1.4402-0.45514 1.7405-0.20063 1.9335 1.738 1.3182 1.4788-0.46935 2.5995-0.24739 3.2119 0.63615 0.65548 0.94559 0.74878 0.67486 0.30777-0.89299-0.34809-1.2375-0.20882-2.25 0.30949-2.25 0.94584 0 2.1924 4.6197 2.1924 8.125 0 1.0312-0.62622 1.875-1.3916 1.875-0.76538 0-1.6458 1.0125-1.9566 2.25s-1.2622 3.15-2.1142 4.25c-1.4685 1.8958-1.4968 1.8533-0.54343-0.8151 1.5716-4.3985 1.2548-5.3404-2.5513-7.5861-4.6234-2.7279-5.8541-2.6561-3.9624 0.23105 0.83961 1.2814 1.2359 2.6205 0.88056 2.9758-0.35531 0.3553-0.11003 1.2918 0.54505 2.0812 0.82586 0.99509 0.86455 1.6369 0.12619 2.0933-0.58568 0.36197-0.82519 1.0459-0.53225 1.5199s0.0679 1.149-0.5 1.5c-0.56794 0.35101-0.76919 1.0644-0.44721 1.5854 0.32197 0.52097 1.0043 0.68832 1.5163 0.37188 0.51199-0.31643 0.9309 0.15871 0.9309 1.0559 0 1.848-7.1624 9.7319-14.244 15.679l-4.7444 3.9844-4.0056-3.1725c-2.2031-1.7449-4.0056-3.5692-4.0056-4.054s1.2375-2.1729 2.75-3.7512 4.1974-4.9605 5.9664-7.516c1.8299-2.6434 3.7697-4.4341 4.5-4.154 0.91783 0.35201 1.3692-0.93562 1.5841-4.5185 0.33512-5.5885-1.0815-6.5677-4.3219-2.9872-1.3586 1.5013-2.0287 1.7043-2.5959 0.78661-0.591-0.95627-1.5844-0.84605-4.3769 0.48561-2.0216 0.96405-3.3246 2.1882-2.959 2.7799 0.3594 0.58151-0.0563 1.5898-0.92366 2.2408-1.8858 1.4151-2.6195 7.7895-0.96426 8.3776 0.64008 0.22743 1.46-0.95891 1.8314-2.6499 0.36986-1.6839 1.0436-2.8323 1.4972-2.552 2.6075 1.6116-5.4118 14.594-8.9178 14.437-1.1627-0.0521-1.0511-0.31667 0.43034-1.0205 1.728-0.821 1.66-0.87617-0.5-0.40564-1.375 0.29953-3.85 0.79616-5.5 1.1036-1.65 0.30747-4.9424 1.5078-7.3166 2.6674-3.2891 1.6065-4.2001 2.5538-3.8272 3.9796 0.26914 1.0292-0.20459 3.5305-1.0527 5.5586-0.84814 2.028-1.7299 5.7123-1.9595 8.1873-0.22957 2.475-0.6827 7.1008-1.007 10.279l-0.58959 5.7795-3.9749-0.59286c-3.0153-0.44973-4.4531-0.16009-5.9557 1.1997-1.8702 1.6925-2.0348 1.6961-2.9485 0.0634-0.53223-0.95106-1.5078-1.7223-2.168-1.7139-0.93105 0.0119-0.93175 0.18604-3e-3 0.7764 0.78959 0.50194 0.87992 1.2628 0.26532 2.2347-0.51255 0.81049-0.9388 1.0664-0.94722 0.56862-8e-3 -0.49774-0.8795-0.12291-1.9357 0.83297-1.8324 1.6583-1.9724 1.6408-3.0554-0.38279-0.62425-1.1664-0.85473-3.0037-0.5122-4.083 0.35934-1.1322 0.1607-1.9622-0.4696-1.9622-0.60082 0-1.3521 1.2987-1.6696 2.8861-0.60091 3.0045-4.775 5.8902-5.8961 4.0762-0.93661-1.5155-4.726-1.1294-8.6748 0.88379-3.5204 1.7948-3.6649 1.7948-5.2017 0-2.3966-2.799-8.6473-2.4586-12.006 0.65392-1.4836 1.375-2.7869 2.4715-2.896 2.4366-0.10916-0.0349-1.1141-0.43452-2.2332-0.88813zm-40.756-10.423c-0.50863-1.5278-3.6866-2.0478-4.928-0.80634-0.55365 0.55365-0.7416 1.4355-0.41764 1.9597 0.81375 1.3167 5.8092 0.23893 5.3457-1.1533zm89.597-0.71921c-1.3305-1.3305-4.4932-0.84853-5.031 0.76668-0.21477 0.64509 0.64794 1.3431 1.9171 1.551 2.8838 0.47256 4.6153-0.81627 3.1138-2.3177zm-96.306-9.9062c0-0.55-0.45-1-1-1s-1 0.45-1 1 0.45 1 1 1 1-0.45 1-1zm13.823-7.5023c-0.17791-4.6763 0.014-8.5013 0.42653-8.5 1.1955 4e-3 0.86821-2.7298-0.5-4.1762-0.75113-0.79406-1.2568-4.1151-1.267-8.3214-0.0295-12.147-6.5473-20.219-13.277-16.442-3.4258 1.9229-5.7581 6.0624-4.8091 8.5356 0.80956 2.1097 0.59889 2.8105-0.89738 2.9854-0.55 0.0643-1.5664 0.18538-2.2587 0.26916-1.658 0.20062-0.51559 10.747 1.5011 13.858 0.78653 1.2133 1.1688 2.6287 0.8496 3.1452-0.31925 0.51655 0.092 1.1972 0.9138 1.5126 0.82184 0.31537 1.4943 1.15 1.4943 1.8548 5e-5 2.1956 6.6825 6.7814 9.8818 6.7814 2.5079 0 3.1923 0.56303 4.2543 3.5 0.69609 1.925 1.8833 3.5 2.6382 3.5 1.0812 0 1.3039-1.805 1.0491-8.5023zm-15.553-22.102c0.3323-0.33229 1.1948-0.36781 1.9167-0.0789 0.79773 0.31922 0.56078 0.55618-0.60417 0.60416-1.0542 0.0434-1.6448-0.19293-1.3125-0.52522zm89.593 27.104c1.062-2.937 1.7464-3.5 4.2543-3.5 3.1993 0 9.8818-4.5858 9.8818-6.7814 2e-5 -0.70477 0.67245-1.5394 1.4943-1.8548s1.233-0.99604 0.9138-1.5126c-0.31925-0.51656 0.0631-1.9319 0.8496-3.1452 0.78653-1.2133 1.7292-4.7935 2.0949-7.956 0.68018-5.8823 0.67726-5.8876-3.3526-6.1536-0.825-0.0545-1.4166-0.32341-1.3146-0.59769 0.102-0.27427 0.51472-1.3568 0.91717-2.4055 0.94903-2.4732-1.3833-6.6127-4.8091-8.5356-6.7292-3.777-13.247 4.2951-13.277 16.442-0.0102 4.2063-0.51587 7.5274-1.267 8.3214-1.3682 1.4464-1.6955 4.18-0.5 4.1762 0.4125-1e-3 0.60444 3.8237 0.42653 8.5-0.2548 6.6973-0.0321 8.5023 1.0491 8.5023 0.75492 0 1.9421-1.575 2.6382-3.5zm9.407-27.104c0.33229-0.33229 1.1948-0.36781 1.9167-0.0789 0.79773 0.31922 0.56078 0.55618-0.60417 0.60416-1.0542 0.0434-1.6448-0.19293-1.3125-0.52522zm2.7292 29.604c0-0.55-0.45-1-1-1s-1 0.45-1 1 0.45 1 1 1 1-0.45 1-1zm-106-7c0-0.55-0.7875-0.99311-1.75-0.98469-1.4955 0.0131-1.5319 0.15626-0.25 0.98469 1.8872 1.2196 2 1.2196 2 0zm113-0.60699c0-0.21615-0.675-0.39301-1.5-0.39301s-1.5 0.43588-1.5 0.96862c0 0.53273 0.675 0.70959 1.5 0.39301 0.825-0.31659 1.5-0.75246 1.5-0.96862zm-51.149-0.49084c1.7459-0.6086 3.1844-1.8341 3.2282-2.75 0.0564-1.1808 0.23202-1.268 0.61547-0.30574 0.38965 0.97781 1.3183 0.56715 3.3921-1.5 1.5706-1.5655 3.6561-3.6017 4.6345-4.5248 3.9904-3.7647 4.4032-5.0366 4.9882-15.368 0.55862-9.8645 0.48403-10.465-1.2179-9.8124-1.5383 0.59031-1.7065 0.32932-1.1103-1.723 1.7114-5.8915 1.7639-14.093 0.11251-17.573-3.4602-7.2918 0.84846-8.7198 4.8139-1.5953 1.4541 2.6125 2.6548 3.9625 2.6682 3 0.0283-2.0374 1.1236-2.2507 2.8243-0.55 0.93333 0.93333 1.2 0.82735 1.2-0.47695 0-0.92232-1.1434-2.4262-2.541-3.3419-5.8944-3.8622-9.8305-15.409-9.4231-27.643 0.346-10.391 0.27169-10.738-2.2977-10.738-1.8132 0-2.8842 1.3325-5.4004 6.719-3.1182 6.6754-3.1262 6.7346-1.2382 9.1349 1.0452 1.3287 1.9004 3.0484 1.9004 3.8215s0.97592 2.7256 2.1687 4.339c1.9501 2.6377 2.0459 3.3139 0.9504 6.7095-0.67007 2.0769-1.0584 6.822-0.86297 10.545 0.36368 6.9272-0.6357 8.3005-2.8449 3.9093-1.5118-3.0049-4.5039-6.1779-5.8257-6.1779-0.60746 0-1.6665-0.9-2.3535-2-0.91789-1.4698-2.332-2-5.3342-2-3.2442 0-4.1928 0.41174-4.6082 2-0.28766 1.1-1.3008 2-2.2514 2-1.8698 0-4.7103 2.7208-6.4496 6.1779-2.2092 4.3912-3.2086 3.0179-2.8449-3.9093 0.19543-3.7227-0.1929-8.4679-0.86297-10.545-1.0955-3.3956-0.99972-4.0718 0.9504-6.7095 1.1928-1.6133 2.1687-3.5659 2.1687-4.339s0.85516-2.4928 1.9004-3.8215c1.888-2.4002 1.88-2.4594-1.2382-9.1349-2.5161-5.3864-3.5871-6.719-5.4004-6.719-2.5694 0-2.6437 0.34732-2.2977 10.738 0.40737 12.234-3.5287 23.781-9.4231 27.643-1.3975 0.9157-2.541 2.4195-2.541 3.3419 0 1.3043 0.26667 1.4103 1.2 0.47695 1.7007-1.7007 2.796-1.4874 2.8243 0.55 0.0134 0.9625 1.214-0.3875 2.6682-3 3.9654-7.1244 8.2741-5.6965 4.8139 1.5953-1.6514 3.4801-1.5989 11.682 0.11251 17.573 0.59617 2.0523 0.42798 2.3133-1.1103 1.723-1.7019-0.65308-1.7765-0.0522-1.2179 9.8124 0.58505 10.331 0.99789 11.603 4.9882 15.368 0.97841 0.92307 3.0639 2.9592 4.6345 4.5248 2.0738 2.0672 3.0025 2.4778 3.3921 1.5 0.38085-0.95576 0.55943-0.86284 0.61547 0.32024 0.15555 3.2838 10.543 4.9621 16.93 2.7355zm-76.851-19.304c0-1.8599-6.0127-3.9851-7.3869-2.611-0.68417 0.68417-0.37997 1.0235 0.93687 1.0449 1.0725 0.0175 2.8235 0.6925 3.8911 1.5 2.3929 1.8099 2.5589 1.8142 2.5589 0.066zm146.66-1.5978c1.1718 0 1.4062-0.32896 0.72205-1.0131-1.4207-1.4207-7.3869 0.78101-7.3869 2.726 0 1.3298 0.30445 1.3177 2.4648-0.0978 1.3556-0.88826 3.2456-1.615 4.2-1.615zm-146.67-9.0127c-0.91523-1.7101-1.4058-1.8368-3.2629-0.84296-2.1314 1.1407-2.1365 1.189-0.20801 1.9424 3.6583 1.4293 4.6552 1.1135 3.4709-1.0995zm143.48 1.0995c1.9285-0.75346 1.9233-0.80177-0.20802-1.9424-1.8571-0.99389-2.3476-0.86716-3.2629 0.84296-1.1843 2.213-0.18741 2.5287 3.4709 1.0995zm-175.69-14.282c-1.6945-2.5521-3.7864-3.518-3.7864-1.7484 0 1.283 2.8771 3.8572 4.372 3.9118 0.47958 0.0175 0.21607-0.95604-0.58558-2.1634zm206.46 0.80314c1.9581-1.4864 2.3907-3.9882 0.58558-3.3865-1.4751 0.49171-4.3793 4.7895-3.2076 4.7467 0.47958-0.0175 1.6595-0.6296 2.622-1.3602zm-218.85-37.867c0.69241-0.69241 1.0728-1.8174 0.84524-2.5-0.47457-1.4237-4.247-1.7105-4.247-0.32286 0 0.50502-0.27314 1.63-0.60699 2.5-0.7455 1.9428 2.1553 2.1764 4.0088 0.32286zm233.21-0.32286c-0.33385-0.86998-0.60699-1.995-0.60699-2.5 0-1.3803-3.7712-1.1046-4.2428 0.31014-0.56422 1.6926 1.3594 3.6877 3.5998 3.7336 1.2892 0.0264 1.6714-0.44561 1.25-1.5438zm-236.61-18.977c0-0.24254-0.45-0.44098-1-0.44098s-1 0.47656-1 1.059 0.45 0.7809 1 0.44098 1-0.81648 1-1.059zm238 0.55902c0-0.55-0.47656-1-1.059-1s-0.7809 0.45-0.44098 1 0.81648 1 1.059 1 0.44098-0.45 0.44098-1zm-198.78-27c4.4573-3.0315 5.0824-4.9077 2.6401-7.9238-2.0142-2.4874-5.4921-2.1642-4.5011 0.41827 0.67303 1.7539-3.4175 8.5594-4.8595 8.0847-0.55-0.18104-0.87773-0.86472-0.72829-1.5193 0.43799-1.9184-3.5605-6.808-6.9501-8.499-3.691-1.8413-3.8216-1.8605-3.8216-0.56091 0 0.55 0.59081 1 1.3129 1 1.8691 0 7.0563 5.6538 5.8635 6.391-1.0591 0.65457 0.73929 5.5871 2.0422 5.6012 0.39524 4e-3 0.42174 0.78144 0.0589 1.727-0.71067 1.852-0.74725 1.8713 8.943-4.7192zm166.42 4.5c-0.31658-0.825-0.25222-1.5035 0.14301-1.5078 1.3029-0.0142 3.1013-4.9466 2.0422-5.6012-1.1928-0.73718 3.9944-6.391 5.8635-6.391 0.7221 0 1.3129-0.45 1.3129-1 0-1.2996-0.13059-1.2804-3.8216 0.56091-3.3896 1.691-7.3881 6.5805-6.9501 8.499 0.14944 0.65458-0.17829 1.3383-0.72829 1.5193-1.442 0.47464-5.5325-6.3308-4.8595-8.0847 0.99099-2.5825-2.4869-2.9057-4.5011-0.41827-2.649 3.2714-1.7974 4.8726 5.1453 9.6738 6.8533 4.7394 7.1696 4.8763 6.3537 2.75zm-206.64-15.5c0-0.55-0.70156-1-1.559-1s-1.2809 0.45-0.94098 1 1.0415 1 1.559 1 0.94098-0.45 0.94098-1zm34.823-1.3294c0.225-1.1601-0.15332-1.481-1.25-1.0601-1.8486 0.70939-2.1613 3.7522-0.32265 3.14 0.6875-0.22891 1.3952-1.1648 1.5726-2.0798zm171.18 0.93635c0-0.76616-0.675-1.652-1.5-1.9686-1.5036-0.57696-2.118 1.4103-0.83333 2.695 1.1212 1.1212 2.3333 0.7439 2.3333-0.72634zm34.5 0.39301c0.33992-0.55-0.0835-1-0.94098-1-0.85746 0-1.559 0.45-1.559 1s0.42344 1 0.94098 1 1.2191-0.45 1.559-1zm-243.5-3c0-0.55-0.47656-1-1.059-1s-0.7809 0.45-0.44098 1 0.81648 1 1.059 1 0.44098-0.45 0.44098-1zm246-0.55902c0-0.24254-0.45-0.44098-1-0.44098s-1 0.47656-1 1.059 0.45 0.7809 1 0.44098 1-0.81648 1-1.059zm-221.41-3.1859c-1.0924-1.0924-1.8415 0.64486-1.0572 2.4518 0.74368 1.7134 0.79759 1.7118 1.2119-0.0351 0.2385-1.0056 0.16886-2.093-0.15476-2.4167zm196.41 1.1859c0-0.79254-0.45-1.441-1-1.441s-1 0.92656-1 2.059 0.45 1.7809 1 1.441 1-1.2665 1-2.059zm-192.5-41.448c-0.34232-0.55388 0.08112-1.277 0.94098-1.607 0.85986-0.32996 1.5634-1.3618 1.5634-2.2929 0-0.93116 0.51799-2.211 1.1511-2.8441 0.6331-0.6331 1.2444-2.688 1.3584-4.5665s0.47918-3.8552 0.81142-4.3928c0.33223-0.53756 0.13259-2.6849-0.44365-4.7719-0.81187-2.9403-0.75367-3.9762 0.25853-4.6018 0.71843-0.44401 0.92016-1.1693 0.44829-1.6117-0.47187-0.4424-1.0615-0.23384-1.3103 0.46348-0.24881 0.69732-1.0872 1.9027-1.8631 2.6786-0.77589 0.77589-1.4107 1.8776-1.4107 2.4482 0 0.57063-0.6274 2.5153-1.3942 4.3214-1.7947 4.2273-3.875 15.539-3.0909 16.808 0.33175 0.53678 1.2782 0.97597 2.1032 0.97597s1.2199-0.45318 0.8776-1.0071zm189.9-2.0204c-0.31515-7.238-3.6333-19.136-6.053-21.705-0.6384-0.67768-1.3643-1.8027-1.6131-2.5-0.24881-0.69732-0.83846-0.90589-1.3103-0.46348-0.47187 0.4424-0.27014 1.1677 0.44829 1.6117 1.0122 0.62558 1.0704 1.6614 0.25853 4.6018-0.57624 2.087-0.77588 4.2343-0.44365 4.7719 0.33224 0.53757 0.69737 2.5143 0.81142 4.3928s0.72535 3.9334 1.3584 4.5665 1.1511 1.9129 1.1511 2.8441c0 0.93115 0.70352 1.963 1.5634 2.2929s1.2566 1.0964 0.88157 1.7031c-0.42694 0.6908 0.0166 0.96354 1.1866 0.7296 1.2598-0.2519 1.8334-1.179 1.7608-2.8461zm-181.39-26.973c0-0.55-0.45-1-1-1s-1 0.45-1 1 0.45 1 1 1 1-0.45 1-1zm172 0c0-0.55-0.45-1-1-1s-1 0.45-1 1 0.45 1 1 1 1-0.45 1-1zm-168-7.118c0-0.55-0.45-0.72188-1-0.38197s-1 1.068-1 1.618 0.45 0.72188 1 0.38197 1-1.068 1-1.618zm163.18-0.09863c-0.71756-0.71756-1.1833-0.77661-1.1833-0.15 0 1.3348 1.1826 2.5174 1.85 1.85 0.28417-0.28417-0.0158-1.0492-0.66667-1.7zm-175.43 190.24c-1.6024-1.8715-1.5873-2.0371 0.27776-3.0352 1.5653-0.83774 1.9726-0.73874 1.9726 0.47947 0 0.84435 0.7301 1.5352 1.6224 1.5352 1.3288 0 1.3971 0.27149 0.37756 1.5-1.6278 1.9613-2.2175 1.8948-4.2504-0.47946zm182.25 0.47946c-1.0196-1.2285-0.95124-1.5 0.37756-1.5 0.89234 0 1.6224-0.69083 1.6224-1.5352 0-1.2182 0.4073-1.3172 1.9726-0.47947 1.865 0.99813 1.8802 1.1637 0.27776 3.0352-2.0329 2.3743-2.6226 2.4408-4.2504 0.47946zm-163-13.441c0-0.58246 0.45-1.059 1-1.059s1 0.19844 1 0.44098-0.45 0.7191-1 1.059-1 0.14148-1-0.44098zm146.5-0.059c-0.33992-0.55-0.14148-1 0.44098-1s1.059 0.45 1.059 1-0.19844 1-0.44098 1-0.7191-0.45-1.059-1zm-160.06-3.4183c-1.0668-0.78003-1.6309-1.7269-1.2536-2.1042 0.94766-0.94765 6.0964 0.87889 6.5818 2.3349 0.54788 1.6436-2.9733 1.4911-5.3281-0.23074zm169.79 0.23074c0.48534-1.456 5.6341-3.2826 6.5818-2.3349 0.94689 0.94689-2.7714 3.5224-5.0854 3.5224-1.0407 0-1.7141-0.53438-1.4964-1.1875zm-163.86-7.6169c-3.2372-2.5589-5.6694-5.4949-6.7134-8.1041-1.5884-3.9697-2.9515-5.0361-4.0876-3.1978-0.85598 1.385 2.337 8.2065 4.7613 10.172 3.1152 2.5258 1.181 3.7012-2.0933 1.2721-3.8393-2.8484-7.3799-12.967-7.8118-22.325-0.19006-4.118-0.81272-7.643-1.3837-7.8333-0.57097-0.19033-1.0381-1.6586-1.0381-3.2627 0-2.1087 0.48478-2.9184 1.75-2.923 0.9625-3e-3 2.5166-1.3535 3.4535-3 1.6868-2.9644 4.0284-4.1314 3.5465-1.7674-0.1375 0.67444 0.75469 1.3797 1.9827 1.5673 2.5095 0.3833 8.2673 6.8178 8.2673 9.2389 0 0.8672 1.5561 3.2756 3.4579 5.3519 1.9019 2.0764 3.7013 4.5419 3.9987 5.479 0.94369 2.9733 5.8108 5.1297 10.032 4.4447 3.7352-0.60614 3.7932-0.56736 3.1266 2.0887-0.49101 1.9563-0.11612 3.4222 1.3528 5.2896 1.1176 1.4208 2.032 3.1919 2.032 3.9359 0 2.4369-7.4641 6.2178-13.658 6.9186-5.7834 0.65432-5.9976 0.58903-10.975-3.3452zm149.24 3.0739c-3.7-0.55013-10.602-4.8776-10.602-6.6472 0-0.74392 0.9144-2.5151 2.032-3.9359 1.4689-1.8674 1.8438-3.3333 1.3528-5.2896-0.66664-2.6561-0.60859-2.6949 3.1266-2.0887 4.2212 0.685 9.0883-1.4714 10.032-4.4447 0.29743-0.93713 2.0968-3.4027 3.9987-5.479 1.9019-2.0763 3.4579-4.4847 3.4579-5.3519 0-2.4211 5.7578-8.8556 8.2674-9.2389 1.228-0.18756 2.1202-0.89284 1.9826-1.5673-0.48194-2.3639 1.8597-1.197 3.5465 1.7674 0.93692 1.6465 2.491 2.9965 3.4535 3 1.2652 5e-3 1.75 0.81428 1.75 2.923 0 1.6042-0.46716 3.0724-1.0381 3.2627-0.57097 0.19032-1.1936 3.7153-1.3837 7.8333-0.43192 9.3584-3.9725 19.477-7.8118 22.325-3.2743 2.4292-5.2085 1.2537-2.0933-1.2721 2.4243-1.9656 5.6172-8.7872 4.7613-10.172-1.1362-1.8383-2.4993-0.77197-4.0876 3.1978-1.0323 2.5799-3.4639 5.5355-6.5817 8-4.992 3.9459-6.5884 4.3042-14.163 3.178zm-177.6-11.829c0-0.85746 0.45-1.2809 1-0.94098s1 1.0415 1 1.559-0.45 0.94098-1 0.94098-1-0.70156-1-1.559zm218 0.61804c0-0.51754 0.45-1.2191 1-1.559s1 0.0835 1 0.94098c0 0.85746-0.45 1.559-1 1.559s-1-0.42344-1-0.94098zm-138.96-15.875c-0.0236-1.2737 0.45134-3.2394 1.0555-4.3684 0.83477-1.5598 0.69624-3.4865-0.57692-8.024-0.92151-3.2842-1.4619-6.1849-1.2008-6.446s1.4902 1.559 2.7316 4.0445l2.257 4.5191-2.1116 6.2952c-1.1614 3.4624-2.131 5.2532-2.1547 3.9795zm59.566-4.2802-1.8909-6.0497 2.2432-4.4915c1.2338-2.4704 2.4638-4.271 2.7334-4.0013 0.26962 0.26962-0.25631 3.0582-1.1687 6.1968-1.3247 4.5567-1.4262 6.2685-0.50396 8.4951 0.63525 1.5336 1.0026 3.4886 0.81645 4.3444-0.18621 0.85581-1.1895-1.1664-2.2294-4.4937z"/>
</g>
</svg>
