<svg viewBox="0 0 1850 3220" xmlns="http://www.w3.org/2000/svg">
  <title>Map of the regions of Finland</title>
  <polygon points="503.04 309.06 508.24 290.96 498.1 264.17 515.37 243.52 541.14 230.85 582.53 245.22 652.53 387.16 650.5 421.56 668.21 414.11 698.88 436.32 730.95 439.64 737.89 454 767.05 440.85 794.59 431.12 805.63 411.66 826.47 400.72 867.69 431.25 911.32 450.34 935.45 480.04 941.62 467.44 958.87 467.55 956.06 431.8 981.2 394.82 999.65 383.73 1020 388.94 1030 353.95 1026.3 291.8 1044.6 187.12 1053.9 170.02 1048.4 154.05 1062.8 131.01 1092 105.02 1109.3 63.807 1137.7 53.86 1187.1 66.719 1229.8 32.824 1240.5 17.299 1255.9 22.302 1271.5 12.47 1299.2 51.008 1325.9 67.806 1327.9 86.76 1415.2 129.75 1444.5 204.44 1392.6 271.82 1389.1 305.53 1399.4 341.63 1345.5 386.99 1378.3 386.87 1386.4 400.65 1379.9 447.12 1351.2 499.02 1375.6 601 1447.9 630.41 1495.2 726.91 1541.3 761.43 1537.6 806.45 1439.5 990.42 1432 1015 1496.5 1123.8 1527.2 1206.2 1551.9 1242.8 1581.5 1326.9 1590.2 1388.1 1571 1389.9 1542.8 1408.7 1553.4 1426.4 1544.6 1456.2 1542.4 1488.6 1531.5 1525.5 1557.6 1527.9 1565.8 1537.4 1557.2 1554.9 1564.2 1564.1 1556.6 1579.9 1537.4 1586.3 1532 1606.3 1546.9 1663.4 1597.3 1673.8 1592.8 1689.7 1603.4 1702.9 1602.8 1723 1591.8 1732.6 1591.8 1755.3 1607.3 1796.9 1661.4 1834 1672 1883.2 1637.8 1972.3 1605.6 1995.2 1660.1 2053.4 1678.1 2078.9 1722.9 2099.3 1754.6 2124.3 1779.6 2141.5 1791.1 2181.4 1826.1 2209.9 1838.2 2240.5 1796.7 2372.2 1761.7 2437.5 1742.8 2444.9 1714 2488.9 1674.2 2558.8 1652.9 2580.9 1640.9 2614.7 1610.9 2642.3 1590.7 2684.7 1565.3 2702.7 1559.6 2720.4 1521.8 2784.1 1477.7 2814.7 1461.9 2821.2 1442.9 2853.6 1440.5 2874.9 1420.1 2879.5 1381.8 2913 1374.5 2932.6 1320.7 2984.3 1320.2 2994.4 1309.9 3001.3 1297.8 2993.4 1293 2997.1 1289.3 3013.9 1284 3022.6 1275.9 3022.8 1266.2 3024.3 1259.8 3020.7 1254 3024.7 1246.9 3031.3 1237.9 3017.9 1214.4 3015.1 1185.9 3005.8 1174.4 3017.4 1174.8 3036 1170.6 3043.4 1158.9 3043.1 1145.6 3029.7 1137.7 3036.8 1127.7 3037.2 1121.5 3030.6 1114.8 3035.2 1100.8 3035.2 1084.6 3051 1077.2 3050.7 1072 3039.5 1062.1 3040.1 1063.2 3054.7 1057.9 3063.2 1051.9 3063.6 1046.8 3052.2 1035.9 3041 1020.4 3026.2 1019 3034.3 1028.5 3047.1 1031.2 3057.6 1040.5 3074.2 1034.9 3076.6 1027.3 3072.9 1022.4 3074.6 1023.3 3087.1 1018.2 3089.1 1009.9 3072 1005.7 3075.4 1010.4 3090.3 1006.1 3095.8 997.89 3090.6 990.47 3098.6 985.47 3097.7 972.85 3082 968.9 3067.4 952.98 3069.2 952.62 3082.4 946.49 3090 922.24 3090.6 902.95 3095.9 900.7 3102.9 892.95 3113.4 882.15 3110.1 883.84 3122.6 873.04 3131.8 870.92 3120.1 866.16 3127.6 852.04 3127.4 841.99 3120.6 815.23 3130 810.02 3124.8 807.88 3129.9 807.91 3139.8 778.55 3176.7 769.04 3175.9 781.98 3159 775.96 3155.5 769.03 3161.5 764.3 3161.5 765.22 3142.3 743.15 3154.5 712.93 3155.2 676.24 3170.9 658.14 3172.6 660.69 3181.9 654.24 3186.8 641.7 3184.1 625.74 3187.5 617.95 3181.9 605.88 3180.4 595.95 3191.4 595.95 3198.6 583 3209.6 557.96 3209.4 537.24 3218 530.32 3209.3 536.8 3202 564.44 3192.2 570.04 3185.5 572.63 3166.2 567.86 3158.8 562.26 3163.4 561.84 3179.2 557.1 3183.8 539.38 3180.7 529.66 3167.9 532.06 3156.1 543.28 3155.6 552.35 3160.3 557.03 3120.3 541.19 3110.8 537.2 3089.7 566.57 3053.9 560.99 3044.6 525.56 3072 502.65 3078.8 492.81 3069.8 477.12 3070.2 477.08 3060.6 491.8 3037.1 482.84 3030.3 477.24 3035.1 439.58 3042.4 429.67 3033 421.65 3032.5 423.32 3011.5 419.83 3008.8 410.99 3014.4 400.1 3004.5 403.31 3000.5 410.74 3000.9 411.14 2993 403.13 2985.2 381.86 2985.9 365.24 2990 366.01 2982 373.26 2971.8 381.16 2972.5 388.04 2954.8 381.28 2951.7 361.12 2962.5 356.17 2984 345.02 2985 340.67 2966.4 326.39 2953.8 315.41 2925 315.73 2907.1 310.64 2899 310.1 2885.9 307.68 2876.7 309.52 2871.3 312.74 2869.1 314.31 2864.1 299.13 2854.9 298.28 2849.2 311.58 2846.5 312.03 2838.7 305.55 2831.8 309.37 2827.8 316.68 2827.3 323.12 2840.3 329.95 2845.7 332.2 2838 321.28 2826.6 316.94 2802.8 325.23 2798.2 329.75 2805.2 336.7 2791.2 344.03 2749.3 351.56 2754.4 355.38 2749.5 354.59 2742.9 359.3 2718.5 349.04 2694.5 350.98 2691.5 355.67 2689.9 362.69 2692.7 368.1 2691.7 364.46 2682.8 353.24 2676.9 352.36 2669 359.93 2669.3 371.84 2672.8 371.51 2668.3 364.92 2663 357.86 2648.6 360.84 2643 366.42 2643.4 375.3 2653.5 381.96 2653.7 369.06 2624.7 369.07 2598.5 355.66 2581.1 358.36 2575.2 366.2 2574.4 366.71 2569.7 360.7 2565 357 2541.4 348.07 2536 345.37 2525.9 337.54 2512.9 344.75 2485.5 352.45 2472.9 352 2461.7 363.88 2449 362.31 2440.9 347.39 2435.1 347.36 2423.8 357.53 2410.3 358.17 2403.2 336.5 2402.1 330.06 2392.1 336.04 2368.3 331.43 2363.4 333.63 2344.8 343.49 2328.6 342.48 2322.1 337.31 2318.3 330.52 2324 326.7 2319.4 329.93 2298.8 334.83 2293.1 341.22 2287.3 342.18 2278.6 335.49 2271 336.68 2266.2 347.97 2266.8 353.67 2260.6 356.65 2242.6 367.6 2238.8 368.31 2244.3 379.56 2243 383.82 2238.7 382.52 2228.3 393 2218.4 394.06 2206.6 389.6 2197 379.13 2189 383.77 2181.5 393.72 2188.1 400.04 2186.1 409.18 2188.5 414.31 2186.5 411.19 2178.8 401.29 2170.1 400.06 2162.3 408.45 2151.9 409.22 2130.2 417.24 2122 422.08 2136.5 433.55 2136.2 458.15 2125.9 492.72 2138.3 505.66 2135.2 513.76 2119.9 524.83 2119.6 529.24 2108.9 517.17 2081.8 511.66 2076.3 509.28 2068.5 513.23 2063.3 520.83 2062.8 525.78 2041.4 532.6 2037.7 539.16 2046.3 542.93 2029.8 551.9 2023.2 552.9 2018.3 562.48 2010.1 569.14 2007.2 570.98 1998.5 583.04 1990.8 584.6 1979.1 581.85 1963 591.72 1956.4 601.43 1941.9 614.48 1942 620.45 1949.2 627.05 1949 632.89 1940.5 680.7 1938.3 681.75 1892.6 689.74 1886.9 701.57 1898.2 711.05 1896.5 712.26 1873 729.5 1846.7 736.93 1840.7 745.89 1827.2 753.4 1832.2 759.52 1828.8 759.75 1814.2 767.43 1801.6 770.44 1794.4 790.66 1772.7 808.08 1761.2 808.96 1754.2 821.59 1744.4 831.76 1701.4 850.88 1688.1 856.01 1661.6 868.36 1660.2 872.58 1652.6 879.75 1646.2 901.17 1646 910.63 1638.6 928.93 1638.7 948.52 1650.1 950.3 1660.6 959.26 1661.4 964.4 1656.7 960.47 1645 940.95 1625.4 939.79 1616.8 942.14 1610.2 955.53 1611.3 969.93 1623 976.33 1623.3 977.11 1617.6 967.7 1608 964.56 1587.2 959.27 1577.6 946.87 1570.4 942.49 1560.8 951.17 1549.2 951.26 1518.1 945.82 1508 952.11 1500.4 952.09 1485.8 960.25 1477.1 961.26 1464.7 942.59 1431.4 937.94 1435.7 930.99 1435.7 930.42 1422.6 922.03 1414 913.16 1414.8 904.87 1404.1 890.95 1402.1 883.97 1407.8 875.72 1408.6 871.78 1395.9 861.64 1402.5 856.36 1396.4 863.7 1381 857.17 1371.3 836.28 1363.6 826.61 1352 818.86 1364.3 807.78 1365.6 807.52 1343.6 797.37 1316.3 795.89 1296.5 779.11 1269.2 778.03 1248.6 757.86 1229 750.02 1190.1 754.62 1178.1 750.45 1161.4 756.44 1142.8 761.18 1127.4 778.86 1112.1 782.27 1055.8 799.77 1036.5 752.27 926.74 753.37 895.3 777.09 882.97 771.76 864.71 778.79 848.84 751.23 844.08 739.6 823.16 754.67 784.43 753.48 727.72 753.88 709.27 762.58 694.6 773.58 681.53 747.15 654.02 741.16 625.52 726.81 627.53 720.61 610.54 720.52 581.65 673.48 538.31 630.18 518.45 597.65 511.03 588.64 484.98 566.44 474.12 557.71 452.2 533.96 444.82 501.4 377.22 478.67 371.09 476.91 344.77 447.25 306.41 470.39 283.77" fill="#b1d1a3" stroke="#000" stroke-width="3.9685"/>
  <polygon points="894.7 1579.1 903.99 1590 913.15 1589.9 919.01 1586.9 924.15 1591.6 923.94 1597.6 911.68 1602.6 899.27 1594.4 889.35 1597 896.47 1619.7 887.76 1626 877.15 1619.4 865.77 1622.3 855.41 1598.1 861.45 1586.9" fill="#b1d1a3" stroke="#000" stroke-width="3.9685"/>
  <polygon points="946.07 1584.3 939.16 1584.3 932.69 1578.6 936.14 1572.6 944.86 1575.9" fill="#b1d1a3" stroke="#000" stroke-width="3.9685"/>
  <polygon points="716.83 1859.9 709.49 1860.3 711.65 1848.7 719.42 1845.6 721.23 1852" fill="#b1d1a3" stroke="#000" stroke-width="3.9685"/>
  <polygon points="567.46 1985.2 562.71 1975.7 567.89 1958.8 574.8 1964.9 573.6 1978.8" fill="#b1d1a3" stroke="#000" stroke-width="3.9685"/>
  <polygon points="450.46 2079.4 445.71 2067.7 454.78 2065.1 458.66 2069 458.34 2077.3" fill="#b1d1a3" stroke="#000" stroke-width="3.9685"/>
  <polygon points="488.49 2102.8 478.63 2103.3 472.05 2108.3 467.3 2107.9 477.23 2091.9 486.3 2091.9 491.86 2097.1" fill="#b1d1a3" stroke="#000" stroke-width="3.9685"/>
  <polygon points="501.02 2132.1 487.69 2125.7 476.36 2126 472.48 2117.4 485.43 2109.2 499.27 2115.1 505.72 2111.8 506.54 2121.8" fill="#b1d1a3" stroke="#000" stroke-width="3.9685"/>
  <polygon points="441.87 2125.2 434.59 2118.4 429.74 2129.1 424.13 2127.8 424.13 2117.4 431.9 2108.3 443.94 2118.7" fill="#b1d1a3" stroke="#000" stroke-width="3.9685"/>
  <polygon points="372.42 2090.3 366.28 2099.7 358.07 2099.7 361.53 2090.6 366.71 2080.7 372.28 2080.7" fill="#b1d1a3" stroke="#000" stroke-width="3.9685"/>
  <polygon points="394.01 2097.6 387.86 2105.7 377.5 2105.7 372.75 2097.5 383.11 2089.3 390.41 2089.3" fill="#b1d1a3" stroke="#000" stroke-width="3.9685"/>
  <polygon points="365.42 2123.4 368.69 2129.1 378.84 2129.5 382.74 2121.2 391.1 2123.4 397.91 2138.2 393.8 2148.9 382.57 2145 376.16 2155 367.24 2152.9 361.1 2147.2 354.19 2146.8 344.69 2110.5 351.16 2108.3 356.33 2114.1 365.36 2105.1 371.46 2110.5 371.63 2117.5" fill="#b1d1a3" stroke="#000" stroke-width="3.9685"/>
  <polygon points="309.82 2205.6 307.13 2211.2 301.09 2211.2 297.63 2204.7 303.68 2195.6 310.11 2198.2" fill="#b1d1a3" stroke="#000" stroke-width="3.9685"/>
  <polygon points="358.03 2209.4 356.02 2218.6 350.3 2218.5 344.69 2213.7 344.69 2199.9 350.3 2196.5 357.08 2202" fill="#b1d1a3" stroke="#000" stroke-width="3.9685"/>
  <polygon points="351.7 2251.4 345.99 2255.6 340.81 2260 333.47 2255.6 338.65 2247 347.67 2242.7" fill="#b1d1a3" stroke="#000" stroke-width="3.9685"/>
  <polygon points="334.43 2289.5 332.6 2292.4 326.13 2292.8 323.97 2288.5 324.83 2278.5 328.68 2277.7" fill="#b1d1a3" stroke="#000" stroke-width="3.9685"/>
  <polygon points="330.01 2345.5 323.11 2349.4 317.92 2344.2 320.04 2338.1 323.06 2333.9 329.68 2341.3" fill="#b1d1a3" stroke="#000" stroke-width="3.9685"/>
  <polygon points="335.62 2768.9 331.74 2774.1 326.13 2774.5 323.49 2764.6 324.94 2761.8 328.24 2758.1 334.09 2761.8" fill="#b1d1a3" stroke="#000" stroke-width="3.9685"/>
  <polygon points="271.3 2995.7 263.1 2994 261.43 2962.2 267.61 2961.8 278.21 2977.6" fill="#b1d1a3" stroke="#000" stroke-width="3.9685"/>
  <polygon points="271.3 2995.7 263.1 2994 261.43 2962.2 267.61 2961.8 278.21 2977.6" fill="none" stroke="#636347" stroke-width="2.8"/>
  <polygon points="251.44 3001.8 243.67 3006.1 237.19 2991.4 238.55 2983.4 246.45 2978.2 253.97 2990.2" fill="#b1d1a3" stroke="#000" stroke-width="3.9685"/>
  <polygon points="251.44 3001.8 243.67 3006.1 237.19 2991.4 238.55 2983.4 246.45 2978.2 253.97 2990.2" fill="none" stroke="#636347" stroke-width="2.8"/>
  <polygon points="251.44 3001.8 243.67 3006.1 237.19 2991.4 238.55 2983.4 246.45 2978.2 253.97 2990.2" fill="none" stroke="#8c8c60" stroke-width="1.7008"/>
  <polygon points="267.41 3022.9 262.23 3027.7 255.76 3023.8 252.8 3009.3 263.29 3000.3 269.94 3008.3" fill="#b1d1a3" stroke="#000" stroke-width="3.9685"/>
  <line x1="252.8" x2="263.29" y1="3009.3" y2="3000.3" fill="none" stroke="#000" stroke-width="3.9685"/>
  <polygon points="239.35 3029.4 231.58 3031.6 226.4 3026 229.62 3015.8 239.29 3020" fill="#b1d1a3" stroke="#000" stroke-width="3.9685"/>
  <polygon points="219.92 3020.8 216.04 3030.7 208.71 3032.3 206.11 3029 206.11 3028.6 208.89 3019.7 214.68 3015.6" fill="#b1d1a3" stroke="#000" stroke-width="3.9685"/>
  <polygon points="222.95 3047.6 224.67 3051.9 214.75 3060.8 210 3057.5 209.13 3053.2 208.89 3044.3 217.7 3040.3" fill="#b1d1a3" stroke="#000" stroke-width="3.9685"/>
  <polygon points="203.52 3060.5 203.51 3064.8 204.82 3071.2 194.89 3071.3 191.86 3059.2 195.08 3053.8 201.3 3055" fill="#b1d1a3" stroke="#000" stroke-width="3.9685"/>
  <polygon points="200.93 3090.3 199.62 3093.3 199.21 3098.4 187.55 3097.7 184.84 3085.6 179.34 3079.5 185.15 3071.1 194.82 3077" fill="#b1d1a3" stroke="#000" stroke-width="3.9685"/>
  <polygon points="162.52 3022.8 140.06 3021.2 140.49 3014.3 146.29 3009.8 162.5 3017.7" fill="#b1d1a3" stroke="#000" stroke-width="3.9685"/>
  <polygon points="156.37 3044.1 161.43 3051.9 153.43 3063.1 148.27 3063 149.13 3048.1 143.08 3041.9 149.99 3035 155.79 3030.5 159.54 3036.8" fill="#b1d1a3" stroke="#000" stroke-width="3.9685"/>
  <polygon points="177.95 3115.8 171.36 3124 150.84 3130 135.75 3129.5 132.72 3124.6 146.53 3113.2 154.06 3107.4 172.93 3109.8" fill="#b1d1a3" stroke="#000" stroke-width="3.9685"/>
  <polygon points="177.84 3097.6 178.04 3102.4 165.97 3101 160.78 3095.2 165.29 3090.1 171.04 3091.2" fill="#b1d1a3" stroke="#000" stroke-width="3.9685"/>
  <polygon points="136.08 3080 130.35 3090.7 133.57 3098.1 122.8 3098 121.07 3082.7 130.75 3071.1 134.5 3071.8" fill="#b1d1a3" stroke="#000" stroke-width="3.9685"/>
  <polygon points="110.57 3002.7 116.95 3013.4 125.34 3017 126.65 3027.4 136.6 3039.5 129.26 3061 111.72 3063.9 100.68 3051.7 93.986 3051 88.261 3060.9 98.281 3068.5 89.859 3088.4 91.959 3091.8 100.25 3092.1 105.29 3088.8 121.46 3097.5 121.54 3104.2 118.16 3111.8 124.12 3117.9 123.09 3125.5 113.24 3132.3 110.76 3121.8 104.38 3123 99.77 3112.5 85.918 3102.6 73.719 3105.3 72.027 3094.8 67.309 3088.8 57.862 3087.9 52.206 3081.5 50.58 3069.4 40.899 3058.2 34.306 3058.3 29.003 3057.1 26.231 3066.7 18.764 3067.1 13.293 3054.9 16.242 3041.9 10.952 3036.3 14.24 3027.6 33.405 3019.4 42.114 3022.2 51.423 3020.8 58.877 3011.2 67.151 3016.5 64.882 3031.3 71.005 3032.9 76.235 3026.9 74.313 3022.5 74.27 3016.4 69.698 3008.6 55.442 3006.5 67.961 2990.1 80.24 2984.7 96.012 3e3" fill="#b1d1a3" stroke="#000" stroke-width="3.9685"/>
  <polygon points="241.3 3149.5 239.24 3152.9 237.46 3158.3 231.58 3158.2 226.39 3166.3 213.46 3156.7 216.04 3149.2 229.62 3142.8 233.64 3145.6" fill="#b1d1a3" stroke="#000" stroke-width="3.9685"/>
  <polygon points="267.41 3022.9 262.23 3027.7 255.76 3023.8 252.8 3009.3 263.29 3000.3 269.94 3008.3" fill="none" stroke="#636347" stroke-width="2.8"/>
  <polygon points="239.35 3029.4 231.58 3031.6 226.4 3026 229.62 3015.8 239.29 3020" fill="none" stroke="#636347" stroke-width="2.8"/>
  <polygon points="219.92 3020.8 216.04 3030.7 208.71 3032.3 206.11 3029 206.11 3028.6 208.89 3019.7 214.68 3015.6" fill="none" stroke="#636347" stroke-width="2.8"/>
  <polygon points="222.95 3047.6 224.67 3051.9 214.75 3060.8 210 3057.5 209.13 3053.2 208.89 3044.3 217.7 3040.3" fill="none" stroke="#636347" stroke-width="2.8"/>
  <polygon points="203.52 3060.5 203.51 3064.8 204.82 3071.2 194.89 3071.3 191.86 3059.2 195.08 3053.8 201.3 3055" fill="none" stroke="#636347" stroke-width="2.8"/>
  <polygon points="200.93 3090.3 199.62 3093.3 199.21 3098.4 187.55 3097.7 184.84 3085.6 179.34 3079.5 185.15 3071.1 194.82 3077" fill="none" stroke="#636347" stroke-width="2.8"/>
  <polygon points="162.52 3022.8 140.06 3021.2 140.49 3014.3 146.29 3009.8 162.5 3017.7" fill="none" stroke="#636347" stroke-width="2.8"/>
  <polygon points="156.37 3044.1 161.43 3051.9 153.43 3063.1 148.27 3063 149.13 3048.1 143.08 3041.9 149.99 3035 155.79 3030.5 159.54 3036.8" fill="none" stroke="#636347" stroke-width="2.8"/>
  <polygon points="177.95 3115.8 171.36 3124 150.84 3130 135.75 3129.5 132.72 3124.6 146.53 3113.2 154.06 3107.4 172.93 3109.8" fill="none" stroke="#636347" stroke-width="2.8"/>
  <polygon points="177.84 3097.6 178.04 3102.4 165.97 3101 160.78 3095.2 165.29 3090.1 171.04 3091.2" fill="none" stroke="#636347" stroke-width="2.8"/>
  <polygon points="136.08 3080 130.35 3090.7 133.57 3098.1 122.8 3098 121.07 3082.7 130.75 3071.1 134.5 3071.8" fill="none" stroke="#636347" stroke-width="2.8"/>
  <polygon points="110.57 3002.7 116.95 3013.4 125.34 3017 126.65 3027.4 136.6 3039.5 129.26 3061 111.72 3063.9 100.68 3051.7 93.986 3051 88.261 3060.9 98.281 3068.5 89.859 3088.4 91.959 3091.8 100.25 3092.1 105.29 3088.8 121.46 3097.5 121.54 3104.2 118.16 3111.8 124.12 3117.9 123.09 3125.5 113.24 3132.3 110.76 3121.8 104.38 3123 99.77 3112.5 85.918 3102.6 73.719 3105.3 72.027 3094.8 67.309 3088.8 57.862 3087.9 52.206 3081.5 50.58 3069.4 40.899 3058.2 34.306 3058.3 29.003 3057.1 26.231 3066.7 18.764 3067.1 13.293 3054.9 16.242 3041.9 10.952 3036.3 14.24 3027.6 33.405 3019.4 42.114 3022.2 51.423 3020.8 58.877 3011.2 67.151 3016.5 64.882 3031.3 71.005 3032.9 76.235 3026.9 74.313 3022.5 74.27 3016.4 69.698 3008.6 55.442 3006.5 67.961 2990.1 80.24 2984.7 96.012 3e3" fill="none" stroke="#636347" stroke-width="2.8"/>
  <polygon points="241.3 3149.5 239.24 3152.9 237.46 3158.3 231.58 3158.2 226.39 3166.3 213.46 3156.7 216.04 3149.2 229.62 3142.8 233.64 3145.6" fill="none" stroke="#636347" stroke-width="2.8"/>
  <polygon points="267.41 3022.9 262.23 3027.7 255.76 3023.8 252.8 3009.3 263.29 3000.3 269.94 3008.3" fill="none" stroke="#8c8c60" stroke-width="1.7008"/>
  <polygon points="239.35 3029.4 231.58 3031.6 226.4 3026 229.62 3015.8 239.29 3020" fill="none" stroke="#8c8c60" stroke-width="1.7008"/>
  <polygon points="219.92 3020.8 216.04 3030.7 208.71 3032.3 206.11 3029 206.11 3028.6 208.89 3019.7 214.68 3015.6" fill="none" stroke="#8c8c60" stroke-width="1.7008"/>
  <polygon points="222.95 3047.6 224.67 3051.9 214.75 3060.8 210 3057.5 209.13 3053.2 208.89 3044.3 217.7 3040.3" fill="none" stroke="#8c8c60" stroke-width="1.7008"/>
  <polygon points="203.52 3060.5 203.51 3064.8 204.82 3071.2 194.89 3071.3 191.86 3059.2 195.08 3053.8 201.3 3055" fill="none" stroke="#8c8c60" stroke-width="1.7008"/>
  <polygon points="200.93 3090.3 199.62 3093.3 199.21 3098.4 187.55 3097.7 184.84 3085.6 179.34 3079.5 185.15 3071.1 194.82 3077" fill="none" stroke="#8c8c60" stroke-width="1.7008"/>
  <polygon points="162.52 3022.8 140.06 3021.2 140.49 3014.3 146.29 3009.8 162.5 3017.7" fill="none" stroke="#8c8c60" stroke-width="1.7008"/>
  <polygon points="156.37 3044.1 161.43 3051.9 153.43 3063.1 148.27 3063 149.13 3048.1 143.08 3041.9 149.99 3035 155.79 3030.5 159.54 3036.8" fill="none" stroke="#8c8c60" stroke-width="1.7008"/>
  <polygon points="177.95 3115.8 171.36 3124 150.84 3130 135.75 3129.5 132.72 3124.6 146.53 3113.2 154.06 3107.4 172.93 3109.8" fill="none" stroke="#8c8c60" stroke-width="1.7008"/>
  <polygon points="177.84 3097.6 178.04 3102.4 165.97 3101 160.78 3095.2 165.29 3090.1 171.04 3091.2" fill="none" stroke="#8c8c60" stroke-width="1.7008"/>
  <polygon points="136.08 3080 130.35 3090.7 133.57 3098.1 122.8 3098 121.07 3082.7 130.75 3071.1 134.5 3071.8" fill="none" stroke="#8c8c60" stroke-width="1.7008"/>
  <polygon points="110.57 3002.7 116.95 3013.4 125.34 3017 126.65 3027.4 136.6 3039.5 129.26 3061 111.72 3063.9 100.68 3051.7 93.986 3051 88.261 3060.9 98.281 3068.5 89.859 3088.4 91.959 3091.8 100.25 3092.1 105.29 3088.8 121.46 3097.5 121.54 3104.2 118.16 3111.8 124.12 3117.9 123.09 3125.5 113.24 3132.3 110.76 3121.8 104.38 3123 99.77 3112.5 85.918 3102.6 73.719 3105.3 72.027 3094.8 67.309 3088.8 57.862 3087.9 52.206 3081.5 50.58 3069.4 40.899 3058.2 34.306 3058.3 29.003 3057.1 26.231 3066.7 18.764 3067.1 13.293 3054.9 16.242 3041.9 10.952 3036.3 14.24 3027.6 33.405 3019.4 42.114 3022.2 51.423 3020.8 58.877 3011.2 67.151 3016.5 64.882 3031.3 71.005 3032.9 76.235 3026.9 74.313 3022.5 74.27 3016.4 69.698 3008.6 55.442 3006.5 67.961 2990.1 80.24 2984.7 96.012 3e3" fill="none" stroke="#8c8c60" stroke-width="1.7008"/>
  <polygon points="241.3 3149.5 239.24 3152.9 237.46 3158.3 231.58 3158.2 226.39 3166.3 213.46 3156.7 216.04 3149.2 229.62 3142.8 233.64 3145.6" fill="none" stroke="#8c8c60" stroke-width="1.7008"/>
  <polygon points="915.41 3099.5 920.2 3095.4 927.07 3095.4 930.12 3096.7 935.85 3097.1 933.41 3101.6 930.16 3105.2 919.9 3105.8 917.61 3102" fill="#b1d1a3" stroke="#000" stroke-width="3.9685"/>
  <polygon points="951.29 3097.5 953.27 3115 947 3116 945.24 3112.3 945.2 3102.9" fill="#b1d1a3" stroke="#000" stroke-width="3.9685"/>
  <polygon points="965.53 3078.1 967.64 3089.3 973.2 3096 972.99 3103.7 971.51 3105.3 971.4 3108.9 966.3 3114.2 961.68 3110.3 961.22 3097.2 960.74 3079.6" fill="#b1d1a3" stroke="#000" stroke-width="3.9685"/>
  <polygon points="1002.7 3100.5 1006.1 3097.5 1012.9 3102.9 1015.4 3108.1 1009 3114.7 996.21 3112.9 995.75 3108.4 997.01 3102.1" fill="#b1d1a3" stroke="#000" stroke-width="3.9685"/>
  <polygon points="1048.3 3091.6 1039.3 3093.5 1032.9 3087.3 1045.8 3080.7" fill="#b1d1a3" stroke="#000" stroke-width="3.9685"/>
  <polygon points="1060.1 3067.7 1064.7 3078.2 1058.7 3081.4 1052.1 3077.6 1051 3074.7 1053.1 3067.8" fill="#b1d1a3" stroke="#000" stroke-width="3.9685"/>
  <polygon points="1107 3061.8 1106.6 3068.9 1091.4 3066.4 1087.3 3059.6 1091.5 3054" fill="#b1d1a3" stroke="#000" stroke-width="3.9685"/>
  <polygon points="1151.1 3066.1 1147.6 3071.9 1141 3068.1 1135.6 3064.4 1145 3056.6" fill="#b1d1a3" stroke="#000" stroke-width="3.9685"/>
  <polygon points="1124.7 3039.4 1126.9 3047.3 1113.8 3057.3 1106.3 3050.6 1117 3039.3" fill="#b1d1a3" stroke="#000" stroke-width="3.9685"/>
  <polygon points="1205.9 3079.5 1211.8 3085 1215 3087.3 1207.6 3091.8 1198.9 3091.4 1199.1 3083.8 1203.7 3079.3" fill="#b1d1a3" stroke="#000" stroke-width="3.9685"/>
  <polygon points="1190.8 3059.2 1184.8 3059.4 1179.5 3046.9 1183.6 3033.3 1190.8 3035.8" fill="#b1d1a3" stroke="#000" stroke-width="3.9685"/>
  <polygon points="364.12 2636.7 359.44 2641.9 349.44 2641.9 342.53 2634.5 347.67 2629.3 349.4 2617.3 354.29 2618.7" fill="#b1d1a3" stroke="#000" stroke-width="3.9685"/>
  <polygon points="306.7 2984.5 298.07 2984.5 292.84 2977.6 290.36 2958.3 293.94 2955.3 306.7 2974.5" fill="#b1d1a3" stroke="#000" stroke-width="3.9685"/>
  <polygon points="327.46 2971.1 334.33 2977.6 330.01 2990.5 323.13 2989 311.41 2974.1 311.51 2961.8 315.96 2957.9 326.99 2969.4" fill="#b1d1a3" stroke="#000" stroke-width="3.9685"/>
  <polygon points="309.29 2950.4 302.38 2957.3 293.28 2947.7 292.08 2937.1 301.71 2930.3 308.43 2935.2" fill="#b1d1a3" stroke="#000" stroke-width="3.9685"/>
  <polygon points="341.2 3193.1 333.48 3198.2 327.41 3203.1 319.66 3199.1 330.07 3188 339.85 3188.4" fill="#b1d1a3" stroke="#000" stroke-width="3.9685"/>
  <polygon points="366.68 3169.3 363.7 3173.6 355.04 3172.8 351.61 3162.8 356.4 3157.3 360.72 3150.4 366.61 3156" fill="#b1d1a3" stroke="#000" stroke-width="3.9685"/>
  <polygon points="285.55 3016.4 278.21 3010.8 279.56 3000.6 284.88 2997.2 289.8 3007" fill="#b1d1a3" stroke="#000" stroke-width="3.9685"/>
  <polygon points="304.97 3029.8 295.91 3030.7 291.59 3025.1 294.24 3017.9 300.85 3017.1 307.07 3026" fill="#b1d1a3" stroke="#000" stroke-width="3.9685"/>
  <polygon points="316.45 3018.8 313.61 3023.4 309.29 3017.3 310.64 3004.5 317.68 3003.7 319.65 3017.7" fill="#b1d1a3" stroke="#000" stroke-width="3.9685"/>
  <polygon points="348.81 3012.4 346.24 3017.1 339.51 3017.3 337.35 3015.2 337.41 3007.1 352.65 2997.7 354.62 3004.4" fill="#b1d1a3" stroke="#000" stroke-width="3.9685"/>
  <polygon points="320.52 3067 320.07 3074.2 319.03 3081.9 313.34 3083.8 307.13 3086.4 287.27 3079.5 290.36 3061.6 296.96 3060.8 302.75 3067.5" fill="#b1d1a3" stroke="#000" stroke-width="3.9685"/>
  <polygon points="348.45 3093.8 347.88 3099.7 345.54 3103.6 339.32 3107.9 326.29 3108.4 320.52 3101.1 328.28 3093.4 329.28 3091.4 339.57 3079.7 350.06 3078.9 350.24 3086.1" fill="#b1d1a3" stroke="#000" stroke-width="3.9685"/>
  <polygon points="313.18 3064.8 307.74 3063.6 303.24 3060.5 306.52 3057.2 307.13 3054.9 312.8 3049 320.28 3047.8 319.22 3057.9" fill="#b1d1a3" stroke="#000" stroke-width="3.9685"/>
  <polygon points="336.92 3076.9 331.31 3072.6 331.8 3052.1 337.54 3048.7 348.31 3070.8" fill="#b1d1a3" stroke="#000" stroke-width="3.9685"/>
  <polygon points="409.22 3030 407.24 3038.9 406.49 3047.6 399.24 3054.8 389.65 3053.2 390.22 3046.7 392.18 3036.1 382.91 3028.4 374.91 3010.4 376.64 2997.9 381.02 2994.2 391.08 3000.3 392.18 3005.6" fill="#b1d1a3" stroke="#000" stroke-width="3.9685"/>
  <polygon points="386.87 3091.2 375.51 3094.1 366.09 3107.9 358.24 3105 360.66 3088.2 363.26 3077.8 381.15 3077.6 391.25 3084.8" fill="#b1d1a3" stroke="#000" stroke-width="3.9685"/>
  <polygon points="372.12 3039.7 361.96 3041.9 352.89 3033.7 354 3027.8 356.84 3023.5 370.35 3027.9 371.46 3034.2" fill="#b1d1a3" stroke="#000" stroke-width="3.9685"/>
  <polygon points="376.37 3112.3 373.18 3106.8 382.68 3097.7 402.48 3107.2 400.55 3112.6" fill="#b1d1a3" stroke="#000" stroke-width="3.9685"/>
  <polygon points="397.95 3097.6 397.78 3087.4 412.9 3079.1 418.45 3082.6 413.07 3095.8" fill="#b1d1a3" stroke="#000" stroke-width="3.9685"/>
  <polygon points="447.01 3087.9 437.53 3088.7 430.83 3081.1 432.45 3072.1 421.36 3068.9 418.95 3059.6 426.42 3045.4 438.37 3048.4 448.8 3047.3 476.56 3040.4 481.55 3048.4" fill="#b1d1a3" stroke="#000" stroke-width="3.9685"/>
  <polygon points="456.7 3101.7 451.01 3108.3 443.29 3108.3 438.54 3103.2 451.75 3087.4 460.82 3086.9 466.37 3090.4 458.09 3102.3" fill="#b1d1a3" stroke="#000" stroke-width="3.9685"/>
  <polygon points="536.74 3114.9 521.45 3131.4 521.7 3141 515.68 3149.4 503.15 3151.4 487.63 3145.1 477.64 3151.4 462.28 3150.4 454.15 3138.2 457.06 3123.9 474.02 3110.8 472.91 3104.2 467 3096.8 472.91 3091.6 472.97 3085.8 477.24 3081.5 486.31 3087.8 543.47 3074.2 528.17 3095.5" fill="#b1d1a3" stroke="#000" stroke-width="3.9685"/>
  <polygon points="480.42 3171.8 475.23 3160.7 479.81 3156.9 490.61 3158.6 498.24 3169.7 494.69 3174.7" fill="#b1d1a3" stroke="#000" stroke-width="3.9685"/>
  <polygon points="450.63 3171 448.47 3160.3 452.64 3156.4 453.52 3156 456.93 3153.1 463.84 3157.3 463.27 3165 461.88 3171.2" fill="#b1d1a3" stroke="#000" stroke-width="3.9685"/>
  <polygon points="453.22 3197 465.99 3183.7 477.66 3184.5 477.08 3193.5 464.88 3202.1" fill="#b1d1a3" stroke="#000" stroke-width="3.9685"/>
  <polygon points="534.81 3125.7 542.41 3118.1 549.32 3120.6 545.73 3128.7 537 3130.2" fill="#b1d1a3" stroke="#000" stroke-width="3.9685"/>
  <polygon points="534.2 3134 542.42 3146.5 536.08 3150.2 528.46 3153.7 524.45 3142.1" fill="#b1d1a3" stroke="#000" stroke-width="3.9685"/>
  <polygon points="606.91 3201.8 612.35 3195.4 619.69 3196.9 629.19 3194.4 625.88 3202.1 621.48 3203.2 616.53 3206 611 3204.5" fill="#b1d1a3" stroke="#000" stroke-width="3.9685"/>
  <polygon points="692.21 3168.2 699.17 3164.1 705.6 3164.1 708.74 3165.8 714.38 3165.8 703.94 3174.7 695.1 3182.2 686.78 3178" fill="#b1d1a3" stroke="#000" stroke-width="3.9685"/>
  <polygon points="1080.8 2050.6 1073.4 1975 1123.1 1929.1 1157.5 1917.5 1200.7 1933.8 1251.8 1937.7 1313.4 1977.2 1353.6 2023.5 1380.3 1962 1447.7 1974.5 1547.9 1956.6 1568.7 2009.5 1582.2 1994.8 1607.2 1997 1660.1 2053.4 1678.1 2078.9 1722.9 2099.3 1754.6 2124.3 1779.6 2141.5 1791.1 2181.4 1826.1 2209.9 1838.2 2240.5 1796.7 2372.2 1761.7 2437.5 1742.8 2444.9 1714 2488.9 1674.2 2558.8 1656.4 2577.2 1566.4 2625.9 1560.8 2641.9 1536.6 2650.1 1517.7 2681.6 1487 2691.4 1456.5 2690.1 1451.7 2707 1414.4 2707.2 1400.2 2696.4 1392.7 2715.1 1367.4 2746.4 1317.8 2750.7 1284.8 2744 1263.6 2752.6 1239.8 2738.3 1201.9 2738.1 1198.2 2745.1 1182.9 2743.9 1176.4 2753.8 1195.2 2765.1 1213.4 2762.4 1231.2 2781.5 1225.2 2793.3 1232.2 2807.5 1210.7 2812.6 1194.5 2818.1 1166.6 2804.3 1166.6 2777.5 1146.4 2777.1 1146.2 2792.7 1131.1 2800.4 1115 2775 1104.2 2779.3 1103.1 2763.7 1094.4 2762.5 1080 2749 1079.3 2736.4 1069.8 2729.6 1073.3 2697.7 1083.3 2671 1085.9 2663.9 1104.6 2669.9 1109.8 2650.6 1088.6 2619.4 1083.4 2565.3 1089.9 2555.5 1067.8 2514.9 1081.6 2486.6 1106.1 2471.4 1123.7 2480.4 1132.3 2443.6 1147 2438.4 1130.4 2420.1 1140.9 2412.9 1134.3 2405.2 1123.5 2406.6 1101.2 2392.3 1101.1 2383.8 1120.7 2362.8 1115.8 2334.1 1098.1 2307 1085.8 2310 1044.1 2257.8 1073.4 2254 1081.4 2240.5 1071.8 2231 1083.9 2222.8 1063.5 2194.6 1060 2141.6 1049.5 2127.1 1056.4 2101.2 1072.6 2055.6" fill="none" stroke="#636347" stroke-width="2.8347"/>
  <g fill="none" stroke="#636347" stroke-width="2.8347">
    <path d="m1056.4 2101.2-30.854 0.219-8.912-18.815-9.488-7.912-23.585-0.073-46.666-32.015-14.722 6.113-6.476 40.235-17.487 2.32-61.856-75.332-16.446-49.443-14.754-5.811-4.984-20.951-10.787-5.611-9.424-37.625-57.914-38.519 7.423-11.308 7.425-5.98 8.961-13.563 7.512 4.977 6.118-3.309 0.229-14.683 7.681-12.604 3.015-7.172 20.213-21.665 17.422-11.541 0.883-6.985 12.632-9.758 10.167-43.017 19.122-13.296 5.123-26.488 12.354-1.43 4.227-7.662 7.165-6.368 21.418-0.22 9.464-7.366 18.302 0.146 19.592 11.375 1.771 10.478 8.969 0.781 5.133-4.653-3.929-11.765-19.521-19.6-1.155-8.529 2.352-6.674 13.39 1.155 14.397 11.646 6.401 0.302 0.777-5.685-9.406-9.588-3.143-20.753-5.287-9.679-12.4-7.158-4.382-9.556 8.679-11.63 0.095-31.137-5.438-10.03 6.29-7.694-0.025-14.604 8.163-8.67 1.014-12.418-18.675-33.229-4.646 4.277-6.954-0.033-0.567-13.06c-0.615-0.629-1.229-1.263-1.843-1.898l14.351-14.631 21.272-11.045 3.186-14.756 53.354 3.051 46.468-29.277 3.5 29.983 91.844 7.948 31.138-10.612 42.458-69.173 13.556 6.167 10.294-4.877 13.85 34.376 67.425 10.665 29.8-13.021 1.135-19.021-14.737-22.2 18.336-8.876 18.106 5.15 5.467-4.457-0.354-16.789-12.533-9.134 0.316-17.332 9.368-1.46 4.542-31.27-18.447-7.764-12.643-27.199 4.887-18.328 14.979-5.929-0.491-16.638 74.241 17.412 45.229-5.809 18.718 50.382 24.761 36.499 29.513 84.178 8.717 61.194-19.188 1.805-28.22 18.793 10.677 17.679-8.852 29.775-2.145 32.407-10.92 36.946 26.109 2.405 8.143 9.423-8.53 17.498 6.987 9.285-7.586 15.724-19.242 6.407-5.364 20.068 14.829 57.061 50.407 10.345-4.454 15.951 10.586 13.244-0.652 20.022-11.002 9.657 0.088 22.717 15.444 41.54 54.091 37.098 10.574 49.211-34.127 89.076-32.237 22.99 1.787 1.762-25.187-2.255-13.501 14.732-20.796-52.922-100.24 17.9-67.36-12.463-26.7 61.52-40.163-46.341-61.649-39.457-51.078-3.895-43.177-16.343-34.397 11.586-49.737 45.954 7.451 75.605-8.271 4.961-16.155 45.663z"/>
    <polygon points="894.7 1579.1 903.99 1590 913.15 1589.9 919.01 1586.9 924.15 1591.6 923.94 1597.6 911.68 1602.6 899.27 1594.4 889.35 1597 896.47 1619.7 887.76 1626 877.15 1619.4 865.77 1622.3 855.41 1598.1 861.45 1586.9"/>
    <polygon points="946.07 1584.3 939.16 1584.3 932.69 1578.6 936.14 1572.6 944.86 1575.9"/>
    <polygon points="718.69 1856.6 711.03 1852 711.65 1848.7 719.42 1845.6 721.23 1852"/>
  </g>
  <polygon points="942.93 1406.1 964.2 1395 967.39 1380.3 1020.7 1383.3 1067.2 1354.1 1070.7 1384 1162.6 1392 1193.7 1381.4 1236.2 1312.2 1249.7 1318.4 1260 1313.5 1273.8 1347.9 1341.3 1358.5 1371.1 1345.5 1372.2 1326.5 1357.5 1304.3 1375.8 1295.4 1393.9 1300.6 1399.4 1296.1 1399 1279.3 1386.5 1270.2 1386.8 1252.8 1396.2 1251.4 1400.7 1220.1 1382.3 1212.4 1369.6 1185.2 1374.5 1166.8 1389.5 1160.9 1389 1144.3 1463.2 1161.7 1508.5 1155.9 1496.5 1123.8 1432 1015 1439.5 990.42 1537.6 806.45 1541.3 761.43 1495.2 726.91 1447.9 630.41 1375.6 601 1351.2 499.02 1379.9 447.12 1386.4 400.65 1378.3 386.87 1345.5 386.99 1399.4 341.63 1389.1 305.53 1392.6 271.82 1444.5 204.44 1415.2 129.75 1327.9 86.76 1325.9 67.806 1299.2 51.008 1271.5 12.47 1255.9 22.302 1240.5 17.299 1229.8 32.824 1187.1 66.719 1137.7 53.86 1109.3 63.807 1092 105.02 1062.8 131.01 1048.4 154.05 1053.9 170.02 1044.6 187.12 1026.3 291.8 1030 353.95 1020 388.94 999.65 383.73 981.2 394.82 956.06 431.8 958.87 467.55 941.62 467.44 935.45 480.04 911.32 450.34 867.69 431.25 826.47 400.72 805.63 411.66 794.59 431.12 767.05 440.85 737.89 454 730.95 439.64 698.88 436.32 668.21 414.11 650.5 421.56 652.53 387.16 582.53 245.22 541.14 230.85 515.37 243.52 498.1 264.17 508.24 290.96 503.04 309.06 470.39 283.77 447.25 306.41 476.91 344.77 478.67 371.09 501.4 377.22 533.96 444.82 557.71 452.2 566.44 474.12 588.64 484.98 597.65 511.03 630.18 518.45 673.48 538.31 720.52 581.65 720.61 610.54 726.81 627.53 741.16 625.52 747.15 654.02 773.58 681.53 762.58 694.6 753.88 709.27 753.48 727.72 754.67 784.43 739.6 823.16 751.23 844.08 778.79 848.84 771.76 864.71 777.09 882.97 753.37 895.3 752.27 926.74 799.77 1036.5 782.27 1055.8 778.86 1112.1 761.18 1127.4 756.44 1142.8 750.45 1161.4 754.62 1178.1 750.02 1190.1 757.86 1229 778.03 1248.6 779.11 1269.2 795.89 1296.5 797.37 1316.3 807.52 1343.6 807.78 1365.6 818.86 1364.3 826.61 1352 836.28 1363.6 857.17 1371.3 863.7 1381 856.36 1396.4 861.64 1402.5 871.78 1395.9 875.72 1408.6 883.97 1407.8 890.95 1402.1 904.87 1404.1 913.16 1414.8 922.03 1414 928.56 1420.7 927.96 1421.3" fill="none" stroke="#636347" stroke-width="2.8347"/>
  <g fill="none" stroke="#636347" stroke-width="2.8347">
    <polygon points="709.49 1860.3 711.03 1852 718.69 1856.6 716.83 1859.9"/>
    <polygon points="570.05 1982.5 567.46 1985.2 562.71 1975.7 566.39 1963.7 567.89 1958.8 574.8 1964.9 573.6 1978.8"/>
    <polygon points="453.78 2078.5 450.46 2079.4 445.71 2067.7 452.16 2065.9 454.78 2065.1 458.66 2069 458.34 2077.3"/>
    <polygon points="489.92 2100.4 488.49 2102.8 478.63 2103.3 473.95 2106.9 472.05 2108.3 467.3 2107.9 477.23 2091.9 486.3 2091.9 491.86 2097.1"/>
    <polygon points="503.35 2127.8 501.02 2132.1 487.69 2125.7 479.64 2126 476.36 2126 472.48 2117.4 485.43 2109.2 499.27 2115.1 505.72 2111.8 506.54 2121.8"/>
    <polygon points="442.74 2122.5 441.87 2125.2 434.59 2118.4 431.14 2126 429.74 2129.1 424.13 2127.8 424.13 2117.4 431.9 2108.3 443.94 2118.7"/>
    <polygon points="372.36 2086.2 372.42 2090.3 366.28 2099.7 360.44 2099.7 358.07 2099.7 361.53 2090.6 366.71 2080.7 372.28 2080.7"/>
    <polygon points="392.49 2094.1 394.01 2097.6 387.86 2105.7 380.49 2105.7 377.5 2105.7 372.75 2097.5 383.11 2089.3 390.41 2089.3"/>
    <polygon points="368.04 2120.9 365.42 2123.4 368.69 2129.1 375.9 2129.4 378.84 2129.5 382.74 2121.2 391.1 2123.4 397.91 2138.2 393.8 2148.9 382.57 2145 376.16 2155 367.24 2152.9 361.1 2147.2 354.19 2146.8 344.69 2110.5 351.16 2108.3 356.33 2114.1 365.36 2105.1 371.46 2110.5 371.63 2117.5"/>
    <polygon points="309.95 2202.5 309.82 2205.6 307.13 2211.2 302.83 2211.2 301.09 2211.2 297.63 2204.7 303.68 2195.6 310.11 2198.2"/>
    <polygon points="357.63 2206.3 358.03 2209.4 356.02 2218.6 351.95 2218.5 350.3 2218.5 344.69 2213.7 344.69 2199.9 350.3 2196.5 357.08 2202"/>
    <polygon points="350 2247.8 351.7 2251.4 345.99 2255.6 342.3 2258.7 340.81 2260 333.47 2255.6 338.65 2247 347.67 2242.7"/>
    <polygon points="332 2284.5 334.43 2289.5 332.6 2292.4 328 2292.7 326.13 2292.8 323.97 2288.5 324.83 2278.5 328.68 2277.7"/>
    <polygon points="329.87 2343.7 330.01 2345.5 323.11 2349.4 319.42 2345.7 317.92 2344.2 320.04 2338.1 323.06 2333.9 329.68 2341.3"/>
    <polygon points="334.98 2765.9 335.62 2768.9 331.74 2774.1 327.75 2774.4 326.13 2774.5 323.49 2764.6 324.94 2761.8 328.24 2758.1 334.09 2761.8"/>
    <polygon points="306.7 2980.3 306.7 2984.5 298.07 2984.5 294.35 2979.6 292.84 2977.6 290.36 2958.3 293.94 2955.3 306.7 2974.5"/>
    <polygon points="327.26 2970.3 327.46 2971.1 334.33 2977.6 331.26 2986.8 330.01 2990.5 323.13 2989 311.41 2974.1 311.51 2961.8 315.96 2957.9 326.99 2969.4"/>
    <polygon points="308.93 2944 309.29 2950.4 302.38 2957.3 295.91 2950.5 293.28 2947.7 292.08 2937.1 301.71 2930.3 308.43 2935.2"/>
    <polygon points="340.63 3191.1 341.2 3193.1 333.48 3198.2 329.16 3201.6 327.41 3203.1 319.66 3199.1 330.07 3188 339.85 3188.4"/>
    <polygon points="366.65 3163.7 366.68 3169.3 363.7 3173.6 357.54 3173 355.04 3172.8 351.61 3162.8 356.4 3157.3 360.72 3150.4 366.61 3156"/>
    <polygon points="287.34 3012.5 285.55 3016.4 278.21 3010.8 279.17 3003.6 279.56 3000.6 284.88 2997.2 289.8 3007"/>
    <polygon points="305.86 3028.2 304.97 3029.8 295.91 3030.7 292.84 3026.7 291.59 3025.1 294.24 3017.9 300.85 3017.1 307.07 3026"/>
    <polygon points="317.8 3018.4 316.45 3018.8 313.61 3023.4 310.54 3019.1 309.29 3017.3 310.64 3004.5 317.68 3003.7 319.65 3017.7"/>
    <polygon points="351.26 3009 348.81 3012.4 346.24 3017.1 341.45 3017.2 339.51 3017.3 337.35 3015.2 337.41 3007.1 352.65 2997.7 354.62 3004.4"/>
    <polygon points="313.01 3067.2 320.52 3067 320.07 3074.2 319.33 3079.7 319.03 3081.9 313.34 3083.8 307.13 3086.4 287.27 3079.5 290.36 3061.6 296.96 3060.8 302.75 3067.5"/>
    <polygon points="349.2 3090.5 348.45 3093.8 347.88 3099.7 346.22 3102.4 345.54 3103.6 339.32 3107.9 326.29 3108.4 320.52 3101.1 328.28 3093.4 329.28 3091.4 339.57 3079.7 350.06 3078.9 350.24 3086.1"/>
    <polygon points="315.73 3061.9 313.18 3064.8 307.74 3063.6 304.54 3061.4 303.24 3060.5 306.52 3057.2 307.13 3054.9 312.8 3049 320.28 3047.8 319.22 3057.9"/>
    <polygon points="341.73 3074.4 336.92 3076.9 331.31 3072.6 331.66 3058 331.8 3052.1 337.54 3048.7 348.31 3070.8"/>
    <polygon points="402.02 3019.7 409.22 3030 407.24 3038.9 406.71 3045.1 406.49 3047.6 399.24 3054.8 389.65 3053.2 390.22 3046.7 392.18 3036.1 382.91 3028.4 374.91 3010.4 376.64 2997.9 381.02 2994.2 391.08 3000.3 392.18 3005.6"/>
    <polygon points="388.72 3088.5 386.87 3091.2 375.51 3094.1 368.81 3103.9 366.09 3107.9 358.24 3105 360.66 3088.2 363.26 3077.8 381.15 3077.6 391.25 3084.8"/>
    <polygon points="371.84 3037.3 372.12 3039.7 361.96 3041.9 355.51 3036.1 352.89 3033.7 354 3027.8 356.84 3023.5 370.35 3027.9 371.46 3034.2"/>
    <polygon points="386.58 3112.4 376.37 3112.3 373.18 3106.8 379.94 3100.3 382.68 3097.7 402.48 3107.2 400.55 3112.6"/>
    <polygon points="404.34 3096.8 397.95 3097.6 397.78 3087.4 408.53 3081.5 412.9 3079.1 418.45 3082.6 413.07 3095.8"/>
    <polygon points="461.6 3071.2 447.01 3087.9 437.53 3088.7 432.77 3083.3 430.83 3081.1 432.45 3072.1 421.36 3068.9 418.95 3059.6 426.42 3045.4 438.37 3048.4 448.8 3047.3 476.56 3040.4 481.55 3048.4"/>
    <polygon points="457.29 3101.9 456.7 3101.7 451.01 3108.3 445.52 3108.3 443.29 3108.3 438.54 3103.2 451.75 3087.4 460.82 3086.9 466.37 3090.4 458.09 3102.3"/>
    <polygon points="486.45 3173 480.42 3171.8 475.23 3160.7 478.49 3158 479.81 3156.9 490.61 3158.6 498.24 3169.7 494.69 3174.7"/>
    <polygon points="455.38 3171.1 450.63 3171 448.47 3160.3 451.44 3157.6 452.64 3156.4 453.52 3156 456.93 3153.1 463.84 3157.3 463.27 3165 461.88 3171.2"/>
    <polygon points="458.14 3199.1 453.22 3197 465.99 3183.7 474.29 3184.3 477.66 3184.5 477.08 3193.5 464.88 3202.1"/>
    <polygon points="535.74 3127.6 534.81 3125.7 542.41 3118.1 547.32 3119.8 549.32 3120.6 545.73 3128.7 537 3130.2"/>
    <polygon points="530.08 3137.4 534.2 3134 542.42 3146.5 537.91 3149.1 536.08 3150.2 528.46 3153.7 524.45 3142.1"/>
    <polygon points="359.97 2629.1 364.12 2636.7 359.44 2641.9 352.33 2641.9 349.44 2641.9 342.53 2634.5 347.67 2629.3 349.4 2617.3 354.29 2618.7"/>
    <polygon points="533.12 3106.7 536.74 3114.9 521.45 3131.4 521.63 3138.2 521.7 3141 515.68 3149.4 503.15 3151.4 487.63 3145.1 477.64 3151.4 462.28 3150.4 454.15 3138.2 457.06 3123.9 474.02 3110.8 472.91 3104.2 467 3096.8 472.91 3091.6 472.97 3085.8 477.24 3081.5 486.31 3087.8 543.47 3074.2 528.17 3095.5"/>
    <polygon points="547.88 3114.8 541.19 3110.8 537.2 3089.7 558.09 3064.2 566.57 3053.9 560.99 3044.6 525.56 3072 502.65 3078.8 492.81 3069.8 477.12 3070.2 477.08 3060.6 491.8 3037.1 482.84 3030.3 477.24 3035.1 439.58 3042.4 429.67 3033 421.65 3032.5 423.32 3011.5 419.83 3008.8 410.99 3014.4 400.1 3004.5 403.31 3000.5 410.74 3000.9 411.14 2993 403.13 2985.2 381.86 2985.9 365.24 2990 366.01 2982 373.26 2971.8 381.16 2972.5 388.04 2954.8 381.28 2951.7 361.12 2962.5 356.17 2984 345.02 2985 340.67 2966.4 326.39 2953.8 315.41 2925 315.73 2907.1 310.64 2899 310.1 2885.9 307.68 2876.7 309.52 2871.3 312.74 2869.1 314.31 2864.1 299.13 2854.9 298.28 2849.2 311.58 2846.5 312.03 2838.7 305.55 2831.8 309.37 2827.8 316.68 2827.3 323.12 2840.3 329.95 2845.7 332.2 2838 321.28 2826.6 316.94 2802.8 325.23 2798.2 329.75 2805.2 336.7 2791.2 344.03 2749.3 351.56 2754.4 355.38 2749.5 354.59 2742.9 359.3 2718.5 349.04 2694.5 350.98 2691.5 355.67 2689.9 362.69 2692.7 368.1 2691.7 364.46 2682.8 353.24 2676.9 352.36 2669 359.93 2669.3 371.84 2672.8 371.51 2668.3 364.92 2663 357.86 2648.6 360.84 2643 366.42 2643.4 375.3 2653.5 381.96 2653.7 369.06 2624.7 369.07 2598.5 355.66 2581.1 358.36 2575.2 366.2 2574.4 366.71 2569.7 360.7 2565 357 2541.4 348.07 2536 345.37 2525.9 337.54 2512.9 344.75 2485.5 352.45 2472.9 352 2461.7 363.88 2449 362.31 2440.9 347.39 2435.1 347.36 2423.8 357.53 2410.3 358.17 2403.2 336.5 2402.1 330.06 2392.1 336.04 2368.3 331.43 2363.4 333.63 2344.8 343.49 2328.6 342.48 2322.1 337.31 2318.3 330.52 2324 326.7 2319.4 329.93 2298.8 334.83 2293.1 341.22 2287.3 342.18 2278.6 335.49 2271 336.68 2266.2 347.97 2266.8 353.67 2260.6 356.65 2242.6 367.6 2238.8 368.31 2244.3 379.56 2243 383.82 2238.7 382.52 2228.3 393 2218.4 394.06 2206.6 389.6 2197 379.13 2189 383.77 2181.5 393.72 2188.1 400.04 2186.1 409.18 2188.5 414.31 2186.5 411.19 2178.8 401.29 2170.1 400.06 2162.3 408.45 2151.9 409.22 2130.2 417.24 2122 422.08 2136.5 433.55 2136.2 458.15 2125.9 492.72 2138.3 505.66 2135.2 513.76 2119.9 524.83 2119.6 529.24 2108.9 517.17 2081.8 511.66 2076.3 509.28 2068.5 513.23 2063.3 520.83 2062.8 525.78 2041.4 532.6 2037.7 539.16 2046.3 542.93 2029.8 551.9 2023.2 552.9 2018.3 562.48 2010.1 569.14 2007.2 570.98 1998.5 583.04 1990.8 584.6 1979.1 581.85 1963 591.72 1956.4 601.43 1941.9 614.48 1942 620.45 1949.2 627.05 1949 632.89 1940.5 680.7 1938.3 681.75 1892.6 689.74 1886.9 701.57 1898.2 711.05 1896.5 712.26 1873 721.93 1858.3 779.99 1896.6 789.42 1934.2 800.21 1939.8 805.19 1960.7 819.95 1966.6 836.39 2016 898.25 2091.3 915.74 2089 922.21 2048.8 936.93 2042.6 983.6 2074.7 1007.2 2074.7 1016.7 2082.6 1025.6 2101.5 1056.4 2101.2 1049.5 2127.1 1060 2141.6 1063.5 2194.6 1083.9 2222.8 1071.8 2231 1081.4 2240.5 1073.4 2254 1044.1 2257.8 1085.8 2310 1098.1 2307 1115.8 2334.1 1120.7 2362.8 1101.1 2383.8 1101.2 2392.3 1123.5 2406.6 1134.3 2405.2 1140.9 2412.9 1130.4 2420.1 1147 2438.4 1132.3 2443.6 1123.7 2480.4 1106.1 2471.4 1081.6 2486.6 1067.8 2514.9 1089.9 2555.5 1083.4 2565.3 1088.6 2619.4 1109.8 2650.6 1104.6 2669.9 1085.9 2663.9 1083.3 2671 1054.1 2659.2 1033.3 2627.2 1015.1 2618.1 998.85 2646.2 986.44 2640.4 963.05 2651.1 947.48 2707.2 870.47 2714.4 861.84 2709.4 864.04 2762 846.46 2769.9 834.69 2758.1 829.28 2770.3 804.48 2760.7 775.94 2783.1 771.17 2779.5 767.72 2784.9 768.09 2791.4 771.41 2795.3 762.59 2805.8 693.8 2831.9 698.02 2864.3 692.91 2869.3 672.44 2846.9 642.52 2858.3 628.06 2858.5 625.78 2848.5 611.52 2837.7 601.23 2844 601.02 2852.3 613.21 2859.6 605.06 2878.6 590.5 2881.5 589.1 2895.4 597.34 2905.1 590.54 2911.2 591.3 2923.1 616.63 2936.1 635.82 2926.5 671.29 2953.7 702.72 2964.1 697.85 2971.1 703.36 2980.5 692.3 3005.3 669.12 3008.5 667.79 3022.2 677.96 3026.4 681.15 3045.6 671.3 3046.6 668.35 3066.4 653.45 3071.5 654.55 3105.7 638.53 3098.2 609.92 3112.4 600.3 3104.7 581.49 3124.4 556.5 3124.9 557.03 3120.3"/>
  </g>
  <g fill="none" stroke="#8c8c60" stroke-width="1.7008">
    <polygon points="913.15 1589.9 919.01 1586.9 924.15 1591.6 923.94 1597.6 911.68 1602.6 899.27 1594.4 889.35 1597 896.47 1619.7 887.76 1626 877.15 1619.4 865.77 1622.3 855.41 1598.1 861.45 1586.9 894.7 1579.1 903.99 1590"/>
    <polygon points="932.69 1578.6 936.14 1572.6 944.86 1575.9 946.07 1584.3 939.16 1584.3"/>
    <polygon points="711.65 1848.7 719.42 1845.6 721.23 1852 718.69 1856.6 711.03 1852"/>
  </g>
  <g transform="matrix(.021743 0 0 .021757 18.296 2903.6)">
    <path d="m2675.9 3581.1" fill="#d5d5d5" stroke="#969594" stroke-width="14"/>
    <path d="m3059.9 3880.1" fill="#d21034"/>
    <path d="m3059.9 3880.1" fill="#d21034"/>
    <path d="m3057.9 3880.1" fill="none" stroke="#d21034" stroke-width="14"/>
    <g fill="#fff">
      <path d="m2775.9 3815.1"/>
      <path d="m2826.9 3780.1"/>
    </g>
  </g>
  <g transform="matrix(.25076 0 0 .2777 913.88 2341.2)">
    <g transform="matrix(.85026 0 0 .85026 30.723 37.094)">
      <path d="m99.719 69.121c-0.238-0.145-0.334-0.434-0.192-0.678" fill="#ff1a3d"/>
    </g>
  </g>
  <g transform="matrix(.14453 0 0 .15112 940.9 591.28)">
    <path d="m369.28 831.07" fill="none" stroke="#fd1812" stroke-linecap="round" stroke-miterlimit="3.8637" stroke-width="3.5895"/>
  </g>
  <g transform="matrix(.81884 0 0 .9566 992.15 1573.6)">
    <g transform="translate(0,70)">
      <g fill="#fff" stroke="#0101ff">
        <path d="m15.82 100.13"/>
        <path d="m12.491 106.94"/>
      </g>
    </g>
  </g>
  <g transform="matrix(.225 0 0 .24333 377.21 2594.1)">
    <path d="m63.312 172.18-47.318-19.621v19.737l47.318-0.116z" fill="none"/>
  </g>
  <polygon points="942.93 1406.1 964.2 1395 967.39 1380.3 1020.7 1383.3 1067.2 1354.1 1070.7 1384 1162.6 1392 1193.7 1381.4 1236.2 1312.2 1249.7 1318.4 1260 1313.5 1273.8 1347.9 1341.3 1358.5 1371.1 1345.5 1372.2 1326.5 1357.5 1304.3 1375.8 1295.4 1393.9 1300.6 1399.4 1296.1 1399 1279.3 1386.5 1270.2 1386.8 1252.8 1396.2 1251.4 1400.7 1220.1 1382.3 1212.4 1369.6 1185.2 1374.5 1166.8 1389.5 1160.9 1389 1144.3 1463.2 1161.7 1508.5 1155.9 1496.5 1123.8 1432 1015 1439.5 990.42 1537.6 806.45 1541.3 761.43 1495.2 726.91 1447.9 630.41 1375.6 601 1351.2 499.02 1379.9 447.12 1386.4 400.65 1378.3 386.87 1345.5 386.99 1399.4 341.63 1389.1 305.53 1392.6 271.82 1444.5 204.44 1415.2 129.75 1327.9 86.76 1325.9 67.806 1299.2 51.008 1271.5 12.47 1255.9 22.302 1240.5 17.299 1229.8 32.824 1187.1 66.719 1137.7 53.86 1109.3 63.807 1092 105.02 1062.8 131.01 1048.4 154.05 1053.9 170.02 1044.6 187.12 1026.3 291.8 1030 353.95 1020 388.94 999.65 383.73 981.2 394.82 956.06 431.8 958.87 467.55 941.62 467.44 935.45 480.04 911.32 450.34 867.69 431.25 826.47 400.72 805.63 411.66 794.59 431.12 767.05 440.85 737.89 454 730.95 439.64 698.88 436.32 668.21 414.11 650.5 421.56 652.53 387.16 582.53 245.22 541.14 230.85 515.37 243.52 498.1 264.17 508.24 290.96 503.04 309.06 470.39 283.77 447.25 306.41 476.91 344.77 478.67 371.09 501.4 377.22 533.96 444.82 557.71 452.2 566.44 474.12 588.64 484.98 597.65 511.03 630.18 518.45 673.48 538.31 720.52 581.65 720.61 610.54 726.81 627.53 741.16 625.52 747.15 654.02 773.58 681.53 762.58 694.6 753.88 709.27 753.48 727.72 754.67 784.43 739.6 823.16 751.23 844.08 778.79 848.84 771.76 864.71 777.09 882.97 753.37 895.3 752.27 926.74 799.77 1036.5 782.27 1055.8 778.86 1112.1 761.18 1127.4 756.44 1142.8 750.45 1161.4 754.62 1178.1 750.02 1190.1 757.86 1229 778.03 1248.6 779.11 1269.2 795.89 1296.5 797.37 1316.3 807.52 1343.6 807.78 1365.6 818.86 1364.3 826.61 1352 836.28 1363.6 857.17 1371.3 863.7 1381 856.36 1396.4 861.64 1402.5 871.78 1395.9 875.72 1408.6 883.97 1407.8 890.95 1402.1 904.87 1404.1 913.16 1414.8 922.03 1414 928.56 1420.7 927.96 1421.3" fill="none" stroke="#8c8c60" stroke-width="1.7008"/>
  <path d="m1547.9 1445.2 5.562-18.758-10.678-17.677 28.221-18.793 19.188-1.806-8.717-61.193-29.515-84.178-24.76-36.499-18.717-50.382-45.229 5.809-74.241-17.413 0.492 16.637-14.979 5.931-4.887 18.328 12.643 27.197 18.448 7.766-4.543 31.27-9.368 1.46-0.316 17.331 12.533 9.134 0.354 16.789-5.467 4.457-18.106-5.149-18.337 8.876 14.737 22.199-1.134 19.021-29.799 13.021-67.426-10.665-13.85-34.376-10.294 4.877-13.556-6.167-42.458 69.173-31.138 10.612-91.844-7.948-3.501-29.982-46.467 29.275-53.354-3.049-3.186 14.756-21.272 11.045-14.351 14.632c0.613 0.637 1.229 1.27 1.842 1.897l0.568 13.06 6.954 0.032 4.646-4.276 18.675 33.229-1.013 12.419-8.164 8.67 0.026 14.604-6.291 7.693 5.439 10.031-0.097 31.137-8.678 11.63 4.383 9.556 12.399 7.158 5.287 9.679 3.143 20.753 9.406 9.588-0.777 5.685-6.402-0.302-14.396-11.646-13.39-1.155-2.353 6.674 1.157 8.529 19.521 19.599 3.929 11.767-5.134 4.651-8.968-0.78-1.771-10.478-19.592-11.375-18.302-0.146-9.464 7.366-21.419 0.22-7.164 6.368-4.227 7.662-12.354 1.43-5.124 26.487-19.122 13.296-10.166 43.018-12.632 9.758-0.883 6.985-17.422 11.541-20.213 21.665-3.015 7.172-7.681 12.603-0.23 14.684-6.117 3.309-7.512-4.977-8.962 13.563-7.425 5.98-7.422 11.308 57.929 38.51 9.423 37.625 10.789 5.611 4.982 20.951 14.755 5.811 16.445 49.443 61.857 75.332 17.486-2.319 6.477-40.236 14.721-6.113 46.666 32.015 23.586 0.073 9.487 7.912 8.912 18.815 30.854-0.219 16.136-45.649 8.271-4.961-7.451-75.604 49.737-45.955 34.397-11.585-10.836-13.63 0.01-70.041-15.597-10.377-11.723 1.629-14.485-12.693 2.275-14.176-7.396-16.378-13.218-8.671 25.056-25.566 13.211-3.875 4.921-15.921 28.358-13.833 10.009-29.027 25.887-12.342 0.84-7.385 30.441 7.012 5.715-15.388-2.465-40.854-17.13-14.331 12.694-20.845 27.861 0.123 14.498-10.812 16.14 2.105 14.2 9.804 6.104-37.517 14.884-9.059 72.263-12.974 3.364-33.548 40.895-19.299 8.685 7.097 14.772-4.446 12.434-26.642 6.031 5.005 34.95 1.648 36.714-7.132z" fill="none" stroke="#8c8c60" stroke-width="1.7008"/>
  <polygon points="1447.7 1974.5 1547.9 1956.6 1568.7 2009.5 1582.2 1994.8 1607.4 1997 1605.6 1995.2 1637.8 1972.3 1672 1883.2 1661.4 1834 1607.3 1796.9 1591.8 1755.3 1591.8 1732.6 1602.8 1723 1603.4 1702.9 1592.8 1689.7 1597.3 1673.8 1546.9 1663.4 1532 1606.3 1537.4 1586.3 1556.6 1579.9 1564.2 1564.1 1557.2 1554.9 1565.8 1537.4 1557.6 1527.9 1531.5 1525.5 1542.4 1488.6 1544.6 1456.2 1548 1444.6 1511.2 1452.3 1476.2 1450.6 1470.2 1445.6 1457.8 1472.3 1443 1476.7 1434.3 1469.6 1393.4 1488.9 1390 1522.5 1317.8 1535.4 1302.9 1544.5 1296.8 1582 1282.6 1572.2 1266.4 1570.1 1252 1580.9 1224.1 1580.8 1211.4 1601.6 1228.5 1616 1231 1656.8 1225.3 1672.2 1194.8 1665.2 1194 1672.6 1168.1 1684.9 1158.1 1714 1129.7 1727.8 1124.8 1743.7 1111.6 1747.6 1086.6 1773.2 1099.8 1781.8 1107.2 1798.2 1104.9 1812.4 1119.4 1825.1 1131.1 1823.4 1146.7 1833.8 1146.7 1903.9 1157.5 1917.5 1200.7 1933.8 1251.8 1937.7 1313.4 1977.2 1353.6 2023.5 1380.3 1962" fill="none" stroke="#8c8c60" stroke-width="1.7008"/>
  <polygon points="1412.1 2060 1405.5 2069.7 1409.4 2106.4 1424.6 2115.4 1425 2137 1411.4 2161.8 1422.3 2171.5 1445.5 2220.2 1477.9 2236.9 1456.2 2252.6 1473.8 2276.4 1455.3 2301.8 1430.4 2291 1426.4 2303.1 1413.4 2306.6 1431.2 2345.9 1443.4 2349.6 1471.2 2375.2 1473 2385.7 1487.4 2397.8 1481.3 2412.1 1495.3 2422.1 1509.5 2413.5 1517.9 2423.8 1517.9 2440.4 1536.6 2470.9 1547.7 2531.7 1566.8 2540.1 1574.6 2557.7 1568.2 2565.7 1579.5 2588.6 1566.8 2625.4 1656.3 2577 1674 2558.6 1713.9 2488.8 1742.6 2444.8 1761.5 2437.4 1796.6 2372.1 1838.1 2240.5 1826 2209.9 1791 2181.4 1779.4 2141.6 1754.5 2124.4 1722.8 2099.4 1678 2079.1 1659.9 2053.6 1607.1 1997.2 1582.1 1995 1568.6 2009.7 1547.8 1956.8 1447.5 1974.7 1380.2 1962.2 1364.5 1998.2 1384 2019.9 1399.5 2021.1 1403.4 2053" fill="none" stroke="#8c8c60" stroke-width="1.7008"/>
  <polygon points="1413.4 2306.6 1426.4 2303.1 1430.4 2291 1455.3 2301.8 1473.8 2276.4 1456.2 2252.6 1477.9 2236.9 1445.5 2220.2 1422.3 2171.5 1411.4 2161.8 1425 2137 1424.6 2115.4 1409.4 2106.4 1405.5 2069.7 1412.1 2060 1403.4 2053 1399.5 2021.1 1384 2019.9 1364.5 1998.2 1353.6 2023.5 1313.4 1977.2 1251.8 1937.7 1200.7 1933.8 1157.5 1917.5 1123.1 1929.1 1073.4 1975.1 1080.8 2050.6 1072.6 2055.6 1056.4 2101.2 1049.4 2127.2 1060 2141.6 1063.3 2194.6 1083.8 2222.8 1071.6 2231 1081.3 2240.5 1073.2 2254 1043.9 2257.8 1085.6 2310 1097.9 2307 1115.7 2334.1 1120.6 2362.7 1101 2383.7 1101 2392.2 1123.3 2406.4 1134.2 2405.1 1140.8 2412.7 1156.6 2404.2 1171.5 2410.7 1177 2402.4 1198.4 2397.1 1208.9 2410.5 1233.4 2393.9 1284.3 2438.2 1299 2463.8 1324.5 2465.3 1341.8 2480.6 1370.3 2477.4 1416.1 2495.2 1423.3 2477.5 1400.5 2449.1 1383.9 2453.1 1382.6 2438.1 1364.9 2438.8 1371.2 2426 1360.4 2417.8 1369.8 2402.3 1381.6 2403.8 1381.6 2374.4 1395.2 2374.4 1421.2 2348.8 1431.2 2345.9" fill="none" stroke="#8c8c60" stroke-width="1.7008"/>
  <g transform="matrix(.20552 0 0 .23578 1584.6 2225.3)">
    <g fill="none" stroke="#fe0000" stroke-width="4">
      <path d="m393.94 135.75"/>
      <path d="m368.06 159.26"/>
    </g>
  </g>
  <g transform="matrix(.20024 0 0 .21964 1212.4 2156.2)">
    <g transform="translate(2)">
      <path d="m385.01 351.51" fill="none" stroke="#000" stroke-linecap="round" stroke-width="5"/>
    </g>
  </g>
  <polygon points="1123.6 2480.2 1106 2471.3 1081.5 2486.5 1067.7 2514.7 1089.8 2555.3 1083.3 2565.1 1088.5 2619.1 1109.7 2650.3 1104.4 2669.6 1085.8 2663.6 1083.1 2670.6 1073.2 2697.4 1069.7 2729.3 1079.2 2736 1079.9 2748.6 1094.3 2762.1 1102.9 2763.4 1104.1 2778.9 1114.9 2774.6 1131 2800 1146.1 2792.3 1146.3 2776.7 1166.4 2777.1 1166.5 2803.9 1194.4 2817.7 1210.6 2812.2 1232 2807.1 1225 2792.9 1231.1 2781.1 1213.3 2762 1195.1 2764.7 1176.3 2753.4 1182.8 2743.5 1198.1 2744.8 1201.8 2737.8 1239.7 2738 1263.5 2752.3 1284.6 2743.6 1317.7 2750.4 1367.2 2746.1 1392.5 2714.8 1400.1 2696.1 1414.3 2706.9 1451.6 2706.7 1456.4 2689.7 1486.8 2691.1 1517.6 2681.3 1536.5 2649.8 1560.7 2641.7 1566.3 2625.6 1566.8 2625.4 1579.5 2588.6 1568.2 2565.7 1574.6 2557.7 1566.8 2540.1 1547.7 2531.7 1536.6 2470.9 1517.9 2440.4 1517.9 2423.8 1509.5 2413.5 1495.3 2422.1 1481.3 2412.1 1487.4 2397.8 1473 2385.7 1471.2 2375.2 1443.4 2349.6 1431.2 2345.9 1421.2 2348.8 1395.2 2374.4 1381.6 2374.4 1381.6 2403.8 1369.8 2402.3 1360.4 2417.8 1371.2 2426 1364.9 2438.8 1382.6 2438.1 1383.9 2453.1 1400.5 2449.1 1423.3 2477.5 1416.1 2495.2 1370.3 2477.4 1341.8 2480.6 1324.5 2465.3 1299 2463.8 1284.3 2438.2 1233.4 2393.9 1208.9 2410.5 1198.4 2397.1 1177 2402.4 1171.5 2410.7 1156.6 2404.2 1140.8 2412.7 1130.3 2420 1146.9 2438.3 1132.2 2443.5" fill="none" stroke="#8c8c60" stroke-width="1.7008"/>
  <g fill="none" stroke="#636347" stroke-width="2.8347">
    <polygon points="606.91 3201.8 612.35 3195.4 619.69 3196.9 629.19 3194.4 625.88 3202.1 621.48 3203.2 616.53 3206 611 3204.5"/>
    <polygon points="692.21 3168.2 699.17 3164.1 705.6 3164.1 708.74 3165.8 714.38 3165.8 703.94 3174.7 695.1 3182.2 686.78 3178"/>
    <polygon points="915.41 3099.5 920.2 3095.4 927.07 3095.4 930.12 3096.7 935.85 3097.1 933.41 3101.6 930.16 3105.2 919.9 3105.8 917.61 3102"/>
    <polygon points="951.29 3097.5 953.27 3115 947 3116 945.24 3112.3 945.2 3102.9"/>
    <polygon points="965.53 3078.1 967.64 3089.3 973.2 3096 972.99 3103.7 971.51 3105.3 971.4 3108.9 966.3 3114.2 961.68 3110.3 961.22 3097.2 960.74 3079.6"/>
    <polygon points="1002.7 3100.5 1006.1 3097.5 1012.9 3102.9 1015.4 3108.1 1009 3114.7 996.21 3112.9 995.75 3108.4 997.01 3102.1"/>
    <polygon points="1048.3 3091.6 1039.3 3093.5 1032.9 3087.3 1045.8 3080.7"/>
    <polygon points="1060.1 3067.7 1064.7 3078.2 1058.7 3081.4 1052.1 3077.6 1051 3074.7 1053.1 3067.8"/>
    <polygon points="1107 3061.8 1106.6 3068.9 1091.4 3066.4 1087.3 3059.6 1091.5 3054"/>
    <polygon points="1151.1 3066.1 1147.6 3071.9 1141 3068.1 1135.6 3064.4 1145 3056.6"/>
    <polygon points="1124.7 3039.4 1126.9 3047.3 1113.8 3057.3 1106.3 3050.6 1117 3039.3"/>
    <polygon points="1205.9 3079.5 1211.8 3085 1215 3087.3 1207.6 3091.8 1198.9 3091.4 1199.1 3083.8 1203.7 3079.3"/>
    <polygon points="1190.8 3059.2 1184.8 3059.4 1179.5 3046.9 1183.6 3033.3 1190.8 3035.8"/>
    <polygon points="581.49 3124.4 600.3 3104.7 609.92 3112.4 638.53 3098.2 654.55 3105.7 653.45 3071.5 668.35 3066.4 671.3 3046.6 681.15 3045.6 677.96 3026.4 667.79 3022.2 669.12 3008.5 692.3 3005.3 703.36 2980.5 697.85 2971.1 702.72 2964.1 671.29 2953.7 635.82 2926.5 616.63 2936.1 591.3 2923.1 590.54 2911.2 597.34 2905.1 589.1 2895.4 590.5 2881.5 605.06 2878.6 613.21 2859.6 601.02 2852.3 601.23 2844 611.52 2837.7 625.78 2848.5 628.06 2858.5 642.52 2858.3 672.44 2846.9 692.91 2869.3 698.02 2864.3 693.8 2831.9 762.59 2805.8 771.41 2795.3 768.09 2791.4 767.72 2784.9 771.17 2779.5 775.94 2783.1 804.48 2760.7 829.28 2770.3 834.69 2758.1 846.46 2769.9 864.04 2762 861.84 2709.4 870.47 2714.4 947.48 2707.2 963.05 2651.1 986.44 2640.4 998.85 2646.2 1015.1 2618.1 1033.3 2627.2 1054.1 2659.2 1083.4 2670.8 1073.3 2697.7 1069.8 2729.6 1079.3 2736.4 1080 2749 1094.4 2762.5 1103.1 2763.7 1104.2 2779.3 1115 2775 1131.1 2800.4 1146.2 2792.7 1146.4 2777.1 1166.6 2777.5 1166.6 2804.3 1194.5 2818.1 1210.7 2812.6 1232.2 2807.5 1225.2 2793.3 1231.2 2781.5 1213.4 2762.4 1195.2 2765.1 1176.4 2753.8 1182.9 2743.9 1198.2 2745.1 1201.9 2738.1 1239.8 2738.3 1263.6 2752.6 1284.8 2744 1317.8 2750.7 1367.4 2746.4 1392.7 2715.1 1400.2 2696.4 1414.4 2707.2 1451.7 2707 1456.5 2690.1 1487 2691.4 1517.7 2681.6 1536.6 2650.1 1560.8 2641.9 1566.4 2625.9 1655.8 2578 1652.9 2580.9 1640.9 2614.7 1610.9 2642.3 1590.7 2684.7 1565.3 2702.7 1559.6 2720.4 1521.8 2784.1 1477.7 2814.7 1461.9 2821.2 1442.9 2853.6 1440.5 2874.9 1420.1 2879.5 1381.8 2913 1374.5 2932.6 1320.7 2984.3 1320.2 2994.4 1309.9 3001.3 1297.8 2993.4 1293 2997.1 1289.3 3013.9 1284 3022.6 1275.9 3022.8 1266.2 3024.3 1259.8 3020.7 1254 3024.7 1246.9 3031.3 1237.9 3017.9 1214.4 3015.1 1185.9 3005.8 1174.4 3017.4 1174.8 3036 1170.6 3043.4 1158.9 3043.1 1145.6 3029.7 1137.7 3036.8 1127.7 3037.2 1121.5 3030.6 1114.8 3035.2 1100.8 3035.2 1084.6 3051 1077.2 3050.7 1072 3039.5 1062.1 3040.1 1063.2 3054.7 1057.9 3063.2 1051.9 3063.6 1046.8 3052.2 1035.9 3041 1020.4 3026.2 1019 3034.3 1028.5 3047.1 1031.2 3057.6 1040.5 3074.2 1034.9 3076.6 1027.3 3072.9 1022.4 3074.6 1023.3 3087.1 1018.2 3089.1 1009.9 3072 1005.7 3075.4 1010.4 3090.3 1006.1 3095.8 997.89 3090.6 990.47 3098.6 985.47 3097.7 972.85 3082 968.9 3067.4 952.98 3069.2 952.62 3082.4 946.49 3090 922.24 3090.6 902.95 3095.9 900.7 3102.9 892.95 3113.4 882.15 3110.1 883.84 3122.6 873.04 3131.8 870.92 3120.1 866.16 3127.6 852.04 3127.4 841.99 3120.6 815.23 3130 810.02 3124.8 807.88 3129.9 807.91 3139.8 778.55 3176.7 769.04 3175.9 781.98 3159 775.96 3155.5 769.03 3161.5 764.3 3161.5 765.22 3142.3 743.15 3154.5 712.93 3155.2 676.24 3170.9 658.14 3172.6 660.69 3181.9 654.24 3186.8 641.7 3184.1 625.74 3187.5 617.95 3181.9 605.88 3180.4 595.95 3191.4 595.95 3198.6 583 3209.6 557.96 3209.4 537.24 3218 530.32 3209.3 536.8 3202 564.44 3192.2 570.04 3185.5 572.63 3166.2 567.86 3158.8 562.26 3163.4 561.84 3179.2 557.1 3183.8 539.38 3180.7 529.66 3167.9 532.06 3156.1 543.28 3155.6 552.35 3160.3 556.5 3124.9 556.23 3124.9"/>
  </g>
  <g transform="matrix(.20124 0 0 .21675 1277.4 2534.8)">
    <path d="m101.5 145.17" fill="none" stroke="#fff" stroke-linecap="round" stroke-width="12"/>
    <g transform="matrix(-1 0 0 1 492.87 0)">
      <path d="m370.3 334" fill="none" stroke="#000" stroke-linecap="round" stroke-width="5"/>
    </g>
  </g>
  <g transform="matrix(.2045 0 0 .22092 727.24 2821.1)">
    <path d="m146.19 263.94" fill="none" stroke="#ef324e" stroke-width="2"/>
  </g>
  <polygon points="1287.2 2923.4 1265.6 2924 1246.4 2913.8 1239.5 2901.7 1214 2894.2 1206.3 2881.2 1214.3 2876.4 1199.9 2858.8 1205 2841.6 1220.9 2835.7 1210.7 2812.6 1232.2 2807.5 1225.2 2793.3 1231.2 2781.5 1213.4 2762.4 1195.2 2765.1 1176.4 2753.8 1182.9 2743.9 1198.2 2745.1 1201.9 2738.1 1239.8 2738.3 1263.6 2752.6 1284.8 2744 1317.8 2750.7 1367.4 2746.4 1392.7 2715.1 1400.2 2696.4 1414.4 2707.2 1451.7 2707 1456.5 2690.1 1487 2691.4 1517.7 2681.6 1536.6 2650.1 1560.8 2641.9 1566.4 2625.9 1655.8 2578 1652.9 2580.9 1640.9 2614.7 1610.9 2642.3 1590.7 2684.7 1565.3 2702.7 1559.6 2720.4 1521.8 2784.1 1477.7 2814.7 1461.9 2821.2 1442.9 2853.6 1440.5 2874.9 1420.1 2879.5 1381.8 2913 1374.5 2932.6 1336.5 2969.1 1318.6 2959.9 1310.7 2940.6 1294.5 2938.2" fill="none" stroke="#8c8c60" stroke-width="1.7008"/>
   <polygon points="886.52 2843.5 913.98 2827.1 911.8 2789.8 897.05 2778.4 885.52 2783.8 888.71 2771.9 864.04 2762 861.84 2709.4 870.47 2714.4 947.48 2707.2 963.05 2651.1 986.44 2640.4 998.85 2646.2 1015.1 2618.1 1033.3 2627.2 1054.1 2659.2 1083.4 2670.8 1073.3 2697.7 1069.8 2729.6 1079.3 2736.4 1080 2749 1094.4 2762.5 1103.1 2763.7 1104.2 2779.3 1095 2784.4 1087.1 2805.2 1066 2819.4 1044.2 2819.4 1040.5 2832.7 1046.4 2845.3 1050.7 2867.8 1038.3 2867 1032.9 2877.3 1048.9 2884.2 1041.2 2898.9 1041.8 2915.8 1055.4 2924.8 1057.6 2940.5 1061.9 2942.7 1060.2 2956.6 1047 2963.7 1034.3 2952.3 1014.4 2956.6 1013.7 2942.9 1000.3 2952.3 991.77 2950.9 963.63 2959.6 955.14 2951.6 955.14 2951.6 948.14 2926.2 943.41 2922 927.57 2938.6 907.14 2913.8 896.42 2916.2 886.58 2903.6 896.63 2895.1 879.1 2873.8" fill="none" stroke="#8c8c60" stroke-width="1.7008"/>
  <g transform="matrix(.26887 0 0 .276 952.05 2725.2)">
    <path d="m204.75 415" fill="#fff200"/>
    <line x1="204.75" x2="203.25" y1="415" y2="415" fill="none"/>
    <polygon points="193.25 432.75 193.5 433.01 193.5 433.01 193.25 433.01 193.25 433.01" fill="#fff200"/>
    <polygon points="26.501 43.254 26.501 43.254 26 43.254 25.749 43.254" fill="#fff200"/>
  </g>
   <polygon points="804.48 2760.7 775.94 2783.1 771.17 2779.5 767.72 2784.9 768.09 2791.4 771.41 2795.3 762.59 2805.8 693.8 2831.9 698.02 2864.3 692.91 2869.3 672.44 2846.9 642.52 2858.3 628.06 2858.5 625.78 2848.5 611.52 2837.7 601.23 2844 601.02 2852.3 613.21 2859.6 605.06 2878.6 590.5 2881.5 589.1 2895.4 597.34 2905.1 590.54 2911.2 591.3 2923.1 616.63 2936.1 635.82 2926.5 671.29 2953.7 702.72 2964.1 748.37 2972 754 2984.5 764.81 2976.2 775.92 2981.5 778.64 2991.8 806.56 2986.4 805.35 2972 813.2 2961.4 830.76 2964 870.55 2955.8 886.92 2961.5 897.29 2942.6 886.41 2938.9 896.43 2916.2 886.58 2903.6 896.63 2895.1 879.1 2873.8 886.52 2843.5 913.98 2827.1 911.8 2789.8 897.05 2778.4 885.52 2783.8 888.71 2771.9 864.04 2762 846.46 2769.9 834.69 2758.1 829.28 2770.3" fill="none" stroke="#8c8c60" stroke-width="1.7008"/>
  <g fill="none" stroke="#8c8c60" stroke-width="1.7008">
    <polyline points="908.61 3094.4 902.95 3095.9 900.7 3102.9 892.95 3113.4 882.15 3110.1 883.84 3122.6 873.04 3131.8 870.92 3120.1 866.16 3127.6 852.04 3127.4 841.99 3120.6 815.23 3130 810.02 3124.8 807.88 3129.9 807.91 3139.8 778.55 3176.7 769.04 3175.9 781.98 3159 775.96 3155.5 769.03 3161.5 764.3 3161.5 765.22 3142.3 743.15 3154.5 712.93 3155.2 676.24 3170.9 658.14 3172.6 660.69 3181.9 654.24 3186.8 641.7 3184.1 625.74 3187.5 617.95 3181.9 605.88 3180.4 595.95 3191.4 595.95 3198.6 583 3209.6 557.96 3209.4 537.24 3218 530.32 3209.3 536.8 3202 564.44 3192.2 570.04 3185.5 572.63 3166.2 567.86 3158.8 562.26 3163.4 561.84 3179.2 557.1 3183.8 539.38 3180.7 529.66 3167.9 532.06 3156.1 543.28 3155.6 552.35 3160.3 556.5 3124.9 556.23 3124.9 581.49 3124.4 600.3 3104.7 609.92 3112.4 638.53 3098.2 654.55 3105.7 653.45 3071.5 668.35 3066.4 671.3 3046.6 681.15 3045.6 677.96 3026.4 667.79 3022.2 669.12 3008.5 692.3 3005.3 703.36 2980.5 697.85 2971.1 702.72 2964.1 748.37 2972 754 2984.5 764.81 2976.2 775.92 2981.5 778.64 2991.8 806.56 2986.4 805.35 2972 813.2 2961.4 830.76 2964 870.55 2955.8 886.92 2961.5 897.29 2942.6 886.41 2938.9 896.43 2916.2 907.14 2913.8 927.57 2938.6 943.41 2922 948.14 2926.2 955.14 2951.6"/>
    <polygon points="619.69 3196.9 629.19 3194.4 625.88 3202.1 621.48 3203.2 616.53 3206 611 3204.5 606.91 3201.8 612.35 3195.4"/>
    <polygon points="705.6 3164.1 708.74 3165.8 714.38 3165.8 703.94 3174.7 695.1 3182.2 686.78 3178 692.21 3168.2 699.17 3164.1"/>
    <polyline points="955.14 2951.6 963.63 2959.6 991.77 2950.9 1000.3 2952.3 1013.7 2942.9 1014.4 2956.6 1034.3 2952.3 1047 2963.7 1060.2 2956.6 1061.7 2942.5 1061.4 2942.4 1077.7 2950.2 1085.6 2970.3 1095.2 2970.6 1100.5 2983.6 1114.1 2984.9 1120.3 2972.9 1130.8 2973.6 1137 2989.9 1123.6 2990.3 1102.9 3012 1101.6 3035.2 1100.8 3035.2 1084.6 3051 1077.2 3050.7 1072 3039.5 1062.1 3040.1 1063.2 3054.7 1057.9 3063.2 1051.9 3063.6 1046.8 3052.2 1035.9 3041 1020.4 3026.2 1019 3034.3 1028.5 3047.1 1031.2 3057.6 1040.5 3074.2 1034.9 3076.6 1027.3 3072.9 1022.4 3074.6 1023.3 3087.1 1018.2 3089.1 1009.9 3072 1005.7 3075.4 1010.4 3090.3 1006.1 3095.8 997.89 3090.6 990.47 3098.6 985.47 3097.7 972.85 3082 968.9 3067.4 952.98 3069.2 952.62 3082.4 946.49 3090 922.24 3090.6 908.61 3094.4"/>
    <polygon points="927.07 3095.4 930.12 3096.7 935.85 3097.1 933.41 3101.6 930.16 3105.2 919.9 3105.8 917.61 3102 915.41 3099.5 920.2 3095.4"/>
    <polygon points="947 3116 945.24 3112.3 945.2 3102.9 951.29 3097.5 953.27 3115"/>
    <polygon points="973.2 3096 972.99 3103.7 971.51 3105.3 971.4 3108.9 966.3 3114.2 961.68 3110.3 961.22 3097.2 960.74 3079.6 965.53 3078.1 967.64 3089.3"/>
    <polygon points="1012.9 3102.9 1015.4 3108.1 1009 3114.7 996.21 3112.9 995.75 3108.4 997.01 3102.1 1002.7 3100.5 1006.1 3097.5"/>
    <polygon points="1032.9 3087.3 1045.8 3080.7 1048.3 3091.6 1039.3 3093.5"/>
    <polygon points="1058.7 3081.4 1052.1 3077.6 1051 3074.7 1053.1 3067.8 1060.1 3067.7 1064.7 3078.2"/>
    <polygon points="1091.4 3066.4 1087.3 3059.6 1091.5 3054 1107 3061.8 1106.6 3068.9"/>
  </g>
  <g fill="none" stroke="#8c8c60" stroke-width="1.7008">
    <polygon points="1130.8 2973.6 1120.3 2972.9 1114.1 2984.9 1100.5 2983.6 1095.2 2970.6 1085.6 2970.3 1077.7 2950.2 1061.4 2942.4 1057.6 2940.5 1055.4 2924.8 1041.8 2915.8 1041.2 2898.9 1048.9 2884.2 1032.9 2877.3 1038.3 2867 1050.7 2867.8 1046.4 2845.3 1040.5 2832.7 1044.2 2819.4 1066 2819.4 1087.1 2805.2 1095 2784.4 1104.2 2779.3 1115 2775 1131.1 2800.4 1146.2 2792.7 1146.4 2777.1 1166.6 2777.5 1166.6 2804.3 1194.5 2818.1 1210.7 2812.7 1220.9 2835.7 1205 2841.6 1199.9 2858.8 1214.3 2876.4 1206.3 2881.2 1214 2894.2 1239.5 2901.7 1246.4 2913.8 1265.6 2924 1287.2 2923.4 1294.5 2938.2 1310.7 2940.6 1318.6 2959.9 1336.5 2969.1 1320.7 2984.3 1320.2 2994.4 1309.9 3001.3 1297.8 2993.4 1293 2997.1 1289.3 3013.9 1284 3022.6 1275.9 3022.8 1266.2 3024.3 1259.8 3020.7 1254 3024.7 1246.9 3031.3 1237.9 3017.9 1214.4 3015.1 1185.9 3005.8 1174.4 3017.4 1174.8 3036 1170.6 3043.4 1158.9 3043.1 1145.6 3029.7 1137.7 3036.8 1127.7 3037.2 1121.5 3030.6 1114.8 3035.2 1101.5 3035 1102.9 3012 1123.6 2990.3 1137 2989.9"/>
    <polygon points="1141 3068.1 1135.6 3064.4 1145 3056.6 1151.1 3066.1 1147.6 3071.9"/>
    <polygon points="1113.8 3057.3 1106.3 3050.6 1117 3039.3 1124.7 3039.4 1126.9 3047.3"/>
    <polygon points="1215 3087.3 1207.6 3091.8 1198.9 3091.4 1199.1 3083.8 1203.7 3079.3 1205.9 3079.5 1211.8 3085"/>
    <polygon points="1179.5 3046.9 1183.6 3033.3 1190.8 3035.8 1190.8 3059.2 1184.8 3059.4"/>
  </g>
  <polygon points="267.61 2961.8 278.21 2977.6 271.3 2995.7 263.1 2994 261.43 2962.2" fill="none" stroke="#8C8C60" stroke-width="1.7008"/>
  <polygon points="488.63 2496.4 509.28 2464.6 524.83 2464.1 538.15 2436.9 556.47 2446 567.73 2446.1 596.5 2446.2 627.94 2429.1 642.28 2403.8 669.99 2414.6 673.86 2404.8 694.74 2407.8 720.49 2386.6 732 2393.9 734.95 2418.1 746.28 2422.8 766.57 2399.5 792.86 2403.3 798.95 2392.1 821.08 2391.8 826.77 2353.2 819.23 2342.9 824.74 2335 802.35 2274 811.39 2266.9 798.23 2249.3 793.52 2211.1 803.88 2196.7 774.46 2182.8 787.45 2177.4 762.15 2145.4 737.58 2138.1 710.36 2102.3 696.18 2084.9 678.64 2076.5 654.69 2076.1 645.62 2102.8 633.62 2113.3 616.31 2108.3 583.53 2114.1 552.41 2129.3 552.05 2153.6 560.04 2153.9 566.41 2181.8 550.1 2181.6 515.89 2240.9 518.4 2257.9 488.98 2288.8 452.33 2276.6 428.86 2252.2 422.23 2259.9 418.7 2296.3 426.16 2303.9 401.88 2330.2 382.46 2387.6 390.09 2406.5 401.07 2410.1 401.64 2438.4 408.27 2441.2 415.47 2451.7 400.36 2461.4 403.16 2475.8 394.95 2482.3 391.71 2510.9 405.08 2523.2 438.42 2529.1 476.86 2496.4" fill="none" stroke="#8c8c60" stroke-width="1.7008"/>
  <polygon points="694.74 2407.8 673.86 2404.8 669.99 2414.6 642.28 2403.8 627.94 2429.1 596.5 2446.2 567.86 2446 567.86 2476.3 552.36 2483.7 551.48 2509.9 533.38 2511.6 524.2 2527 538 2533.8 538.02 2547.5 553.41 2559 559.53 2580.8 550.86 2611.1 537.8 2606.8 533.34 2629.8 544.53 2640.6 530.74 2652.3 521.39 2681.1 540.76 2694.6 538.12 2707.7 513.8 2711.3 504.58 2718.3 505.48 2731.6 518.55 2763.6 544.7 2772.3 553.25 2763 568.2 2778.2 561.36 2802.2 573.68 2823.5 563.57 2825.1 575.26 2838.8 594.65 2835 593.3 2845.5 601.23 2844 611.52 2837.7 625.78 2848.5 628.06 2858.5 642.52 2858.3 672.44 2846.9 692.91 2869.3 698.02 2864.3 693.8 2831.9 762.59 2805.8 771.41 2795.3 768.09 2791.4 767.72 2784.9 771.17 2779.5 775.94 2783.1 804.48 2760.7 829.28 2770.3 834.69 2758.1 846.46 2769.9 864.04 2762 861.84 2709.4 870.47 2714.4 871.66 2691 853.27 2675.8 851.12 2663 855.41 2653.6 865.1 2646.8 855.16 2640.9 852.74 2642.3 845.2 2637.8 846.32 2625.7 843.46 2616 848.96 2612.3 851.14 2618.4 858.32 2618 858.41 2611.6 851.39 2610.4 817.32 2567.8 830.71 2548.4 834.99 2556 849.37 2533 842.24 2506.9 819.85 2483.1 807.03 2487.7 786.5 2483.6 778.78 2461.6 767.57 2463.7 746.22 2450.9 746.28 2422.8 734.95 2418.1 732 2393.9 720.49 2386.6" fill="none" stroke="#8c8c60" stroke-width="1.7008"/>
  <path d="m328.24 2758.1 5.848 3.664 0.887 4.104 0.648 3.002-3.886 5.186-3.991 0.307-1.621 0.125-2.632-9.955 1.442-2.769 3.305-3.664zm21.156-140.84 4.895 1.389 5.677 10.41 4.149 7.611-4.684 5.209-7.107-0.018-2.887-0.01-6.908-7.345 5.141-5.202 1.724-12.046zm-19.561 187.73 6.857-13.778 7.341-41.897 7.526 5.013 3.814-4.844-0.79-6.586 4.718-24.388-10.263-24.057 1.938-3.021 4.691-1.531 7.021 2.747 5.406-0.987-3.634-8.882-11.228-5.921-0.873-7.918 7.563 0.298 11.917 3.514-0.339-4.484-6.584-5.322-7.066-14.347 2.982-5.663 5.583 0.398 8.876 10.121 6.66 0.231-12.902-28.973 0.012-26.275-13.398-17.35 2.691-5.937 7.846-0.831 0.509-4.659-6.019-4.682-3.698-23.582-8.925-5.476-2.057-7.632 15.129-13.787 30.566-3.592 13.367 12.237 33.339 5.915 38.438-32.691 11.774-0.056 20.651-31.696 15.547-0.531 13.324-27.186 18.313 9.094 11.39-0.048 0.011 30.278-15.512 7.486-0.877 26.12-18.094 1.76-9.188 15.384 13.807 6.782 0.016 13.729 15.387 11.516 6.123 21.737-8.664 30.274-13.065-4.247-4.453 23.052 11.184 10.777-13.791 11.637-9.352 28.832 19.376 13.557-2.643 13.058-24.318 3.563-9.222 6.994 0.896 13.382 13.073 31.948 26.147 8.677 8.556-9.304 14.942 15.252-6.829 23.966 12.314 21.278-10.109 1.593-15.557-5.22-2.016 26.938-24.94-6.832-23.51 7.138 5.149 6.49-26.439 7.013-18.928-3.552-15.825 14.238-5.556-8.184-26.859-2.597-10.449-29.393-11.468-10.349-20.958 15.142-1.087-25.88-13.023 9.803-11.157 0.862-11.105-15.656z" fill="none" stroke="#8c8c60" stroke-width="1.7008"/>
  <polygon points="786.5 2483.6 807.03 2487.7 819.85 2483.1 842.24 2506.9 849.37 2533 834.99 2556 830.71 2548.4 817.32 2567.8 851.39 2610.4 858.41 2611.6 858.32 2618 851.14 2618.4 848.96 2612.3 843.46 2616 846.32 2625.7 845.2 2637.8 852.74 2642.3 855.16 2640.9 865.1 2646.8 855.41 2653.6 851.12 2663 853.27 2675.8 871.66 2691 870.47 2714.4 947.48 2707.2 963.05 2651.1 986.44 2640.4 998.85 2646.2 1015.1 2618.1 1033.3 2627.2 1054.1 2659.2 1083.3 2671 1085.9 2663.9 1104.6 2669.9 1109.8 2650.6 1088.6 2619.4 1083.4 2565.3 1089.9 2555.5 1067.8 2514.9 1081.6 2486.6 1106.1 2471.4 1123.7 2480.4 1132.3 2443.6 1147 2438.4 1130.4 2420.1 1140.9 2412.9 1134.3 2405.2 1123.5 2406.6 1101.2 2392.3 1101.1 2383.8 1120.7 2362.8 1115.8 2334.1 1098.1 2307 1085.8 2310 1044.1 2257.8 1073.4 2254 1081.4 2240.5 1071.8 2231 1083.9 2222.8 1063.5 2194.6 1060 2141.6 1049.5 2127.1 1056.4 2101.2 1025.6 2101.5 1016.7 2082.6 1007.2 2074.7 983.6 2074.7 936.93 2042.6 922.21 2048.8 915.74 2089 897.72 2091 885.47 2093.1 861.47 2118.7 858.93 2188.2 836.03 2183.2 809.76 2192.8 803.61 2196.9 793.52 2211.1 798.23 2249.3 811.39 2266.9 802.35 2274 824.74 2335 819.23 2342.9 826.77 2353.2 821.08 2391.8 798.95 2392.1 792.86 2403.3 766.57 2399.5 746.12 2422.8 746.22 2450.9 767.57 2463.7 778.78 2461.6" fill="none" stroke="#8c8c60" stroke-width="1.7008"/>
  <g fill="none" stroke="#8c8c60" stroke-width="1.7008">
    <polygon points="563.57 2825.1 548.02 2819.8 546 2846.8 521.06 2840 497.55 2847.1 502.7 2853.6 476.26 2860.6 457.33 2857 441.51 2871.3 435.95 2863.1 409.09 2860.5 398.64 2831.1 387.17 2820.8 366.22 2835.9 365.13 2810 352.11 2819.8 340.95 2820.7 329.73 2804.9 325.23 2798.2 316.94 2802.8 321.28 2826.6 332.2 2838 329.95 2845.7 323.12 2840.3 316.68 2827.3 309.37 2827.8 305.55 2831.8 312.03 2838.7 311.58 2846.5 298.28 2849.2 299.13 2854.9 314.31 2864.1 312.74 2869.1 309.52 2871.3 307.68 2876.7 310.1 2885.9 310.64 2899 315.73 2907.1 315.41 2925 326.39 2953.8 340.67 2966.4 345.02 2985 356.17 2984 361.12 2962.5 381.28 2951.7 388.04 2954.8 381.16 2972.5 373.26 2971.8 366.01 2982 365.24 2990 381.86 2985.9 403.13 2985.2 411.14 2993 410.74 3000.9 403.31 3000.5 400.1 3004.5 410.99 3014.4 419.83 3008.8 423.32 3011.5 421.65 3032.5 429.67 3033 439.58 3042.4 477.24 3035.1 482.84 3030.3 491.8 3037.1 477.08 3060.6 477.12 3070.2 492.81 3069.8 502.65 3078.8 525.56 3072 560.99 3044.6 566.57 3053.9 558.09 3064.2 537.2 3089.7 541.19 3110.8 547.88 3114.8 557.03 3120.3 556.5 3124.9 581.49 3124.4 600.3 3104.7 609.92 3112.4 638.53 3098.2 654.55 3105.7 653.45 3071.5 668.35 3066.4 671.3 3046.6 681.15 3045.6 677.96 3026.4 667.79 3022.2 669.12 3008.5 692.3 3005.3 703.36 2980.5 697.85 2971.1 702.72 2964.1 671.29 2953.7 635.82 2926.5 616.63 2936.1 591.3 2923.1 590.54 2911.2 597.34 2905.1 589.1 2895.4 590.5 2881.5 605.06 2878.6 613.21 2859.6 601.02 2852.3 601.13 2844.5 593.3 2845.5 594.65 2835 575.26 2838.8"/>
    <polygon points="298.07 2984.5 294.35 2979.6 292.84 2977.6 290.36 2958.3 293.94 2955.3 306.7 2974.5 306.7 2980.3 306.7 2984.5"/>
    <polygon points="334.33 2977.6 331.26 2986.8 330.01 2990.5 323.13 2989 311.41 2974.1 311.51 2961.8 315.96 2957.9 326.99 2969.4 327.26 2970.3 327.46 2971.1"/>
    <polygon points="302.38 2957.3 295.91 2950.5 293.28 2947.7 292.08 2937.1 301.71 2930.3 308.43 2935.2 308.93 2944 309.29 2950.4"/>
    <polygon points="333.48 3198.2 329.16 3201.6 327.41 3203.1 319.66 3199.1 330.07 3188 339.85 3188.4 340.63 3191.1 341.2 3193.1"/>
    <polygon points="363.7 3173.6 357.54 3173 355.04 3172.8 351.61 3162.8 356.4 3157.3 360.72 3150.4 366.61 3156 366.65 3163.7 366.68 3169.3"/>
    <polygon points="278.21 3010.8 279.17 3003.6 279.56 3000.6 284.88 2997.2 289.8 3007 287.34 3012.5 285.55 3016.4"/>
    <polygon points="295.91 3030.7 292.84 3026.7 291.59 3025.1 294.24 3017.9 300.85 3017.1 307.07 3026 305.86 3028.2 304.97 3029.8"/>
    <polygon points="313.61 3023.4 310.54 3019.1 309.29 3017.3 310.64 3004.5 317.68 3003.7 319.65 3017.7 317.8 3018.4 316.45 3018.8"/>
    <polygon points="346.24 3017.1 341.45 3017.2 339.51 3017.3 337.35 3015.2 337.41 3007.1 352.65 2997.7 354.62 3004.4 351.26 3009 348.81 3012.4"/>
    <polygon points="320.07 3074.2 319.33 3079.7 319.03 3081.9 313.34 3083.8 307.13 3086.4 287.27 3079.5 290.36 3061.6 296.96 3060.8 302.75 3067.5 313.01 3067.2 320.52 3067"/>
    <polygon points="347.88 3099.7 346.22 3102.4 345.54 3103.6 339.32 3107.9 326.29 3108.4 320.52 3101.1 328.28 3093.4 329.28 3091.4 339.57 3079.7 350.06 3078.9 350.24 3086.1 349.2 3090.5 348.45 3093.8"/>
    <polygon points="307.74 3063.6 304.54 3061.4 303.24 3060.5 306.52 3057.2 307.13 3054.9 312.8 3049 320.28 3047.8 319.22 3057.9 315.73 3061.9 313.18 3064.8"/>
    <polygon points="331.31 3072.6 331.66 3058 331.8 3052.1 337.54 3048.7 348.31 3070.8 341.73 3074.4 336.92 3076.9"/>
    <polygon points="407.24 3038.9 406.71 3045.1 406.49 3047.6 399.24 3054.8 389.65 3053.2 390.22 3046.7 392.18 3036.1 382.91 3028.4 374.91 3010.4 376.64 2997.9 381.02 2994.2 391.08 3000.3 392.18 3005.6 402.02 3019.7 409.22 3030"/>
    <polygon points="375.51 3094.1 368.81 3103.9 366.09 3107.9 358.24 3105 360.66 3088.2 363.26 3077.8 381.15 3077.6 391.25 3084.8 388.72 3088.5 386.87 3091.2"/>
    <polygon points="361.96 3041.9 355.51 3036.1 352.89 3033.7 354 3027.8 356.84 3023.5 370.35 3027.9 371.46 3034.2 371.84 3037.3 372.12 3039.7"/>
    <polygon points="373.18 3106.8 379.94 3100.3 382.68 3097.7 402.48 3107.2 400.55 3112.6 386.58 3112.4 376.37 3112.3"/>
    <polygon points="397.78 3087.4 408.53 3081.5 412.9 3079.1 418.45 3082.6 413.07 3095.8 404.34 3096.8 397.95 3097.6"/>
    <polygon points="437.53 3088.7 432.77 3083.3 430.83 3081.1 432.45 3072.1 421.36 3068.9 418.95 3059.6 426.42 3045.4 438.37 3048.4 448.8 3047.3 476.56 3040.4 481.55 3048.4 461.6 3071.2 447.01 3087.9"/>
    <polygon points="451.01 3108.3 445.52 3108.3 443.29 3108.3 438.54 3103.2 451.75 3087.4 460.82 3086.9 466.37 3090.4 458.09 3102.3 457.29 3101.9 456.7 3101.7"/>
    <polygon points="475.23 3160.7 478.49 3158 479.81 3156.9 490.61 3158.6 498.24 3169.7 494.69 3174.7 486.45 3173 480.42 3171.8"/>
    <polygon points="448.47 3160.3 451.44 3157.6 452.64 3156.4 453.52 3156 456.93 3153.1 463.84 3157.3 463.27 3165 461.88 3171.2 455.38 3171.1 450.63 3171"/>
    <polygon points="465.99 3183.7 474.29 3184.3 477.66 3184.5 477.08 3193.5 464.88 3202.1 458.14 3199.1 453.22 3197"/>
    <polygon points="542.41 3118.1 547.32 3119.8 549.32 3120.6 545.73 3128.7 537 3130.2 535.74 3127.6 534.81 3125.7"/>
    <polygon points="542.42 3146.5 537.91 3149.1 536.08 3150.2 528.46 3153.7 524.45 3142.1 530.08 3137.4 534.2 3134"/>
    <polygon points="521.45 3131.4 521.63 3138.2 521.7 3141 515.68 3149.4 503.15 3151.4 487.63 3145.1 477.64 3151.4 462.28 3150.4 454.15 3138.2 457.06 3123.9 474.02 3110.8 472.91 3104.2 467 3096.8 472.91 3091.6 472.97 3085.8 477.24 3081.5 486.31 3087.8 543.47 3074.2 528.17 3095.5 533.12 3106.7 536.74 3114.9"/>
  </g>
  <g fill="none" stroke="#8c8c60" stroke-width="1.7008">
    <path d="m897.72 2091-61.329-75.051-16.445-49.443-14.754-5.811-4.983-20.951-10.789-5.611-9.424-37.625-58.069-38.279-9.67 14.733-1.203 23.492-9.486 1.651-11.824-11.282-7.989 5.695-1.053 45.739-47.806 2.163-5.849 8.546-6.594 0.147-5.969-7.189-13.053-0.075c-0.33 0.491-0.403 0.039-0.732 0.531l14.273 39.262 6.222-8.429 32.693 24.414 23.092-11.26 6.048 8.996 10.622-8.238 36.775 29.568-8.372 8.977-17.263 0.396-10.754-8.767-13.741 8.888 9.069 16.032 8.416-2.396 20.42 37.058-7.796 26.013 27.172 35.132 24.577 7.385 25.292 31.96-12.989 5.361 29.43 13.912 5.875-3.831 26.271-9.694 22.9 4.99 2.541-69.452 24-25.57 12.248-2.087z"/>
    <polygon points="718.69 1856.6 716.83 1859.9 709.49 1860.3 711.03 1852"/>
  </g>
  <g transform="matrix(.22036 0 0 .23979 694.23 1992.8)">
    <path d="m34.503 120.4" fill="none" stroke="#000" stroke-width="2.8347"/>
    <path d="m210.42 144.26" fill="#ed1a24"/>
    <path d="m246.32 144.26" fill="#ed1a24"/>
    <polygon points="465.94 133.53 465.94 144.26 435.64 144.2" fill="none"/>
  </g>
  <g fill="none" stroke="#8c8c60" stroke-width="1.7008">
    <polygon points="562.71 1975.7 566.39 1963.7 567.89 1958.8 574.8 1964.9 573.6 1978.8 570.05 1982.5 567.46 1985.2"/>
    <polygon points="445.71 2067.7 452.16 2065.9 454.78 2065.1 458.66 2069 458.34 2077.3 453.78 2078.5 450.46 2079.4"/>
    <polygon points="478.63 2103.3 473.95 2106.9 472.05 2108.3 467.3 2107.9 477.23 2091.9 486.3 2091.9 491.86 2097.1 489.92 2100.4 488.49 2102.8"/>
    <polygon points="487.69 2125.7 479.64 2126 476.36 2126 472.48 2117.4 485.43 2109.2 499.27 2115.1 505.72 2111.8 506.54 2121.8 503.35 2127.8 501.02 2132.1"/>
    <polygon points="434.59 2118.4 431.14 2126 429.74 2129.1 424.13 2127.8 424.13 2117.4 431.9 2108.3 443.94 2118.7 442.74 2122.5 441.87 2125.2"/>
    <polygon points="366.28 2099.7 360.44 2099.7 358.07 2099.7 361.53 2090.6 366.71 2080.7 372.28 2080.7 372.36 2086.2 372.42 2090.3"/>
    <polygon points="387.86 2105.7 380.49 2105.7 377.5 2105.7 372.75 2097.5 383.11 2089.3 390.41 2089.3 392.49 2094.1 394.01 2097.6"/>
    <polygon points="368.69 2129.1 375.9 2129.4 378.84 2129.5 382.74 2121.2 391.1 2123.4 397.91 2138.2 393.8 2148.9 382.57 2145 376.16 2155 367.24 2152.9 361.1 2147.2 354.19 2146.8 344.69 2110.5 351.16 2108.3 356.33 2114.1 365.36 2105.1 371.46 2110.5 371.63 2117.5 368.04 2120.9 365.42 2123.4"/>
    <polygon points="307.13 2211.2 302.83 2211.2 301.09 2211.2 297.63 2204.7 303.68 2195.6 310.11 2198.2 309.95 2202.5 309.82 2205.6"/>
    <polygon points="356.02 2218.6 351.95 2218.5 350.3 2218.5 344.69 2213.7 344.69 2199.9 350.3 2196.5 357.08 2202 357.63 2206.3 358.03 2209.4"/>
    <polygon points="345.99 2255.6 342.3 2258.7 340.81 2260 333.47 2255.6 338.65 2247 347.67 2242.7 350 2247.8 351.7 2251.4"/>
    <polygon points="332.6 2292.4 328 2292.7 326.13 2292.8 323.97 2288.5 324.83 2278.5 328.68 2277.7 332 2284.5 334.43 2289.5"/>
    <polygon points="323.11 2349.4 319.42 2345.7 317.92 2344.2 320.04 2338.1 323.06 2333.9 329.68 2341.3 329.87 2343.7 330.01 2345.5"/>
    <polygon points="680.3 2026.2 694.03 2017.3 704.79 2026.1 722.05 2025.7 730.42 2016.7 693.65 1987.2 683.03 1995.4 676.98 1986.4 653.89 1997.7 621.19 1973.3 614.97 1981.7 600.86 1942.7 591.72 1956.4 581.85 1963 584.6 1979.1 583.04 1990.8 570.98 1998.5 569.14 2007.2 562.48 2010.1 552.9 2018.3 551.9 2023.2 542.93 2029.8 539.16 2046.3 532.6 2037.7 525.78 2041.4 520.83 2062.8 513.23 2063.3 509.28 2068.5 511.66 2076.3 517.17 2081.8 529.24 2108.9 524.83 2119.6 513.76 2119.9 505.66 2135.2 492.72 2138.3 458.15 2125.9 433.55 2136.2 422.08 2136.5 417.24 2122 409.22 2130.2 408.45 2151.9 400.06 2162.3 401.29 2170.1 411.19 2178.8 414.31 2186.5 409.18 2188.5 400.04 2186.1 393.72 2188.1 383.77 2181.5 379.13 2189 389.6 2197 394.06 2206.6 393 2218.4 382.52 2228.3 383.82 2238.7 379.56 2243 368.31 2244.3 367.6 2238.8 356.65 2242.6 353.67 2260.6 347.97 2266.8 336.68 2266.2 335.49 2271 342.18 2278.6 341.22 2287.3 334.83 2293.1 329.93 2298.8 326.7 2319.4 330.52 2324 337.31 2318.3 342.48 2322.1 343.49 2328.6 333.63 2344.8 331.43 2363.4 336.04 2368.3 330.06 2392.1 336.5 2402.1 358.17 2403.2 357.53 2410.3 347.36 2423.8 347.39 2435.1 362.31 2440.9 363.88 2449 352 2461.7 352.45 2472.9 344.75 2485.5 337.54 2512.9 345.37 2525.9 346.02 2528.3 361.14 2514.5 391.71 2510.9 394.95 2482.3 403.16 2475.8 400.36 2461.4 415.47 2451.7 408.27 2441.2 401.64 2438.4 401.07 2410.1 390.09 2406.5 382.46 2387.6 401.88 2330.2 426.16 2303.9 418.7 2296.3 422.23 2259.9 428.86 2252.2 452.33 2276.6 488.98 2288.8 518.4 2257.9 515.89 2240.9 550.1 2181.6 566.41 2181.8 560.04 2153.9 552.05 2153.6 552.41 2129.3 583.53 2114.1 616.31 2108.3 633.62 2113.3 645.62 2102.8 654.69 2076.1 678.64 2076.5 696.18 2084.9 710.36 2102.3 718.2 2076.9 697.78 2039.9 689.36 2042.3"/>
  </g>
</svg>
