<svg xmlns="http://www.w3.org/2000/svg" viewBox="0 0 256 256"><defs><linearGradient x1="-15.6" x2="-6.7" y1="-9.1" y2="-9.1" gradientTransform="matrix(-4.02e-7 -9.1891 -9.1891 4.02e-7 8.5881 16.143)" gradientUnits="userSpaceOnUse"><stop stop-color="#97d9f6" offset="0"/><stop stop-color="#0f80cc" offset=".92024"/><stop stop-color="#0f80cc" offset="1"/></linearGradient></defs><g transform="matrix(1.25 0 0 -1.25 -41.575 299.78)matrix(1.5512 0 0 1.5512 -16.326 -27.718)"><path d="m103.1 71.6c-0.1 0.7-0.1 1.2-0.1 1.2s-2.2 14.8-4.8 19.2c-0.4 0.7 0 3.6 1.2 7.8 0.7-1.2 3.5-6.1 4.1-7.7 0.6-1.8 0.8-2.3 0.8-2.3s-1.6 8-4.1 12.7c0.6 1.9 1.2 4 2 6.2 1-1.7 3.3-5.8 3.8-7.2 0.1-0.3 0.2-0.5 0.3-0.8l0.1 0.4c-0.6 2.5-1.7 6.8-3.3 10 3.5 18.2 15.4 42.4 27.6 53.3h-79.6c-5.3 0-9.7-4.4-9.7-9.7v-87.8c0-5.3 4.4-9.7 9.7-9.7h52.4c-0.4 4.6-0.5 9.6-0.3 14.5" fill="#0f80cc"/><path d="m99.4 99.8c0.7-1.2 3.5-6.1 4.1-7.7 0.6-1.8 0.8-2.3 0.8-2.3s-1.6 8-4.1 12.7c0.6 1.9 1.2 4 2 6.2 0.9-1.6 2.9-5.1 3.6-6.8 0 0.3 0.1 0.6 0.1 1-0.6 2.5-1.6 5.7-2.9 8.3 3.2 16.7 13.6 38.6 24.7 50.4h-76.7c-3.8 0-6.9-3.1-6.9-6.9v-81.4c17.4 6.7 38.3 12.8 56.4 12.5-0.7 2.6-1.4 4.9-2.2 6.3-0.4 0.7 0 3.6 1.2 7.8" fill="url(#a)"/><path d="m149.1 167.1c-5.5 4.9-12.1 2.9-18.6-2.9-1-0.9-1.9-1.8-2.9-2.8-11.1-11.8-21.5-33.7-24.7-50.4 1.3-2.5 2.2-5.8 2.9-8.3 0.2-0.6 0.3-1.2 0.4-1.7 0.3-1.2 0.4-2 0.4-2s-0.1 0.4-0.5 1.6c-0.1 0.2-0.2 0.5-0.3 0.8 0 0.1-0.1 0.3-0.2 0.4-0.7 1.7-2.7 5.3-3.6 6.8-0.8-2.2-1.4-4.3-2-6.2 2.6-4.7 4.1-12.7 4.1-12.7s-0.1 0.5-0.8 2.3c-0.6 1.6-3.4 6.6-4.1 7.7-1.2-4.2-1.6-7.1-1.2-7.8 0.8-1.4 1.6-3.7 2.2-6.3 1.5-5.8 2.6-12.9 2.6-12.9s0-0.5 0.1-1.2c-0.2-4.9-0.1-9.9 0.3-14.5 0.5-6.1 1.4-11.3 2.6-14l0.8 0.4c-1.8 5.5-2.5 12.7-2.2 21 0.5 12.7 3.4 28 8.8 43.9 9.1 24.1 21.7 43.4 33.3 52.6-10.5-9.5-24.8-40.3-29.1-51.7-4.8-12.8-8.2-24.8-10.2-36.3 3.5 10.8 14.9 15.4 14.9 15.4s5.6 6.9 12.1 16.7c-3.9-0.9-10.3-2.4-12.5-3.3-3.2-1.3-4-1.8-4-1.8s10.3 6.3 19.1 9.1c12.1 19.1 25.3 46.2 12 58.1" fill="#003b57"/></g></svg>