<?xml version="1.0" standalone="no"?>
<!DOCTYPE svg PUBLIC "-//W3C//DTD SVG 20010904//EN"
 "http://www.w3.org/TR/2001/REC-SVG-20010904/DTD/svg10.dtd">
<svg version="1.0" xmlns="http://www.w3.org/2000/svg"
 width="278.000000pt" height="278.000000pt" viewBox="0 0 278.000000 278.000000"
 preserveAspectRatio="xMidYMid meet">
<metadata>
Created by potrace 1.11, written by Peter Selinger 2001-2013
</metadata>
<g transform="translate(0.000000,278.000000) scale(0.100000,-0.100000)"
fill="#000000" stroke="none">
<path d="M1415 2769 c-204 -24 -340 -156 -418 -405 -35 -111 -50 -224 -50
-389 0 -279 45 -453 162 -625 43 -64 73 -96 221 -235 108 -102 140 -147 170
-239 16 -49 16 -168 1 -224 -15 -54 -71 -117 -118 -133 -52 -17 -140 -6 -195
26 -56 31 -136 111 -181 180 -18 28 -37 50 -42 50 -6 0 -11 -113 -13 -304 -3
-347 -9 -319 90 -382 149 -96 368 -105 521 -22 56 31 133 111 171 179 33 59
70 163 85 234 6 30 13 69 17 85 11 53 13 388 3 450 -5 33 -12 75 -14 94 -3 18
-7 36 -10 40 -2 4 -6 19 -9 33 -7 39 -56 158 -89 213 -39 66 -99 139 -167 200
-134 122 -199 196 -232 262 -30 62 -33 75 -33 163 0 81 4 102 24 143 14 26 41
60 60 75 32 24 45 27 111 27 95 0 149 -25 236 -113 55 -55 64 -60 72 -45 14
30 9 547 -6 566 -15 17 -105 63 -154 78 -18 6 -55 12 -83 15 -27 3 -54 6 -60
8 -5 1 -37 -1 -70 -5z"/>
<path d="M2057 1603 c-2 -5 -5 -81 -5 -171 l-1 -163 37 -37 c21 -20 69 -64
107 -97 38 -33 80 -71 95 -85 14 -14 44 -40 66 -59 21 -19 60 -53 86 -76 l48
-43 -186 -153 c-103 -85 -202 -167 -220 -184 l-34 -30 3 -169 c1 -106 6 -171
12 -173 12 -4 41 21 180 155 50 48 162 155 249 237 194 183 206 194 207 203 1
4 2 58 3 120 l2 113 -209 207 c-114 114 -254 253 -310 310 -95 95 -120 113
-130 95z"/>
<path d="M386 1289 l-314 -314 0 -117 0 -117 86 -85 c48 -46 105 -101 127
-122 22 -20 111 -104 197 -186 221 -210 221 -210 233 -194 6 8 10 82 10 176
l0 164 -190 159 c-104 87 -203 170 -220 183 -28 23 -29 25 -12 38 10 8 40 34
66 57 42 38 159 143 211 189 9 8 46 41 81 72 l64 57 0 165 c0 116 -4 169 -12
177 -10 10 -80 -55 -327 -302z"/>
</g>
</svg>
