<svg xmlns="http://www.w3.org/2000/svg" xmlns:xlink="http://www.w3.org/1999/xlink" viewBox="0 0 600 300">
  <clipPath id="ck-cp">
    <path d="M0,0V75H350V150H300zM300,0H150V200H0V150z"/>
  </clipPath>
  <rect width="600" height="300" fill="#00247d"/>
  <path d="M0,0L300,150M300,0L0,150" stroke="#fff" stroke-width="30"/>
  <path d="M0,0L300,150M300,0L0,150" stroke="#cf142b" stroke-width="20" clip-path="url(#ck-cp)"/>
  <path d="M150,0V200M0,75H350" stroke="#fff" stroke-width="50"/>
  <path d="M150,0V200M0,75H350" stroke="#cf142b" stroke-width="30"/>
  <path d="M300,0V150H0V300H600V0z" fill="#00247d"/>
  <g transform="translate(450,150)">
    <g id="ck-s1" transform="translate(0,-102)" fill="#fff">
      <g id="ck-c">
        <path id="ck-t" d="M0,-22.5V0H12" transform="rotate(18,0,-22.5)"/>
        <use xlink:href="#ck-t" transform="scale(-1,1)"/>
      </g>
      <use xlink:href="#ck-c" transform="rotate(72)"/>
      <use xlink:href="#ck-c" transform="rotate(144)"/>
      <use xlink:href="#ck-c" transform="rotate(216)"/>
      <use xlink:href="#ck-c" transform="rotate(288)"/>
    </g>
    <g id="ck-s7">
      <use xlink:href="#ck-s1" transform="rotate(24)"/>
      <use xlink:href="#ck-s1" transform="rotate(48)"/>
      <use xlink:href="#ck-s1" transform="rotate(72)"/>
      <use xlink:href="#ck-s1" transform="rotate(96)"/>
      <use xlink:href="#ck-s1" transform="rotate(120)"/>
      <use xlink:href="#ck-s1" transform="rotate(144)"/>
      <use xlink:href="#ck-s1" transform="rotate(168)"/>
    </g>
    <use xlink:href="#ck-s7" transform="rotate(168)"/>
  </g>
</svg>
