<svg viewBox="-120 -80 240 160" xmlns="http://www.w3.org/2000/svg" xmlns:xlink="http://www.w3.org/1999/xlink">
  <defs>
    <path id="ke-b" transform="rotate(30)" d="m-1 55.426h2v-93.426c2-2 2-5 2-8 0-2 0-10-3-18.663-3 8.6632-3 16.663-3 18.663 0 3 0 6 2 8z" stroke-miterlimit="10"/>
  </defs>
  <rect x="-120" y="-80" width="240" height="160" fill="#fff"/>
  <rect x="-120" y="-80" width="240" height="48"/>
  <rect x="-120" y="32" width="240" height="48" fill="#060"/>
  <g id="ke-c">
    <use stroke="#000" xlink:href="#ke-b"/>
    <use fill="#fff" xlink:href="#ke-b"/>
  </g>
  <use transform="scale(-1,1)" xlink:href="#ke-c"/>
  <path d="m-120-24v48h101c3 8 13 24 19 24s16-16 19-24h101v-48h-101c-3-8-13-24-19-24s-16 16-19 24z" fill="#b00"/>
  <path id="ke-d" d="m19 24c3-8 5-16 5-24s-2-16-5-24c-3 8-5 16-5 24s2 16 5 24"/>
  <use transform="scale(-1,1)" xlink:href="#ke-d"/>
  <g fill="#fff">
    <ellipse rx="4" ry="6"/>
    <path id="ke-a" d="m1 5.85s4 8 4 21-4 21-4 21z"/>
    <use transform="scale(-1)" xlink:href="#ke-a"/>
    <use transform="scale(-1,1)" xlink:href="#ke-a"/>
    <use transform="scale(1,-1)" xlink:href="#ke-a"/>
  </g>
</svg>
