<svg viewBox="0 0 1200 600" xmlns="http://www.w3.org/2000/svg" xmlns:xlink="http://www.w3.org/1999/xlink">
<defs>
<clipPath id="nz-c">
<path d="m0 0h600v300h-600z"/>
</clipPath>
<clipPath id="nz-d">
<path d="m0 0l300 150h-300zm300 0h300l-300 150zm0 150h300v150zv150h-300z"/>
</clipPath>
<g id="nz-a">
<g id="nz-b" transform="translate(0 -.32492)">
<path d="m0 0v0.5l1-0.5z"/>
<path transform="rotate(-36,1,0)" d="m0 0v-0.5l1 0.5z"/>
</g>
<use transform="scale(-1,1)" xlink:href="#nz-b"/>
<use transform="rotate(72)" xlink:href="#nz-b"/>
<use transform="rotate(-72)" xlink:href="#nz-b"/>
<use transform="rotate(-72) scale(-1 1)" xlink:href="#nz-b"/>
</g>
</defs>
<rect width="1200" height="600" fill="#00247d"/>
<path d="m0 0l600 300m-600 0l600-300" clip-path="url(#nz-c)" stroke="#fff" stroke-width="60"/>
<path d="m0 0l600 300m-600 0l600-300" clip-path="url(#nz-d)" stroke="#cc142b" stroke-width="40"/>
<path d="m300 0v300m-300-150h600" clip-path="url(#nz-c)" stroke="#fff" stroke-width="100"/>
<path d="m300 0v300m-300-150h600" clip-path="url(#nz-c)" stroke="#cc142b" stroke-width="60"/>
<use transform="translate(900,120) scale(45.4)" fill="#ffffff" xlink:href="#nz-a"/>
<use transform="translate(900,120) scale(30)" fill="#cc142b" xlink:href="#nz-a"/>
<g transform="rotate(82,900,240)">
<use transform="translate(900,120) rotate(-82) scale(40.4)" fill="#ffffff" xlink:href="#nz-a"/>
<use transform="translate(900,120) rotate(-82) scale(25)" fill="#cc142b" xlink:href="#nz-a"/>
<use transform="translate(900,380) rotate(-82) scale(45.4)" fill="#ffffff" xlink:href="#nz-a"/>
<use transform="translate(900,380) rotate(-82) scale(30)" fill="#cc142b" xlink:href="#nz-a"/>
</g>
<use transform="translate(900,480) scale(50.4)" fill="#ffffff" xlink:href="#nz-a"/>
<use transform="translate(900,480) scale(35)" fill="#cc142b" xlink:href="#nz-a"/>
</svg>
